<svg width="210" height="210" viewBox="0 0 210 210" fill="none" xmlns="http://www.w3.org/2000/svg">
<path d="M32.1143 173.478C33.8057 168.362 44.8011 162.408 50.9093 160.14L60.4505 176.963L85.9531 182.57C82.7768 182.57 55.7335 195.119 44.0257 201.262V182.377C38.2078 178.209 32.1143 173.478 32.1143 173.478Z" fill="#A8A8A8"/>
<path d="M179.463 173.478C177.771 168.362 166.776 162.408 160.668 160.14L151.127 176.963L123.735 182.57C126.911 182.57 155.844 195.119 167.551 201.262V182.377C173.369 178.209 179.463 173.478 179.463 173.478Z" fill="#A1A1A1"/>
<path d="M74.6183 169.486L85.9528 182.57L60.4502 176.963L74.6183 169.486Z" fill="#6D6D6D"/>
<path d="M136.014 169.486L123.735 182.57L151.127 176.963L136.014 169.486Z" fill="#6D6D6D"/>
<path d="M105 5L135.266 40.0467H74.7339L105 5Z" fill="url(#paint0_linear_104_2219)"/>
<path d="M105 205L74.7343 169.953L135.266 169.953L105 205Z" fill="url(#paint1_linear_104_2219)"/>
<g filter="url(#filter0_f_104_2219)">
<path d="M105 14.3457L108.507 24.8949L119.168 28.3644L108.507 31.8338L105 42.3831L101.494 31.8338L90.832 28.3644L101.494 24.8949L105 14.3457Z" fill="white"/>
<path d="M108.412 24.9268L108.428 24.9746L108.476 24.9902L118.845 28.3643L108.476 31.7383L108.428 31.7539L108.412 31.8027L105 42.0664L101.589 31.8027L101.572 31.7539L101.524 31.7383L91.1553 28.3643L101.524 24.9902L101.572 24.9746L101.589 24.9268L105 14.6611L108.412 24.9268Z" stroke="#FAFF00" stroke-width="0.2"/>
</g>
<path d="M192.526 155L146.718 163.411L176.984 111.542L192.526 155Z" fill="url(#paint2_linear_104_2219)"/>
<path d="M17.474 55.0001L63.2819 46.5889L33.016 98.4581L17.474 55.0001Z" fill="url(#paint3_linear_104_2219)"/>
<path d="M192.526 54.9997L176.984 98.4576L146.718 46.5884L192.526 54.9997Z" fill="url(#paint4_linear_104_2219)"/>
<path d="M17.4742 155L33.0162 111.542L63.2821 163.412L17.4742 155Z" fill="url(#paint5_linear_104_2219)"/>
<path d="M105.944 27.9299C148.449 27.9299 182.897 62.0222 182.897 104.066C182.897 146.109 148.449 180.201 105.944 180.201C63.4399 180.201 28.9923 146.109 28.9922 104.066C28.9922 62.0223 63.4398 27.9301 105.944 27.9299Z" fill="url(#paint6_linear_104_2219)" stroke="url(#paint7_linear_104_2219)"/>
<g filter="url(#filter1_i_104_2219)">
<ellipse cx="105.944" cy="104.065" rx="68.007" ry="67.2897" fill="url(#paint8_linear_104_2219)"/>
</g>
<g filter="url(#filter2_i_104_2219)">
<ellipse cx="105.944" cy="104.065" rx="56.6725" ry="56.0748" fill="url(#paint9_linear_104_2219)"/>
</g>
<g filter="url(#filter3_d_104_2219)">
<path d="M72.4845 94.5052C71.4737 91.7982 74.4984 89.3673 76.9246 90.9369L122.242 120.255C124.752 121.879 123.602 125.774 120.612 125.774H86.2425C84.9904 125.774 83.87 124.996 83.432 123.823L72.4845 94.5052Z" fill="url(#paint10_linear_104_2219)"/>
<path d="M139.394 94.4692C140.415 91.7687 137.406 89.3255 134.973 90.8797L88.9998 120.245C86.4727 121.86 87.6161 125.774 90.6147 125.774H125.482C126.729 125.774 127.847 125.002 128.288 123.835L139.394 94.4692Z" fill="url(#paint11_linear_104_2219)"/>
<path d="M103.258 83.7014C104.357 81.4643 107.546 81.4643 108.644 83.7014L127.371 121.841C128.349 123.835 126.899 126.164 124.678 126.164H87.2246C85.0039 126.164 83.553 123.835 84.5317 121.841L103.258 83.7014Z" fill="url(#paint12_linear_104_2219)"/>
<mask id="mask0_104_2219" style="mask-type:alpha" maskUnits="userSpaceOnUse" x="84" y="82" width="44" height="45">
<path d="M103.258 83.7014C104.357 81.4643 107.546 81.4643 108.644 83.7014L127.371 121.841C128.349 123.835 126.899 126.164 124.678 126.164H87.2246C85.0039 126.164 83.553 123.835 84.5317 121.841L103.258 83.7014Z" fill="url(#paint13_linear_104_2219)"/>
</mask>
<g mask="url(#mask0_104_2219)">
<g filter="url(#filter4_f_104_2219)">
<ellipse cx="24.5833" cy="6.69069" rx="24.5833" ry="6.69069" transform="matrix(0.2048 0.978804 -0.979657 0.200677 121.22 84.2332)" fill="#E0E0E0" fill-opacity="0.8"/>
</g>
</g>
<ellipse cx="105.953" cy="74.7086" rx="4.33362" ry="4.28792" fill="url(#paint14_linear_104_2219)"/>
<ellipse cx="71.7078" cy="87.1824" rx="3.54569" ry="3.5083" fill="url(#paint15_linear_104_2219)"/>
<ellipse cx="140.015" cy="87.1824" rx="3.54569" ry="3.5083" fill="url(#paint16_linear_104_2219)"/>
<rect x="83.9854" y="129.545" width="43.102" height="5.81555" rx="2.90778" fill="url(#paint17_linear_104_2219)"/>
</g>
<path d="M75.719 55.4673L77.1216 59.687L81.3863 61.0748L77.1216 62.4625L75.719 66.6822L74.3164 62.4625L70.0518 61.0748L74.3164 59.687L75.719 55.4673Z" fill="white"/>
<path d="M58.7167 36.7756L61.9894 46.6216L71.9403 49.8597L61.9894 53.0979L58.7167 62.9439L55.4441 53.0979L45.4932 49.8597L55.4441 46.6216L58.7167 36.7756Z" fill="white"/>
<g filter="url(#filter5_d_104_2219)">
<path d="M45.3379 153.09L60.4506 176.963C101.066 155.467 139.792 171.355 151.127 176.963L166.239 153.09C161.918 148.151 143.808 138.163 105.939 137.724C68.071 137.285 49.7599 147.785 45.3379 153.09Z" fill="url(#paint18_linear_104_2219)"/>
</g>
<g filter="url(#filter6_d_104_2219)">
<path d="M84.2784 158.567V146.931H88.5398C89.3655 146.931 90.0492 147.067 90.5909 147.34C91.1326 147.609 91.5379 147.974 91.8068 148.436C92.0758 148.895 92.2102 149.412 92.2102 149.987C92.2102 150.472 92.1212 150.881 91.9432 151.215C91.7652 151.544 91.5265 151.809 91.2273 152.01C90.9318 152.207 90.6061 152.351 90.25 152.442V152.556C90.6364 152.574 91.0133 152.699 91.3807 152.931C91.7519 153.158 92.0587 153.482 92.3011 153.902C92.5436 154.323 92.6648 154.834 92.6648 155.436C92.6648 156.031 92.5246 156.565 92.2443 157.038C91.9678 157.508 91.5398 157.881 90.9602 158.158C90.3807 158.431 89.6402 158.567 88.7386 158.567H84.2784ZM86.0341 157.061H88.5682C89.4091 157.061 90.0114 156.898 90.375 156.573C90.7386 156.247 90.9205 155.84 90.9205 155.351C90.9205 154.984 90.8277 154.646 90.642 154.34C90.4564 154.033 90.1913 153.788 89.8466 153.607C89.5057 153.425 89.1004 153.334 88.6307 153.334H86.0341V157.061ZM86.0341 151.965H88.3864C88.7803 151.965 89.1345 151.889 89.4489 151.737C89.767 151.586 90.0189 151.374 90.2045 151.101C90.3939 150.824 90.4886 150.499 90.4886 150.124C90.4886 149.643 90.3201 149.239 89.983 148.913C89.6458 148.588 89.1288 148.425 88.4318 148.425H86.0341V151.965ZM95.7301 158.567H93.8665L98.054 146.931H100.082L104.27 158.567H102.406L99.1165 149.044H99.0256L95.7301 158.567ZM96.0426 154.01H102.088V155.487H96.0426V154.01ZM112.203 149.987C112.143 149.449 111.893 149.033 111.453 148.737C111.014 148.438 110.461 148.288 109.794 148.288C109.317 148.288 108.904 148.364 108.555 148.516C108.207 148.663 107.936 148.868 107.743 149.129C107.554 149.387 107.459 149.681 107.459 150.01C107.459 150.287 107.523 150.525 107.652 150.726C107.785 150.927 107.957 151.095 108.169 151.232C108.385 151.364 108.616 151.476 108.862 151.567C109.108 151.654 109.345 151.726 109.572 151.783L110.709 152.078C111.08 152.169 111.461 152.292 111.851 152.448C112.241 152.603 112.603 152.807 112.936 153.061C113.269 153.315 113.538 153.629 113.743 154.004C113.951 154.379 114.055 154.828 114.055 155.351C114.055 156.01 113.885 156.595 113.544 157.107C113.207 157.618 112.716 158.021 112.072 158.317C111.432 158.612 110.658 158.76 109.749 158.76C108.877 158.76 108.124 158.622 107.487 158.345C106.851 158.069 106.353 157.677 105.993 157.169C105.633 156.658 105.434 156.052 105.396 155.351H107.158C107.192 155.771 107.328 156.122 107.567 156.402C107.809 156.679 108.118 156.885 108.493 157.021C108.872 157.154 109.286 157.22 109.737 157.22C110.233 157.22 110.675 157.143 111.061 156.987C111.451 156.828 111.758 156.609 111.982 156.328C112.205 156.044 112.317 155.713 112.317 155.334C112.317 154.989 112.218 154.707 112.021 154.487C111.828 154.268 111.565 154.086 111.232 153.942C110.902 153.798 110.529 153.671 110.112 153.561L108.737 153.186C107.805 152.932 107.067 152.559 106.521 152.067C105.98 151.574 105.709 150.923 105.709 150.112C105.709 149.442 105.891 148.857 106.254 148.357C106.618 147.857 107.11 147.468 107.732 147.192C108.353 146.912 109.054 146.771 109.834 146.771C110.622 146.771 111.317 146.91 111.919 147.186C112.525 147.463 113.002 147.843 113.351 148.328C113.699 148.809 113.881 149.362 113.896 149.987H112.203ZM117.909 146.931V158.567H116.153V146.931H117.909ZM130.131 150.715H128.358C128.29 150.336 128.163 150.003 127.977 149.715C127.792 149.427 127.564 149.182 127.295 148.982C127.027 148.781 126.725 148.629 126.392 148.527C126.063 148.425 125.712 148.374 125.341 148.374C124.67 148.374 124.07 148.542 123.54 148.879C123.013 149.217 122.597 149.711 122.29 150.362C121.987 151.014 121.835 151.809 121.835 152.749C121.835 153.696 121.987 154.495 122.29 155.146C122.597 155.798 123.015 156.29 123.545 156.624C124.076 156.957 124.672 157.124 125.335 157.124C125.703 157.124 126.051 157.074 126.381 156.976C126.714 156.874 127.015 156.724 127.284 156.527C127.553 156.33 127.78 156.09 127.966 155.806C128.155 155.518 128.286 155.188 128.358 154.817L130.131 154.823C130.036 155.395 129.852 155.921 129.58 156.402C129.311 156.879 128.964 157.292 128.54 157.641C128.119 157.985 127.638 158.253 127.097 158.442C126.555 158.631 125.964 158.726 125.324 158.726C124.316 158.726 123.419 158.487 122.631 158.01C121.843 157.529 121.222 156.842 120.767 155.948C120.316 155.054 120.091 153.987 120.091 152.749C120.091 151.506 120.318 150.44 120.773 149.55C121.227 148.656 121.848 147.97 122.636 147.493C123.424 147.012 124.32 146.771 125.324 146.771C125.941 146.771 126.517 146.86 127.051 147.038C127.589 147.213 128.072 147.47 128.5 147.811C128.928 148.148 129.282 148.561 129.562 149.05C129.843 149.535 130.032 150.09 130.131 150.715Z" fill="white"/>
</g>
<defs>
<filter id="filter0_f_104_2219" x="87.832" y="11.3457" width="34.3359" height="34.0374" filterUnits="userSpaceOnUse" color-interpolation-filters="sRGB">
<feFlood flood-opacity="0" result="BackgroundImageFix"/>
<feBlend mode="normal" in="SourceGraphic" in2="BackgroundImageFix" result="shape"/>
<feGaussianBlur stdDeviation="1.5" result="effect1_foregroundBlur_104_2219"/>
</filter>
<filter id="filter1_i_104_2219" x="37.9375" y="34.7756" width="136.014" height="136.579" filterUnits="userSpaceOnUse" color-interpolation-filters="sRGB">
<feFlood flood-opacity="0" result="BackgroundImageFix"/>
<feBlend mode="normal" in="SourceGraphic" in2="BackgroundImageFix" result="shape"/>
<feColorMatrix in="SourceAlpha" type="matrix" values="0 0 0 0 0 0 0 0 0 0 0 0 0 0 0 0 0 0 127 0" result="hardAlpha"/>
<feOffset dy="-2"/>
<feGaussianBlur stdDeviation="1"/>
<feComposite in2="hardAlpha" operator="arithmetic" k2="-1" k3="1"/>
<feColorMatrix type="matrix" values="0 0 0 0 0.678431 0 0 0 0 0.678431 0 0 0 0 0.678431 0 0 0 1 0"/>
<feBlend mode="normal" in2="shape" result="effect1_innerShadow_104_2219"/>
</filter>
<filter id="filter2_i_104_2219" x="49.2715" y="45.9907" width="113.345" height="114.149" filterUnits="userSpaceOnUse" color-interpolation-filters="sRGB">
<feFlood flood-opacity="0" result="BackgroundImageFix"/>
<feBlend mode="normal" in="SourceGraphic" in2="BackgroundImageFix" result="shape"/>
<feColorMatrix in="SourceAlpha" type="matrix" values="0 0 0 0 0 0 0 0 0 0 0 0 0 0 0 0 0 0 127 0" result="hardAlpha"/>
<feOffset dy="-2"/>
<feGaussianBlur stdDeviation="1"/>
<feComposite in2="hardAlpha" operator="arithmetic" k2="-1" k3="1"/>
<feColorMatrix type="matrix" values="0 0 0 0 0.509615 0 0 0 0 0.509615 0 0 0 0 0.509615 0 0 0 1 0"/>
<feBlend mode="normal" in2="shape" result="effect1_innerShadow_104_2219"/>
</filter>
<filter id="filter3_d_104_2219" x="66.1621" y="70.4207" width="79.3994" height="68.9404" filterUnits="userSpaceOnUse" color-interpolation-filters="sRGB">
<feFlood flood-opacity="0" result="BackgroundImageFix"/>
<feColorMatrix in="SourceAlpha" type="matrix" values="0 0 0 0 0 0 0 0 0 0 0 0 0 0 0 0 0 0 127 0" result="hardAlpha"/>
<feOffset dy="2"/>
<feGaussianBlur stdDeviation="1"/>
<feComposite in2="hardAlpha" operator="out"/>
<feColorMatrix type="matrix" values="0 0 0 0 0.129808 0 0 0 0 0.120621 0 0 0 0 0.109837 0 0 0 1 0"/>
<feBlend mode="normal" in2="BackgroundImageFix" result="effect1_dropShadow_104_2219"/>
<feBlend mode="normal" in="SourceGraphic" in2="effect1_dropShadow_104_2219" result="shape"/>
</filter>
<filter id="filter4_f_104_2219" x="105.435" y="79.5378" width="28.5303" height="60.2004" filterUnits="userSpaceOnUse" color-interpolation-filters="sRGB">
<feFlood flood-opacity="0" result="BackgroundImageFix"/>
<feBlend mode="normal" in="SourceGraphic" in2="BackgroundImageFix" result="shape"/>
<feGaussianBlur stdDeviation="3" result="effect1_foregroundBlur_104_2219"/>
</filter>
<filter id="filter5_d_104_2219" x="25.3379" y="127.71" width="160.901" height="79.2524" filterUnits="userSpaceOnUse" color-interpolation-filters="sRGB">
<feFlood flood-opacity="0" result="BackgroundImageFix"/>
<feColorMatrix in="SourceAlpha" type="matrix" values="0 0 0 0 0 0 0 0 0 0 0 0 0 0 0 0 0 0 127 0" result="hardAlpha"/>
<feOffset dy="10"/>
<feGaussianBlur stdDeviation="10"/>
<feComposite in2="hardAlpha" operator="out"/>
<feColorMatrix type="matrix" values="0 0 0 0 0 0 0 0 0 0 0 0 0 0 0 0 0 0 0.3 0"/>
<feBlend mode="normal" in2="BackgroundImageFix" result="effect1_dropShadow_104_2219"/>
<feBlend mode="normal" in="SourceGraphic" in2="effect1_dropShadow_104_2219" result="shape"/>
</filter>
<filter id="filter6_d_104_2219" x="84.2783" y="146.771" width="45.8525" height="12.9885" filterUnits="userSpaceOnUse" color-interpolation-filters="sRGB">
<feFlood flood-opacity="0" result="BackgroundImageFix"/>
<feColorMatrix in="SourceAlpha" type="matrix" values="0 0 0 0 0 0 0 0 0 0 0 0 0 0 0 0 0 0 127 0" result="hardAlpha"/>
<feOffset dy="1"/>
<feComposite in2="hardAlpha" operator="out"/>
<feColorMatrix type="matrix" values="0 0 0 0 0.34902 0 0 0 0 0.34902 0 0 0 0 0.34902 0 0 0 1 0"/>
<feBlend mode="normal" in2="BackgroundImageFix" result="effect1_dropShadow_104_2219"/>
<feBlend mode="normal" in="SourceGraphic" in2="effect1_dropShadow_104_2219" result="shape"/>
</filter>
<linearGradient id="paint0_linear_104_2219" x1="92.4185" y1="19.0187" x2="117.581" y2="19.0187" gradientUnits="userSpaceOnUse">
<stop offset="0.484631" stop-color="#F8F8F8"/>
<stop offset="0.488859" stop-color="#929292"/>
</linearGradient>
<linearGradient id="paint1_linear_104_2219" x1="117.581" y1="190.981" x2="92.4189" y2="190.981" gradientUnits="userSpaceOnUse">
<stop offset="0.484631" stop-color="#F8F8F8"/>
<stop offset="0.488859" stop-color="#939393"/>
</linearGradient>
<linearGradient id="paint2_linear_104_2219" x1="186.547" y1="137.21" x2="174.164" y2="158.885" gradientUnits="userSpaceOnUse">
<stop offset="0.484631" stop-color="#F8F8F8"/>
<stop offset="0.488859" stop-color="#939393"/>
</linearGradient>
<linearGradient id="paint3_linear_104_2219" x1="23.4533" y1="72.7903" x2="35.8356" y2="51.115" gradientUnits="userSpaceOnUse">
<stop offset="0.484631" stop-color="#F8F8F8"/>
<stop offset="0.488859" stop-color="#939393"/>
</linearGradient>
<linearGradient id="paint4_linear_104_2219" x1="173.965" y1="51.2282" x2="186.347" y2="72.9035" gradientUnits="userSpaceOnUse">
<stop offset="0.484631" stop-color="#F8F8F8"/>
<stop offset="0.488859" stop-color="#939393"/>
</linearGradient>
<linearGradient id="paint5_linear_104_2219" x1="36.0348" y1="158.772" x2="23.6526" y2="137.096" gradientUnits="userSpaceOnUse">
<stop offset="0.484631" stop-color="#F8F8F8"/>
<stop offset="0.488859" stop-color="#939393"/>
</linearGradient>
<linearGradient id="paint6_linear_104_2219" x1="56.2956" y1="47.0801" x2="158.353" y2="162.127" gradientUnits="userSpaceOnUse">
<stop stop-color="#D2D2D2"/>
<stop offset="0.237301" stop-color="#AAACAE"/>
<stop offset="1" stop-color="#797979"/>
</linearGradient>
<linearGradient id="paint7_linear_104_2219" x1="105.945" y1="27.4299" x2="105.945" y2="180.701" gradientUnits="userSpaceOnUse">
<stop stop-color="white" stop-opacity="0.5"/>
<stop offset="1" stop-color="white" stop-opacity="0"/>
</linearGradient>
<linearGradient id="paint8_linear_104_2219" x1="62.4956" y1="52.6635" x2="148.303" y2="157.296" gradientUnits="userSpaceOnUse">
<stop stop-color="#D4D4D4"/>
<stop offset="1" stop-color="#767676"/>
</linearGradient>
<linearGradient id="paint9_linear_104_2219" x1="68.4401" y1="57.8863" x2="114.295" y2="160.505" gradientUnits="userSpaceOnUse">
<stop stop-color="#D3D3D3"/>
<stop offset="0.484375" stop-color="#E4E4E4"/>
<stop offset="1" stop-color="#A0A0A0"/>
</linearGradient>
<linearGradient id="paint10_linear_104_2219" x1="73.0409" y1="97.3174" x2="95.8731" y2="114.1" gradientUnits="userSpaceOnUse">
<stop stop-color="#D7D7D7"/>
<stop offset="1" stop-color="#707070"/>
</linearGradient>
<linearGradient id="paint11_linear_104_2219" x1="136.47" y1="92.4897" x2="122.754" y2="117.441" gradientUnits="userSpaceOnUse">
<stop stop-color="#F8F8F8"/>
<stop offset="1" stop-color="#88898A"/>
</linearGradient>
<linearGradient id="paint12_linear_104_2219" x1="93.9078" y1="102.898" x2="118.339" y2="102.898" gradientUnits="userSpaceOnUse">
<stop offset="0.49738" stop-color="#F8F8F8"/>
<stop offset="0.49738" stop-color="#939393"/>
</linearGradient>
<linearGradient id="paint13_linear_104_2219" x1="93.9078" y1="102.898" x2="118.339" y2="102.898" gradientUnits="userSpaceOnUse">
<stop offset="0.49738" stop-color="#F8F8F8"/>
<stop offset="0.49738" stop-color="#939393"/>
</linearGradient>
<linearGradient id="paint14_linear_104_2219" x1="105.953" y1="70.4207" x2="105.953" y2="78.9965" gradientUnits="userSpaceOnUse">
<stop stop-color="#F4F4F4"/>
<stop offset="1" stop-color="#AAAAAA"/>
</linearGradient>
<linearGradient id="paint15_linear_104_2219" x1="71.7078" y1="83.6741" x2="71.7078" y2="90.6907" gradientUnits="userSpaceOnUse">
<stop stop-color="white"/>
<stop offset="1" stop-color="#A2A2A2"/>
</linearGradient>
<linearGradient id="paint16_linear_104_2219" x1="140.015" y1="83.6741" x2="140.015" y2="90.6907" gradientUnits="userSpaceOnUse">
<stop stop-color="#EFEFEF"/>
<stop offset="1" stop-color="#B3B3B3"/>
</linearGradient>
<linearGradient id="paint17_linear_104_2219" x1="84.4751" y1="132.453" x2="127.577" y2="132.453" gradientUnits="userSpaceOnUse">
<stop stop-color="#B4B3B3"/>
<stop offset="1" stop-color="#C7C7C7"/>
</linearGradient>
<linearGradient id="paint18_linear_104_2219" x1="51.8068" y1="160.403" x2="160.66" y2="159.186" gradientUnits="userSpaceOnUse">
<stop stop-color="#A9A9A9"/>
<stop offset="1" stop-color="#C3C3C3"/>
</linearGradient>
</defs>
</svg>
