<svg width="20" height="22" viewBox="0 0 20 22" fill="none" xmlns="http://www.w3.org/2000/svg">
<path fill-rule="evenodd" clip-rule="evenodd" d="M17.3125 0.03125C17.959 0.03125 18.579 0.288057 19.0361 0.745177C19.4932 1.2023 19.75 1.82228 19.75 2.46875V14.6562C19.75 15.3027 19.4932 15.9227 19.0361 16.3798C18.579 16.8369 17.959 17.0938 17.3125 17.0938H16.0938V7.34375C16.0938 6.05082 15.5801 4.81084 14.6659 3.8966C13.7517 2.98236 12.5117 2.46875 11.2188 2.46875H7.5625C7.13473 2.4684 6.71441 2.58063 6.34375 2.79416V2.46875C6.34375 1.82228 6.60056 1.2023 7.05768 0.745177C7.5148 0.288057 8.13478 0.03125 8.78125 0.03125H17.3125Z" fill="#F8BF16"/>
<path fill-rule="evenodd" clip-rule="evenodd" d="M5.125 4.97206V9.78125H0.49375C0.584723 9.59172 0.699835 9.41475 0.836219 9.25475L3.83434 5.75694C4.1706 5.36524 4.62252 5.09042 5.125 4.97206ZM7.5625 4.90625V9.78125C7.5625 10.4277 7.30569 11.0477 6.84857 11.5048C6.39145 11.9619 5.77147 12.2188 5.125 12.2188H0.25V19.5312C0.25 20.1777 0.506807 20.7977 0.963927 21.2548C1.42105 21.7119 2.04103 21.9688 2.6875 21.9688H11.2188C11.8652 21.9688 12.4852 21.7119 12.9423 21.2548C13.3994 20.7977 13.6562 20.1777 13.6562 19.5312V7.34375C13.6562 6.69728 13.3994 6.0773 12.9423 5.62018C12.4852 5.16306 11.8652 4.90625 11.2188 4.90625H7.5625Z" fill="white"/>
</svg>
