<svg width="24" height="24" viewBox="0 0 24 24" fill="none" xmlns="http://www.w3.org/2000/svg">
<path d="M24 18.2406V22H7.46411V18.2406C7.46411 18.2406 7.46411 10.8271 15.7321 10.8271C24 10.8271 24 18.2406 24 18.2406ZM19.866 5.06015C19.866 4.25713 19.6236 3.47214 19.1693 2.80445C18.7151 2.13676 18.0694 1.61637 17.3141 1.30906C16.5587 1.00176 15.7275 0.921355 14.9256 1.07802C14.1236 1.23468 13.387 1.62137 12.8089 2.18919C12.2308 2.75701 11.837 3.48046 11.6775 4.26806C11.518 5.05565 11.5999 5.87201 11.9128 6.6139C12.2257 7.3558 12.7555 7.98991 13.4353 8.43604C14.1152 8.88218 14.9144 9.1203 15.7321 9.1203C16.8285 9.1203 17.8799 8.69254 18.6552 7.93111C19.4305 7.16969 19.866 6.13697 19.866 5.06015ZM9.02392 7.76692H5.88995V4.70677H3.13397V7.76692H0V10.4737H3.13397V13.5338H5.88995V10.4737H9.02392V7.76692Z" fill="black"/>
</svg>
