<svg width="24" height="24" viewBox="0 0 24 24" fill="none" xmlns="http://www.w3.org/2000/svg">
<path fill-rule="evenodd" clip-rule="evenodd" d="M11 16.5C11 15.0413 11.5795 13.6424 12.6109 12.6109C13.6424 11.5795 15.0413 11 16.5 11C17.9587 11 19.3576 11.5795 20.3891 12.6109C21.4205 13.6424 22 15.0413 22 16.5C22 17.9587 21.4205 19.3576 20.3891 20.3891C19.3576 21.4205 17.9587 22 16.5 22C15.0413 22 13.6424 21.4205 12.6109 20.3891C11.5795 19.3576 11 17.9587 11 16.5ZM15.5 19V17.5H14V15.5H15.5V14H17.5V15.5H19V17.5H17.5V19H15.5Z" fill="#F8BF16"/>
<path d="M3.987 4C3.45882 4.00343 2.95345 4.21566 2.58118 4.59036C2.20892 4.96506 1.99999 5.47181 2 6V15C2 15.5304 2.21071 16.0391 2.58579 16.4142C2.96086 16.7893 3.46957 17 4 17H9V15H4V10H20V6C20 5.46957 19.7893 4.96086 19.4142 4.58579C19.0391 4.21071 18.5304 4 18 4H3.987Z" fill="#F8BF16"/>
<path fill-rule="evenodd" clip-rule="evenodd" d="M5 12C5 11.7348 5.10536 11.4804 5.29289 11.2929C5.48043 11.1054 5.73478 11 6 11H9C9.26522 11 9.51957 11.1054 9.70711 11.2929C9.89464 11.4804 10 11.7348 10 12C10 12.2652 9.89464 12.5196 9.70711 12.7071C9.51957 12.8946 9.26522 13 9 13H6C5.73478 13 5.48043 12.8946 5.29289 12.7071C5.10536 12.5196 5 12.2652 5 12Z" fill="#F8BF16"/>
</svg>
