<svg width="24" height="24" viewBox="0 0 24 24" fill="none" xmlns="http://www.w3.org/2000/svg">
<path d="M22 8.70011C22 8.89902 21.921 9.08978 21.7803 9.23044C21.6397 9.37109 21.4489 9.45011 21.25 9.45011H18.8C18.633 10.073 18.2651 10.6233 17.7534 11.0159C17.2418 11.4084 16.6149 11.6212 15.97 11.6212C15.3251 11.6212 14.6982 11.4084 14.1866 11.0159C13.6749 10.6233 13.307 10.073 13.14 9.45011H2.75C2.65151 9.45011 2.55398 9.43071 2.46299 9.39302C2.37199 9.35532 2.28931 9.30008 2.21967 9.23044C2.15003 9.16079 2.09478 9.07811 2.05709 8.98712C2.0194 8.89612 2 8.7986 2 8.70011C2 8.60161 2.0194 8.50409 2.05709 8.41309C2.09478 8.3221 2.15003 8.23942 2.21967 8.16978C2.28931 8.10013 2.37199 8.04489 2.46299 8.0072C2.55398 7.96951 2.65151 7.95011 2.75 7.95011H13.14C13.307 7.32723 13.6749 6.77686 14.1866 6.38434C14.6982 5.99181 15.3251 5.77905 15.97 5.77905C16.6149 5.77905 17.2418 5.99181 17.7534 6.38434C18.2651 6.77686 18.633 7.32723 18.8 7.95011H21.25C21.3489 7.94876 21.447 7.96724 21.5386 8.00446C21.6302 8.04167 21.7134 8.09686 21.7833 8.16678C21.8532 8.23669 21.9084 8.31991 21.9457 8.41151C21.9829 8.50311 22.0013 8.60124 22 8.70011ZM22 15.3001C22.0013 15.399 21.9829 15.4971 21.9457 15.5887C21.9084 15.6803 21.8532 15.7635 21.7833 15.8334C21.7134 15.9033 21.6302 15.9585 21.5386 15.9958C21.447 16.033 21.3489 16.0515 21.25 16.0501H9.55C9.38296 16.673 9.01509 17.2233 8.50342 17.6159C7.99176 18.0084 7.36489 18.2212 6.72 18.2212C6.07511 18.2212 5.44824 18.0084 4.93658 17.6159C4.42491 17.2233 4.05704 16.673 3.89 16.0501H2.75C2.55109 16.0501 2.36032 15.9711 2.21967 15.8304C2.07902 15.6898 2 15.499 2 15.3001C2 15.1012 2.07902 14.9104 2.21967 14.7698C2.36032 14.6291 2.55109 14.5501 2.75 14.5501H3.89C4.05704 13.9272 4.42491 13.3769 4.93658 12.9843C5.44824 12.5918 6.07511 12.3791 6.72 12.3791C7.36489 12.3791 7.99176 12.5918 8.50342 12.9843C9.01509 13.3769 9.38296 13.9272 9.55 14.5501H21.25C21.4489 14.5501 21.6397 14.6291 21.7803 14.7698C21.921 14.9104 22 15.1012 22 15.3001Z" fill="white"/>
</svg>
