<svg width="19" height="25" viewBox="0 0 19 25" fill="none" xmlns="http://www.w3.org/2000/svg">
<g clip-path="url(#clip0_4236_8275)">
<path d="M6.11498 10.1039V8.30768C6.11498 7.87445 6.28629 7.45896 6.59122 7.15262C6.89615 6.84628 7.30973 6.67419 7.74097 6.67419H11.2521C11.6833 6.67419 12.0969 6.84628 12.4018 7.15262C12.7067 7.45896 12.8781 7.87445 12.8781 8.30768V10.1039H14.4846V8.30768C14.4846 7.44467 14.1434 6.61701 13.5359 6.00677C12.9285 5.39654 12.1046 5.05371 11.2456 5.05371H7.74097C6.88193 5.05371 6.05807 5.39654 5.45064 6.00677C4.8432 6.61701 4.50195 7.44467 4.50195 8.30768V10.1039H6.11498Z" fill="url(#paint0_linear_4236_8275)"/>
<path d="M17.7495 18.3939C18.7847 13.8165 15.9302 9.2627 11.3738 8.22273C6.81743 7.18277 2.28456 10.0504 1.24937 14.6279C0.214184 19.2053 3.06869 23.7591 7.62508 24.799C12.1815 25.839 16.7143 22.9713 17.7495 18.3939Z" fill="url(#paint1_linear_4236_8275)"/>
<path d="M17.3327 18.2987C18.3155 13.9526 15.6053 9.62895 11.2792 8.64155C6.95304 7.65414 2.64924 10.3769 1.66637 14.723C0.683493 19.0691 3.39374 23.3927 7.71987 24.3801C12.046 25.3676 16.3498 22.6448 17.3327 18.2987Z" fill="url(#paint2_linear_4236_8275)"/>
<path d="M9.49572 23.3994C13.2774 23.3994 16.343 20.3196 16.343 16.5205C16.343 12.7214 13.2774 9.6416 9.49572 9.6416C5.71407 9.6416 2.64844 12.7214 2.64844 16.5205C2.64844 20.3196 5.71407 23.3994 9.49572 23.3994Z" fill="url(#paint3_linear_4236_8275)"/>
<g style="mix-blend-mode:overlay" opacity="0.45">
<path d="M3.10215 16.9758C3.10575 15.6448 3.49401 14.3434 4.2198 13.2299C4.94558 12.1163 5.97765 11.2384 7.19061 10.7029C8.40358 10.1673 9.74524 9.99719 11.0526 10.2131C12.36 10.429 13.5769 11.0217 14.5553 11.9192C13.9343 11.2219 13.1781 10.6593 12.3332 10.2657C11.4883 9.87212 10.5723 9.65582 9.64136 9.63005C8.71037 9.60428 7.78394 9.76957 6.91873 10.1158C6.05351 10.4621 5.26771 10.982 4.60937 11.6439C3.95104 12.3057 3.43401 13.0954 3.08993 13.9649C2.74584 14.8343 2.58192 15.7651 2.60819 16.7004C2.63447 17.6357 2.85039 18.5557 3.24274 19.4043C3.6351 20.2528 4.19564 21.0121 4.89009 21.6355C3.73193 20.3635 3.09352 18.6997 3.10215 16.9758Z" fill="#DBDBDB"/>
</g>
<g style="mix-blend-mode:multiply" opacity="0.67">
<path d="M13.8366 11.1904C14.9399 12.5131 15.5956 14.1542 15.7087 15.8761C15.7087 17.7011 14.9875 19.4515 13.7036 20.7426C12.4197 22.0336 10.6781 22.7598 8.86145 22.7615C7.14553 22.651 5.51041 21.9894 4.19727 20.8742C4.80458 21.6137 5.55905 22.2176 6.41229 22.647C7.26553 23.0763 8.19868 23.3218 9.15189 23.3676C10.1051 23.4134 11.0573 23.2585 11.9475 22.9129C12.8376 22.5673 13.646 22.0386 14.3208 21.3607C14.9956 20.6828 15.5219 19.8706 15.8659 18.9764C16.2099 18.0822 16.3641 17.1255 16.3185 16.1679C16.2729 15.2103 16.0286 14.2729 15.6012 13.4157C15.1737 12.5585 14.5727 11.8005 13.8366 11.1904Z" fill="#93908F" fill-opacity="0.2"/>
</g>
<g style="mix-blend-mode:multiply" opacity="0.67">
<path d="M6.07528 19.252V17.7989L9.71875 12.0589H10.9716V14.0702H10.2301L7.93324 17.7052V17.7733H13.1108V19.252H6.07528ZM10.2642 20.7861V18.8089L10.2983 18.1654V12.0589H12.0284V20.7861H10.2642Z" fill="#2C2C2C"/>
</g>
<path d="M10.4025 -1.6626L7.35133 6.64803C7.31039 6.75047 7.29606 6.8617 7.30969 6.97124C7.32332 7.08078 7.36447 7.18504 7.42926 7.27421C7.49404 7.36337 7.58034 7.43452 7.68003 7.48095C7.77972 7.52738 7.88954 7.54757 7.99914 7.53962H8.64694L12.0285 -1.6626H10.4025Z" fill="#737170"/>
<path d="M11.9909 -1.6626L8.60938 7.53963H10.19L13.578 -1.6626H11.9909Z" fill="#2C2C2C"/>
<path d="M13.569 -1.66261L10.9778 5.36596L10.1875 7.5266H11.3147C11.3952 7.5301 11.4755 7.51752 11.5512 7.4896C11.6268 7.46167 11.6961 7.41894 11.7552 7.3639C11.8498 7.29419 11.9201 7.19626 11.956 7.08406L15.195 -1.68213L13.569 -1.66261Z" fill="#737170"/>
<path style="mix-blend-mode:multiply" opacity="0.69" d="M12.7746 4.8325L11.9324 7.11028C11.8918 7.22001 11.8224 7.31668 11.7316 7.39012C11.6151 7.48714 11.4684 7.5401 11.317 7.53981H7.96788C7.85828 7.54776 7.74847 7.52756 7.64877 7.48113C7.54908 7.4347 7.46278 7.36356 7.398 7.27439C7.33321 7.18522 7.29207 7.08097 7.27844 6.97143C7.26481 6.86189 7.27913 6.75066 7.32008 6.64821L10.3583 -1.62988L12.7746 4.8325Z" fill="url(#paint4_linear_4236_8275)"/>
<path d="M8.40096 -1.6626H6.82031L10.1954 7.52661H11.3096C11.3911 7.53099 11.4727 7.51884 11.5495 7.49089C11.6263 7.46294 11.6967 7.41975 11.7566 7.36391L11.0116 5.34644L8.40096 -1.6626Z" fill="#737170"/>
<path d="M5.24023 -1.6626L8.62177 7.53963H10.2024L6.82088 -1.6626H5.24023Z" fill="#2C2C2C"/>
<path d="M3.65234 -1.6626L6.89136 7.10359C6.93592 7.23164 7.01918 7.34249 7.12951 7.42067C7.23985 7.49885 7.37176 7.54044 7.50677 7.53962H8.63395L5.25242 -1.6626H3.65234Z" fill="#737170"/>
</g>
<defs>
<linearGradient id="paint0_linear_4236_8275" x1="4.50843" y1="7.57879" x2="14.4846" y2="7.57879" gradientUnits="userSpaceOnUse">
<stop stop-color="#737170"/>
<stop offset="1" stop-color="#8C8C8C"/>
</linearGradient>
<linearGradient id="paint1_linear_4236_8275" x1="13.499" y1="20.5432" x2="4.58971" y2="11.6749" gradientUnits="userSpaceOnUse">
<stop stop-color="#737170"/>
<stop offset="1" stop-color="#8C8C8C"/>
</linearGradient>
<linearGradient id="paint2_linear_4236_8275" x1="4.86238" y1="11.868" x2="15.6459" y2="22.602" gradientUnits="userSpaceOnUse">
<stop stop-color="#737170"/>
<stop offset="1" stop-color="#8C8C8C"/>
</linearGradient>
<linearGradient id="paint3_linear_4236_8275" x1="17.82" y1="24.8767" x2="1.18589" y2="8.31899" gradientUnits="userSpaceOnUse">
<stop stop-color="#737170"/>
<stop offset="1" stop-color="#8C8C8C"/>
</linearGradient>
<linearGradient id="paint4_linear_4236_8275" x1="11.4142" y1="2.71742" x2="9.8243" y2="3.48611" gradientUnits="userSpaceOnUse">
<stop stop-color="white"/>
<stop offset="1" stop-color="#121E3D"/>
</linearGradient>
<clipPath id="clip0_4236_8275">
<rect width="19" height="25" fill="white"/>
</clipPath>
</defs>
</svg>
