<svg width="20" height="25" viewBox="0 0 20 25" fill="none" xmlns="http://www.w3.org/2000/svg">
<g clip-path="url(#clip0_4236_12188)">
<path d="M6.61498 10.1039V8.30768C6.61498 7.87445 6.78629 7.45896 7.09122 7.15262C7.39615 6.84628 7.80973 6.67419 8.24097 6.67419H11.7521C12.1833 6.67419 12.5969 6.84628 12.9018 7.15262C13.2067 7.45896 13.3781 7.87445 13.3781 8.30768V10.1039H14.9846V8.30768C14.9846 7.44467 14.6434 6.61701 14.0359 6.00677C13.4285 5.39654 12.6046 5.05371 11.7456 5.05371H8.24097C7.38193 5.05371 6.55807 5.39654 5.95064 6.00677C5.3432 6.61701 5.00195 7.44467 5.00195 8.30768V10.1039H6.61498Z" fill="url(#paint0_linear_4236_12188)"/>
<path d="M18.2495 18.3939C19.2847 13.8165 16.4302 9.2627 11.8738 8.22273C7.31743 7.18277 2.78456 10.0504 1.74937 14.6279C0.714184 19.2053 3.56869 23.7591 8.12508 24.799C12.6815 25.839 17.2143 22.9713 18.2495 18.3939Z" fill="url(#paint1_linear_4236_12188)"/>
<path d="M17.8327 18.2987C18.8155 13.9526 16.1053 9.62895 11.7792 8.64155C7.45304 7.65414 3.14924 10.3769 2.16637 14.723C1.18349 19.0691 3.89374 23.3927 8.21987 24.3801C12.546 25.3676 16.8498 22.6448 17.8327 18.2987Z" fill="url(#paint2_linear_4236_12188)"/>
<path d="M9.99572 23.3994C13.7774 23.3994 16.843 20.3196 16.843 16.5205C16.843 12.7214 13.7774 9.6416 9.99572 9.6416C6.21407 9.6416 3.14844 12.7214 3.14844 16.5205C3.14844 20.3196 6.21407 23.3994 9.99572 23.3994Z" fill="url(#paint3_linear_4236_12188)"/>
<g style="mix-blend-mode:overlay" opacity="0.45">
<path d="M3.60215 16.9758C3.60575 15.6448 3.99401 14.3434 4.7198 13.2299C5.44558 12.1163 6.47765 11.2384 7.69061 10.7029C8.90358 10.1673 10.2452 9.99719 11.5526 10.2131C12.86 10.429 14.0769 11.0217 15.0553 11.9192C14.4343 11.2219 13.6781 10.6593 12.8332 10.2657C11.9883 9.87212 11.0723 9.65582 10.1414 9.63005C9.21037 9.60428 8.28394 9.76957 7.41873 10.1158C6.55351 10.4621 5.76771 10.982 5.10937 11.6439C4.45104 12.3057 3.93401 13.0954 3.58993 13.9649C3.24584 14.8343 3.08192 15.7651 3.10819 16.7004C3.13447 17.6357 3.35039 18.5557 3.74274 19.4043C4.1351 20.2528 4.69564 21.0121 5.39009 21.6355C4.23193 20.3635 3.59352 18.6997 3.60215 16.9758Z" fill="#DBDBDB"/>
</g>
<g style="mix-blend-mode:multiply" opacity="0.67">
<path d="M14.3366 11.1904C15.4399 12.5131 16.0956 14.1542 16.2087 15.8761C16.2087 17.7011 15.4875 19.4515 14.2036 20.7426C12.9197 22.0336 11.1781 22.7598 9.36145 22.7615C7.64553 22.651 6.01041 21.9894 4.69727 20.8742C5.30458 21.6137 6.05905 22.2176 6.91229 22.647C7.76553 23.0763 8.69868 23.3218 9.65189 23.3676C10.6051 23.4134 11.5573 23.2585 12.4475 22.9129C13.3376 22.5673 14.146 22.0386 14.8208 21.3607C15.4956 20.6828 16.0219 19.8706 16.3659 18.9764C16.7099 18.0822 16.8641 17.1255 16.8185 16.1679C16.7729 15.2103 16.5286 14.2729 16.1012 13.4157C15.6737 12.5585 15.0727 11.8005 14.3366 11.1904Z" fill="#93908F" fill-opacity="0.2"/>
</g>
<g style="mix-blend-mode:multiply" opacity="0.67">
<path d="M11.5043 12.2727V21H9.65909V14.0241H9.60795L7.60938 15.277V13.6406L9.76989 12.2727H11.5043Z" fill="#2C2C2C"/>
</g>
<path d="M10.9025 -1.6626L7.85133 6.64803C7.81039 6.75047 7.79606 6.8617 7.80969 6.97124C7.82332 7.08078 7.86447 7.18504 7.92926 7.27421C7.99404 7.36337 8.08034 7.43452 8.18003 7.48095C8.27972 7.52738 8.38954 7.54757 8.49914 7.53962H9.14694L12.5285 -1.6626H10.9025Z" fill="#737170"/>
<path d="M12.4909 -1.6626L9.10938 7.53963H10.69L14.078 -1.6626H12.4909Z" fill="#2C2C2C"/>
<path d="M14.069 -1.66261L11.4778 5.36596L10.6875 7.5266H11.8147C11.8952 7.5301 11.9755 7.51752 12.0512 7.4896C12.1268 7.46167 12.1961 7.41894 12.2552 7.3639C12.3498 7.29419 12.4201 7.19626 12.456 7.08406L15.695 -1.68213L14.069 -1.66261Z" fill="#737170"/>
<path style="mix-blend-mode:multiply" opacity="0.69" d="M13.2746 4.8325L12.4324 7.11028C12.3918 7.22001 12.3224 7.31668 12.2316 7.39012C12.1151 7.48714 11.9684 7.5401 11.817 7.53981H8.46788C8.35828 7.54776 8.24847 7.52756 8.14877 7.48113C8.04908 7.4347 7.96278 7.36356 7.898 7.27439C7.83321 7.18522 7.79207 7.08097 7.77844 6.97143C7.76481 6.86189 7.77913 6.75066 7.82008 6.64821L10.8583 -1.62988L13.2746 4.8325Z" fill="url(#paint4_linear_4236_12188)"/>
<path d="M8.90096 -1.6626H7.32031L10.6954 7.52661H11.8096C11.8911 7.53099 11.9727 7.51884 12.0495 7.49089C12.1263 7.46294 12.1967 7.41975 12.2566 7.36391L11.5116 5.34644L8.90096 -1.6626Z" fill="#737170"/>
<path d="M5.74023 -1.6626L9.12177 7.53963H10.7024L7.32088 -1.6626H5.74023Z" fill="#2C2C2C"/>
<path d="M4.15234 -1.6626L7.39136 7.10359C7.43592 7.23164 7.51918 7.34249 7.62951 7.42067C7.73985 7.49885 7.87176 7.54044 8.00677 7.53962H9.13395L5.75242 -1.6626H4.15234Z" fill="#737170"/>
</g>
<defs>
<linearGradient id="paint0_linear_4236_12188" x1="5.00843" y1="7.57879" x2="14.9846" y2="7.57879" gradientUnits="userSpaceOnUse">
<stop stop-color="#737170"/>
<stop offset="1" stop-color="#8C8C8C"/>
</linearGradient>
<linearGradient id="paint1_linear_4236_12188" x1="13.999" y1="20.5432" x2="5.08971" y2="11.6749" gradientUnits="userSpaceOnUse">
<stop stop-color="#737170"/>
<stop offset="1" stop-color="#8C8C8C"/>
</linearGradient>
<linearGradient id="paint2_linear_4236_12188" x1="5.36238" y1="11.868" x2="16.1459" y2="22.602" gradientUnits="userSpaceOnUse">
<stop stop-color="#737170"/>
<stop offset="1" stop-color="#8C8C8C"/>
</linearGradient>
<linearGradient id="paint3_linear_4236_12188" x1="18.32" y1="24.8767" x2="1.68589" y2="8.31899" gradientUnits="userSpaceOnUse">
<stop stop-color="#737170"/>
<stop offset="1" stop-color="#8C8C8C"/>
</linearGradient>
<linearGradient id="paint4_linear_4236_12188" x1="11.9142" y1="2.71742" x2="10.3243" y2="3.48611" gradientUnits="userSpaceOnUse">
<stop stop-color="white"/>
<stop offset="1" stop-color="#121E3D"/>
</linearGradient>
<clipPath id="clip0_4236_12188">
<rect width="20" height="25" fill="white"/>
</clipPath>
</defs>
</svg>
