<svg width="18" height="25" viewBox="0 0 18 25" fill="none" xmlns="http://www.w3.org/2000/svg">
<g clip-path="url(#clip0_4236_12165)">
<path d="M5.37537 9.2274V7.43121C5.37537 6.99799 5.54667 6.5825 5.8516 6.27616C6.15654 5.96982 6.57011 5.79772 7.00135 5.79772H10.5124C10.7257 5.79771 10.9368 5.84001 11.1337 5.92218C11.3306 6.00435 11.5094 6.12478 11.6599 6.27655C11.8104 6.42832 11.9295 6.60845 12.0105 6.8066C12.0915 7.00474 12.1328 7.21701 12.132 7.43121V9.2274H13.745V7.43121C13.745 6.56821 13.4037 5.74055 12.7963 5.13031C12.1889 4.52007 11.365 4.17725 10.506 4.17725H6.99488C6.13584 4.17725 5.31198 4.52007 4.70454 5.13031C4.09711 5.74055 3.75586 6.56821 3.75586 7.43121V9.2274H5.37537Z" fill="#F8BF16"/>
<path d="M14.7183 21.8338C18.1621 18.6613 18.3939 13.2849 15.236 9.82515C12.0781 6.36542 6.72631 6.13256 3.28248 9.30504C-0.161347 12.4775 -0.393142 17.854 2.76476 21.3137C5.92266 24.7734 11.2744 25.0063 14.7183 21.8338Z" fill="#F8BF16"/>
<path d="M14.1846 21.5925C17.4544 18.5804 17.6745 13.4756 14.6761 10.1907C11.6778 6.90583 6.59653 6.68474 3.32674 9.69689C0.0569446 12.709 -0.16314 17.8138 2.83517 21.0987C5.83349 24.3836 10.9148 24.6047 14.1846 21.5925Z" fill="#F8BF16"/>
<path d="M13.3959 20.694C16.1822 18.1254 16.3683 13.7739 13.8115 10.9747C11.2547 8.17551 6.92326 7.98856 4.13692 10.5572C1.35058 13.1257 1.16448 17.4772 3.72128 20.2764C6.27807 23.0756 10.6095 23.2626 13.3959 20.694Z" fill="#F8BF16"/>
<g style="mix-blend-mode:overlay" opacity="0.45">
<path d="M2.35748 16.0871C2.3549 14.7526 2.73914 13.4462 3.46329 12.3274C4.18744 11.2086 5.22017 10.3258 6.4354 9.78685C7.65062 9.24786 8.99576 9.07599 10.3066 9.2922C11.6174 9.50841 12.8373 10.1034 13.8171 11.0044C13.1932 10.3206 12.4379 9.77079 11.5968 9.38807C10.7557 9.00534 9.84616 8.79765 8.92301 8.7775C7.99986 8.75735 7.08221 8.92515 6.22535 9.27081C5.36848 9.61647 4.59013 10.1328 3.93722 10.7887C3.2843 11.4447 2.77032 12.2266 2.42626 13.0874C2.08219 13.9483 1.91515 14.8701 1.93521 15.7976C1.95527 16.725 2.16201 17.6387 2.54297 18.4837C2.92393 19.3287 3.47124 20.0874 4.1519 20.7143C2.99951 19.4512 2.35938 17.8005 2.35748 16.0871Z" fill="#F7AD13"/>
</g>
<g style="mix-blend-mode:multiply" opacity="0.67">
<path d="M13.0965 10.3076C14.2009 11.6271 14.8568 13.2665 14.9686 14.9868C14.9686 16.8096 14.2492 18.5579 12.9681 19.8486C11.6869 21.1393 9.94864 21.867 8.13427 21.8722C6.42188 21.7599 4.78998 21.1009 3.47656 19.9914C4.08387 20.7309 4.83835 21.3348 5.69159 21.7641C6.54482 22.1935 7.47799 22.439 8.4312 22.4848C9.38441 22.5306 10.3366 22.3757 11.2268 22.0301C12.1169 21.6845 12.9253 21.1558 13.6001 20.4779C14.2749 19.8 14.8012 18.9878 15.1452 18.0936C15.4892 17.1993 15.6434 16.2427 15.5978 15.2851C15.5522 14.3275 15.3079 13.39 14.8805 12.5329C14.453 11.6757 13.852 10.9177 13.1159 10.3076H13.0965Z" fill="#F44B16" fill-opacity="0.2"/>
</g>
<g style="mix-blend-mode:multiply" opacity="0.67">
<g style="mix-blend-mode:multiply">
<g style="mix-blend-mode:multiply" opacity="0.67">
<path d="M9.33701 19.4181C8.78174 19.4181 8.28672 19.316 7.85193 19.1117C7.41976 18.9074 7.07665 18.6258 6.82258 18.267C6.56852 17.9081 6.43625 17.4969 6.42578 17.0333H8.07587C8.0942 17.345 8.22516 17.5978 8.46875 17.7916C8.71234 17.9854 9.00176 18.0823 9.33701 18.0823C9.60417 18.0823 9.8399 18.0234 10.0442 17.9055C10.2511 17.785 10.4122 17.6187 10.5274 17.4066C10.6453 17.1918 10.7042 16.9456 10.7042 16.668C10.7042 16.3851 10.644 16.1363 10.5235 15.9215C10.4056 15.7067 10.2419 15.5391 10.0324 15.4186C9.82288 15.2981 9.58322 15.2366 9.31344 15.2339C9.07771 15.2339 8.84853 15.2824 8.6259 15.3793C8.40589 15.4762 8.23433 15.6085 8.11123 15.7761L6.59864 15.505L6.97974 11.2619H11.8986V12.6527H8.38232L8.17409 14.6682H8.22124C8.36267 14.4691 8.57614 14.3041 8.86163 14.1732C9.14712 14.0422 9.46666 13.9767 9.82026 13.9767C10.3048 13.9767 10.737 14.0907 11.1168 14.3185C11.4965 14.5464 11.7964 14.8594 12.0165 15.2575C12.2365 15.653 12.3452 16.1088 12.3425 16.6247C12.3452 17.1669 12.2194 17.6488 11.9654 18.0705C11.7139 18.4896 11.3617 18.8196 10.9085 19.0606C10.458 19.2989 9.93419 19.4181 9.33701 19.4181Z" fill="#875A00"/>
</g>
</g>
</g>
<path d="M9.66359 -2.55176L6.61243 5.75888C6.57283 5.85869 6.55846 5.96679 6.57058 6.07354C6.58269 6.18029 6.62093 6.28238 6.68187 6.37067C6.74281 6.45896 6.82456 6.53072 6.91983 6.57954C7.0151 6.62837 7.12093 6.65273 7.22785 6.65046H7.87565L11.2572 -2.55176H9.66359Z" fill="#F8BF16"/>
<path d="M11.2526 -2.55176L7.87109 6.65046H9.45174L12.8397 -2.55176H11.2526Z" fill="#A16E08"/>
<path d="M12.8326 -2.5521L10.2414 4.47648L9.43164 6.6241H10.5588C10.7102 6.62439 10.8569 6.57144 10.9734 6.47442C11.0615 6.39845 11.1303 6.30253 11.1742 6.19457L14.4133 -2.57812L12.8326 -2.5521Z" fill="#A16E08"/>
<path style="mix-blend-mode:multiply" opacity="0.69" d="M12.0216 3.94303L11.1859 6.22081C11.142 6.32876 11.0732 6.42468 10.9851 6.50064C10.8686 6.59766 10.7219 6.65062 10.5705 6.65032H7.22785C7.12093 6.65258 7.0151 6.62822 6.91983 6.5794C6.82457 6.53058 6.74281 6.45882 6.68187 6.37053C6.62093 6.28223 6.58269 6.18015 6.57058 6.0734C6.55846 5.96665 6.57283 5.85855 6.61243 5.75874L9.65063 -2.48682L12.0216 3.94303Z" fill="url(#paint0_linear_4236_12165)"/>
<path d="M7.66267 -2.55176H6.08203L9.43118 6.62444H10.5519C10.7032 6.62473 10.8499 6.57178 10.9665 6.47476L10.2215 4.45079L7.66267 -2.55176Z" fill="#F8BF16"/>
<path d="M4.5 -2.55176L7.88154 6.65046H9.46218L6.08064 -2.55176H4.5Z" fill="#A16E08"/>
<path d="M2.91406 -2.55176L6.15308 6.22095C6.20041 6.35322 6.28909 6.46654 6.40586 6.54396C6.52263 6.62139 6.66122 6.65875 6.80088 6.65046H7.92158L4.54005 -2.55176H2.91406Z" fill="#A16E08"/>
</g>
<defs>
<linearGradient id="paint0_linear_4236_12165" x1="10.6677" y1="1.83445" x2="9.07779" y2="2.60314" gradientUnits="userSpaceOnUse">
<stop stop-color="white"/>
<stop offset="1" stop-color="#121E3D"/>
</linearGradient>
<clipPath id="clip0_4236_12165">
<rect width="18" height="25" fill="white"/>
</clipPath>
</defs>
</svg>
