<svg width="24" height="24" viewBox="0 0 24 24" fill="none" xmlns="http://www.w3.org/2000/svg">
<g clip-path="url(#clip0_4990_4453)">
<path fill-rule="evenodd" clip-rule="evenodd" d="M18.6004 8.08867H22.6004C22.8126 8.08867 23.016 8.17296 23.1661 8.32299C23.3161 8.47302 23.4004 8.6765 23.4004 8.88867V15.2887C23.4004 15.5008 23.3161 15.7043 23.1661 15.8544C23.016 16.0044 22.8126 16.0887 22.6004 16.0887H21.8004V22.4887C21.8004 22.7008 21.7161 22.9043 21.5661 23.0544C21.416 23.2044 21.2126 23.2887 21.0004 23.2887H3.40039C3.18822 23.2887 2.98473 23.2044 2.8347 23.0544C2.68468 22.9043 2.60039 22.7008 2.60039 22.4887V16.0887H1.80039C1.58822 16.0887 1.38473 16.0044 1.2347 15.8544C1.08467 15.7043 1.00039 15.5008 1.00039 15.2887V8.88867C1.00039 8.6765 1.08467 8.47302 1.2347 8.32299C1.38473 8.17296 1.58822 8.08867 1.80039 8.08867H5.80039V1.68867C5.80039 1.4765 5.88468 1.27302 6.0347 1.12299C6.18473 0.972958 6.38822 0.888672 6.60039 0.888672H17.8004C18.0126 0.888672 18.216 0.972958 18.3661 1.12299C18.5161 1.27302 18.6004 1.4765 18.6004 1.68867V8.08867ZM5.80039 9.68867V12.0887C5.80039 12.3008 5.88468 12.5043 6.0347 12.6544C6.18473 12.8044 6.38822 12.8887 6.60039 12.8887H17.8004C18.0126 12.8887 18.216 12.8044 18.3661 12.6544C18.5161 12.5043 18.6004 12.3008 18.6004 12.0887V9.68867H21.8004V14.4887H2.60039V9.68867H5.80039ZM14.7659 7.45417L13.1659 9.05417C13.085 9.13563 12.9876 9.19873 12.8802 9.23919C12.7728 9.27965 12.6579 9.29653 12.5434 9.28867C12.4292 9.28057 12.318 9.24802 12.2174 9.19325C12.1168 9.13847 12.0292 9.06274 11.9604 8.97117L9.56039 5.77117C9.49736 5.68713 9.45149 5.59149 9.42542 5.48972C9.39935 5.38795 9.39357 5.28204 9.40843 5.17804C9.42329 5.07403 9.45849 4.97398 9.51201 4.88358C9.56554 4.79318 9.63634 4.71421 9.72039 4.65117C9.89013 4.52387 10.1035 4.46921 10.3135 4.49921C10.5236 4.52922 10.7131 4.64143 10.8404 4.81117L12.6869 7.27367L13.6369 6.32367C13.7869 6.17376 13.9903 6.08954 14.2024 6.08954C14.4145 6.08954 14.6179 6.17376 14.7679 6.32367C14.9178 6.47369 15.002 6.67709 15.002 6.88917C15.002 7.10125 14.9178 7.30466 14.7679 7.45467L14.7659 7.45417Z" fill="currentColor"/>
</g>
<defs>
<clipPath id="clip0_4990_4453">
<rect width="22.4" height="22.4" fill="white" transform="matrix(-1 0 0 1 23.4004 0.888672)"/>
</clipPath>
</defs>
</svg>
