<svg width="24" height="24" viewBox="0 0 24 24" fill="none" xmlns="http://www.w3.org/2000/svg">
<path d="M3.49698 8.06501L4.78398 19H19.227L20.513 8.06501L16.503 10.738L12.005 4.44101L7.50698 10.738L3.49698 8.06501ZM2.80598 5.20001L7.00498 8.00001L11.191 2.13901C11.2835 2.00938 11.4056 1.90372 11.5472 1.83082C11.6888 1.75791 11.8457 1.71988 12.005 1.71988C12.1642 1.71988 12.3212 1.75791 12.4628 1.83082C12.6044 1.90372 12.7265 2.00938 12.819 2.13901L17.005 7.99901L21.205 5.20001C21.3639 5.09434 21.5497 5.03634 21.7404 5.03284C21.9312 5.02934 22.119 5.0805 22.2817 5.18027C22.4443 5.28005 22.575 5.42428 22.6584 5.59593C22.7417 5.76758 22.7742 5.9595 22.752 6.14901L21.11 20.116C21.0816 20.3594 20.9647 20.584 20.7817 20.7469C20.5986 20.9099 20.3621 21 20.117 21H3.89398C3.6489 21 3.41236 20.9099 3.22931 20.7469C3.04625 20.584 2.92941 20.3594 2.90098 20.116L1.25798 6.15001C1.2354 5.96026 1.26767 5.76801 1.35095 5.59602C1.43424 5.42404 1.56506 5.27951 1.72792 5.17956C1.89079 5.07961 2.07889 5.02842 2.26995 5.03204C2.461 5.03567 2.64702 5.09396 2.80598 5.20001ZM12.006 15C11.7433 15.0001 11.4833 14.9484 11.2406 14.848C10.9979 14.7475 10.7774 14.6003 10.5916 14.4146C10.4059 14.2289 10.2585 14.0085 10.1579 13.7658C10.0573 13.5232 10.0055 13.2632 10.0055 13.0005C10.0054 12.7379 10.0571 12.4778 10.1575 12.2351C10.258 11.9924 10.4052 11.7719 10.5909 11.5862C10.7766 11.4004 10.997 11.253 11.2397 11.1524C11.4823 11.0519 11.7423 11.0001 12.005 11C12.5354 11 13.0441 11.2107 13.4192 11.5858C13.7943 11.9609 14.005 12.4696 14.005 13C14.005 13.5304 13.7943 14.0392 13.4192 14.4142C13.0441 14.7893 12.5364 15 12.006 15Z" fill="black"/>
</svg>
