<svg width="32" height="32" viewBox="0 0 32 32" fill="none" xmlns="http://www.w3.org/2000/svg">
<rect width="32" height="32" rx="8" fill="white"/>
<path fill-rule="evenodd" clip-rule="evenodd" d="M28.9341 10.7159C28.8093 9.76842 28.4475 8.86774 27.8821 8.09725C27.1815 7.39144 26.2312 6.98962 25.2368 6.97858C21.5474 6.71191 16.0021 6.71191 16.0021 6.71191C16.0021 6.71191 10.4594 6.71191 6.76478 6.97858C5.77078 6.98997 4.82111 7.39176 4.12078 8.09725C3.55163 8.86626 3.18899 9.76827 3.06745 10.7172C2.90228 12.1364 2.81327 13.5633 2.80078 14.9919V16.9919C2.81327 18.4205 2.90228 19.8475 3.06745 21.2666C3.19278 22.2159 3.55278 23.1199 4.11278 23.8959C4.91811 24.6106 5.95278 25.0119 7.02878 25.0266C9.13945 25.2279 16.0034 25.2932 16.0034 25.2932C16.0034 25.2932 21.5514 25.2932 25.2408 25.0266C26.2359 25.0155 27.1867 24.6132 27.8874 23.9066C28.4501 23.1343 28.8108 22.2337 28.9368 21.2866C29.1019 19.8675 29.191 18.4405 29.2034 17.0119V14.9906C29.1876 13.562 29.0977 12.1352 28.9341 10.7159ZM13.3448 19.4546V11.9612L20.5448 15.7199L13.3448 19.4546Z" fill="#F44336"/>
</svg>
