<svg width="22" height="22" viewBox="0 0 22 22" fill="none" xmlns="http://www.w3.org/2000/svg">
<path d="M22 17.0986V20.5H6.84211V17.0986C6.84211 17.0986 6.8421 10.3912 14.4211 10.3912C22 10.3912 22 17.0986 22 17.0986ZM18.2105 5.17347C18.2105 4.44693 17.9883 3.7367 17.5719 3.1326C17.1555 2.5285 16.5637 2.05766 15.8712 1.77963C15.1788 1.50159 14.4168 1.42884 13.6818 1.57059C12.9467 1.71233 12.2715 2.06219 11.7415 2.57594C11.2115 3.08968 10.8506 3.74423 10.7044 4.45681C10.5582 5.1694 10.6332 5.90801 10.92 6.57925C11.2069 7.25048 11.6926 7.8242 12.3157 8.22785C12.9389 8.63149 13.6716 8.84694 14.4211 8.84694C15.4261 8.84694 16.39 8.45991 17.1006 7.77101C17.8113 7.0821 18.2105 6.14774 18.2105 5.17347ZM8.27193 7.62245H5.39912V4.85374H2.87281V7.62245H0V10.0714H2.87281V12.8401H5.39912V10.0714H8.27193V7.62245Z" fill="currentColor"/>
</svg>
