<svg width="21" height="24" viewBox="0 0 21 24" fill="none" xmlns="http://www.w3.org/2000/svg">
<path fill-rule="evenodd" clip-rule="evenodd" d="M19.9286 8.05224C18.6914 6.51055 16.9556 5.61865 15.317 5.61865C13.1493 5.61865 12.2334 6.64855 10.7295 6.64855C9.17938 6.64855 8.00069 5.62015 6.1257 5.62015C4.28401 5.62015 2.32593 6.73884 1.08453 8.65073C-0.662355 11.3393 -0.366557 16.3979 2.46603 20.7086C3.47912 22.2499 4.83211 23.9833 6.6012 23.9998C8.17349 24.0142 8.61839 22.9969 10.7517 22.9849C12.8853 22.9732 13.2888 24.0109 14.8607 23.9962C16.6298 23.9794 18.0572 22.06 19.0697 20.5184C19.7954 19.4141 20.0657 18.8561 20.6294 17.6078C16.5341 16.0604 15.8756 10.2737 19.9286 8.05224Z" fill="currentColor"/>
<path fill-rule="evenodd" clip-rule="evenodd" d="M13.6727 3.89638C14.4602 2.88598 15.0584 1.45859 14.8412 0C13.5548 0.0887994 12.05 0.906894 11.1716 1.97399C10.3742 2.94238 9.71574 4.37847 9.97194 5.77436C11.3762 5.81786 12.8294 4.97877 13.6727 3.89638Z" fill="currentColor"/>
</svg>
