<svg width="24" height="24" viewBox="0 0 24 24" fill="none" xmlns="http://www.w3.org/2000/svg">
<path d="M17.4802 6.52003C17.7178 6.23239 18.0583 6.04886 18.4293 6.00852C18.8002 5.96818 19.1722 6.0742 19.4662 6.30403C19.6105 6.41582 19.731 6.55541 19.8204 6.71455C19.9099 6.87369 19.9666 7.04915 19.9871 7.23057C20.0076 7.41198 19.9915 7.59567 19.9399 7.77077C19.8882 7.94587 19.8019 8.10884 19.6862 8.25003L12.1662 17.49C12.0403 17.6427 11.8841 17.7676 11.7075 17.8568C11.5309 17.946 11.3377 17.9976 11.1402 18.0083C10.9426 18.0191 10.745 17.9887 10.5597 17.9191C10.3745 17.8495 10.2058 17.7422 10.0642 17.604L4.42415 12.064L4.32615 11.96C3.87415 11.416 3.90615 10.614 4.42415 10.106C4.94215 9.59803 5.76015 9.56603 6.31415 10.01L6.42015 10.106L10.9602 14.546L17.5002 6.52603L17.4802 6.52003Z" fill="currentColor"/>
</svg>
