<svg width="22" height="22" viewBox="0 0 22 22" fill="none" xmlns="http://www.w3.org/2000/svg">
<rect x="0.5" y="0.5" width="21" height="21" rx="10.5" fill="#2C2C2C"/>
<rect x="0.5" y="0.5" width="21" height="21" rx="10.5" stroke="url(#paint0_linear_3976_34393)"/>
<path d="M18.9994 10.4016L10.9996 19.0002L3 10.4016L6.69606 6.84937H15.3036L18.9994 10.4016Z" fill="#45B2EF"/>
<path d="M18.9994 10.4016L10.9996 19.0002L3 10.4016L6.69606 6.84937H15.3036L18.9994 10.4016Z" fill="#45B2EF"/>
<path d="M7.24568 10.4016H3L6.69606 6.84937L7.24568 10.4016Z" fill="#45B2EF"/>
<path d="M10.9996 19.0002L3 10.4016H7.24568L10.9996 19.0002Z" fill="#3B9FE2"/>
<path d="M10.9991 19.0002L7.24512 10.4016H14.7532L10.9991 19.0002Z" fill="#45B2EF"/>
<path d="M14.7532 10.4016H7.24512L10.9991 6.84937L14.7532 10.4016Z" fill="#80D4FD"/>
<path d="M19.0006 10.4016H14.7549L15.3047 6.84937L19.0006 10.4016Z" fill="#45B2EF"/>
<path d="M18.9998 10.4016L11 19.0002L14.7541 10.4016H18.9998Z" fill="#3B9FE2"/>
<path d="M10.9998 6.84937L7.24592 10.4016L6.69629 6.84937H10.9998Z" fill="#4FC1F8"/>
<path d="M15.304 6.84937L14.7541 10.4016L11 6.84937H15.304Z" fill="#4FC1F8"/>
<path d="M10.9998 4.84601C10.8889 4.84601 10.7988 4.75843 10.7988 4.65052V3.19549C10.7988 3.08758 10.8889 3 10.9998 3C11.1107 3 11.2007 3.08758 11.2007 3.19549V4.65052C11.2007 4.75843 11.1107 4.84601 10.9998 4.84601Z" fill="#4FC1F8"/>
<path d="M8.77127 5.60577C8.70797 5.60577 8.64588 5.57684 8.60669 5.52269L7.74658 4.33235C7.68267 4.24399 7.70458 4.122 7.79541 4.06003C7.88625 3.99787 8.01164 4.01918 8.07535 4.10754L8.93546 5.29787C8.99936 5.38624 8.97746 5.50822 8.88663 5.57019C8.85166 5.59424 8.81127 5.60577 8.77127 5.60577Z" fill="#4FC1F8"/>
<path d="M13.2291 5.60577C13.1891 5.60577 13.1489 5.59424 13.1138 5.57019C13.0229 5.50803 13.001 5.38624 13.0649 5.29787L13.925 4.10754C13.989 4.01918 14.1142 3.99787 14.205 4.06003C14.2958 4.1222 14.3177 4.24399 14.2538 4.33235L13.3937 5.52269C13.3545 5.57684 13.2924 5.60577 13.2291 5.60577Z" fill="#4FC1F8"/>
<defs>
<linearGradient id="paint0_linear_3976_34393" x1="0" y1="12.1" x2="22" y2="12.1" gradientUnits="userSpaceOnUse">
<stop stop-color="#252323"/>
<stop offset="1" stop-color="#53524D"/>
</linearGradient>
</defs>
</svg>
