<svg width="42" height="42" viewBox="0 0 42 42" fill="none" xmlns="http://www.w3.org/2000/svg">
<rect x="0.5" y="0.5" width="41" height="41" rx="20.5" fill="#121212"/>
<rect x="0.5" y="0.5" width="41" height="41" rx="20.5" stroke="url(#paint0_linear_3643_4627)"/>
<path d="M32.9991 20.1022L20.9994 32.9999L9 20.1022L14.5441 14.7739H27.4554L32.9991 20.1022Z" fill="#45B2EF"/>
<path d="M32.9991 20.1022L20.9994 32.9999L9 20.1022L14.5441 14.7739H27.4554L32.9991 20.1022Z" fill="#45B2EF"/>
<path d="M15.3685 20.1022H9L14.5441 14.7739L15.3685 20.1022Z" fill="#45B2EF"/>
<path d="M20.9994 33L9 20.1023H15.3685L20.9994 33Z" fill="#3B9FE2"/>
<path d="M20.9981 33L15.3672 20.1023H26.6293L20.9981 33Z" fill="#45B2EF"/>
<path d="M26.6293 20.1022H15.3672L20.9981 14.7739L26.6293 20.1022Z" fill="#80D4FD"/>
<path d="M33.0004 20.1022H26.6318L27.4566 14.7739L33.0004 20.1022Z" fill="#45B2EF"/>
<path d="M32.9997 20.1023L21 33L26.6312 20.1023H32.9997Z" fill="#3B9FE2"/>
<path d="M20.9993 14.7739L15.3684 20.1022L14.5439 14.7739H20.9993Z" fill="#4FC1F8"/>
<path d="M27.4559 14.7739L26.6312 20.1022L21 14.7739H27.4559Z" fill="#4FC1F8"/>
<path d="M20.9997 11.769C20.8333 11.769 20.6982 11.6376 20.6982 11.4757V9.29323C20.6982 9.13137 20.8333 9 20.9997 9C21.1661 9 21.3011 9.13137 21.3011 9.29323V11.4757C21.3011 11.6376 21.1661 11.769 20.9997 11.769Z" fill="#4FC1F8"/>
<path d="M17.6564 12.9087C17.5615 12.9087 17.4683 12.8653 17.4095 12.7841L16.1194 10.9986C16.0235 10.8661 16.0564 10.6831 16.1926 10.5902C16.3289 10.4969 16.517 10.5289 16.6125 10.6614L17.9027 12.4469C17.9986 12.5794 17.9657 12.7624 17.8294 12.8554C17.777 12.8914 17.7164 12.9087 17.6564 12.9087Z" fill="#4FC1F8"/>
<path d="M24.3432 12.9087C24.2832 12.9087 24.2229 12.8914 24.1702 12.8554C24.0339 12.7621 24.0011 12.5794 24.0969 12.4469L25.3871 10.6614C25.4829 10.5289 25.6707 10.4969 25.807 10.5902C25.9432 10.6834 25.9761 10.8661 25.8802 10.9986L24.5901 12.7841C24.5313 12.8653 24.4381 12.9087 24.3432 12.9087Z" fill="#4FC1F8"/>
<defs>
<linearGradient id="paint0_linear_3643_4627" x1="0" y1="23.1" x2="42" y2="23.1" gradientUnits="userSpaceOnUse">
<stop stop-color="#252323"/>
<stop offset="1" stop-color="#53524D"/>
</linearGradient>
</defs>
</svg>
