<svg width="16" height="10" viewBox="0 0 16 10" fill="none" xmlns="http://www.w3.org/2000/svg">
<path d="M7.99996 7.53334C9.28691 7.53334 10.3302 6.48867 10.3302 5.2C10.3302 3.91134 9.28691 2.86667 7.99996 2.86667C6.71302 2.86667 5.66974 3.91134 5.66974 5.2C5.66974 6.48867 6.71302 7.53334 7.99996 7.53334Z" stroke="currentColor"/>
<path d="M14.9161 5.47067C15.028 5.30267 15.028 5.09733 14.9161 4.92933C14.2636 3.996 11.8589 1 8 1C4.14115 1 1.73635 3.996 1.08389 4.92933C0.972037 5.09733 0.972037 5.30267 1.08389 5.47067C1.73635 6.404 4.14115 9.4 8 9.4C11.8589 9.4 14.2636 6.404 14.9161 5.47067Z" stroke="currentColor" stroke-linecap="round"/>
</svg>
