<svg width="26" height="26" viewBox="0 0 26 26" fill="none" xmlns="http://www.w3.org/2000/svg">
<path d="M12.6633 10.7989C12.6126 10.8365 12.5508 10.8569 12.4872 10.8569C12.4236 10.8569 12.3617 10.8365 12.311 10.7989L4.54683 4.94857C4.12917 4.63429 4.366 4 4.90033 4H20.0997C20.6352 4 20.8708 4.63429 20.4532 4.94857L12.6633 10.7989ZM23 7.98971V18.8777C23 19.4949 22.4482 20 21.775 20H3.225C2.55183 20 2 19.4949 2 18.8777V7.98857C2 7.51657 2.60083 7.25943 2.99167 7.55086L12.304 14.3749C12.3619 14.4132 12.4301 14.4337 12.5 14.4337C12.5699 14.4337 12.6381 14.4132 12.696 14.3749L22.0072 7.55086C22.3992 7.25943 23 7.51657 23 7.98857" fill="currentColor"/>
</svg>
