<svg width="25" height="24" viewBox="0 0 25 24" fill="none" xmlns="http://www.w3.org/2000/svg">
<g clip-path="url(#clip0_2324_2144)">
<path d="M24.5 18.2406V22H7.96411V18.2406C7.96411 18.2406 7.96411 10.8271 16.2321 10.8271C24.5 10.8271 24.5 18.2406 24.5 18.2406ZM20.366 5.06015C20.366 4.25713 20.1236 3.47214 19.6693 2.80445C19.2151 2.13676 18.5694 1.61637 17.8141 1.30906C17.0587 1.00176 16.2275 0.921355 15.4256 1.07802C14.6236 1.23468 13.887 1.62137 13.3089 2.18919C12.7308 2.75701 12.337 3.48046 12.1775 4.26806C12.018 5.05565 12.0999 5.87201 12.4128 6.6139C12.7257 7.3558 13.2555 7.98991 13.9353 8.43604C14.6152 8.88218 15.4144 9.1203 16.2321 9.1203C17.3285 9.1203 18.3799 8.69254 19.1552 7.93111C19.9305 7.16969 20.366 6.13697 20.366 5.06015ZM9.52392 7.76692H6.38995V4.70677H3.63397V7.76692H0.5V10.4737H3.63397V13.5338H6.38995V10.4737H9.52392V7.76692Z" fill="#F8BF16"/>
</g>
<defs>
<clipPath id="clip0_2324_2144">
<rect width="24" height="24" fill="white" transform="translate(0.5)"/>
</clipPath>
</defs>
</svg>
