<svg width="20" height="20" viewBox="0 0 20 20" fill="none" xmlns="http://www.w3.org/2000/svg">
<path d="M5.46583 4.15333C5.47667 4.68417 5.84667 5.20833 6.625 5.20833H9.13083C9.02814 4.96143 8.9058 4.72317 8.765 4.49583C8.30333 3.74833 7.62667 3.125 6.625 3.125C6.1625 3.125 5.88333 3.2775 5.72083 3.45C5.54649 3.64169 5.45485 3.89445 5.46583 4.15333ZM10.8692 5.20833H13.375C13.8258 5.20833 14.11 5.0575 14.2833 4.87833C14.4625 4.6925 14.56 4.43583 14.56 4.16667C14.56 3.8975 14.4625 3.64167 14.2825 3.455C14.11 3.27583 13.8258 3.125 13.375 3.125C12.3733 3.125 11.6967 3.74833 11.235 4.49583C11.0833 4.74 10.9633 4.9875 10.8692 5.20833ZM17.2908 10.625V15.8333C17.2908 16.441 17.0495 17.0237 16.6199 17.4535C16.1903 17.8832 15.6076 18.1248 15 18.125H5C4.39221 18.125 3.80932 17.8836 3.37955 17.4538C2.94978 17.024 2.70833 16.4411 2.70833 15.8333V10.625H2.5C2.33424 10.625 2.17527 10.5592 2.05806 10.4419C1.94085 10.3247 1.875 10.1658 1.875 10V7.5C1.875 6.89221 2.11644 6.30932 2.54621 5.87955C2.97598 5.44978 3.55888 5.20833 4.16667 5.20833H4.475C4.31221 4.88947 4.22361 4.53793 4.21583 4.18C4.19803 3.59268 4.41241 3.022 4.8125 2.59167C5.24 2.13917 5.8625 1.875 6.625 1.875C8.24833 1.875 9.25917 2.91833 9.82833 3.8375C9.88944 3.9375 9.94667 4.03639 10 4.13417C10.0533 4.03639 10.1106 3.9375 10.1717 3.8375C10.7408 2.91833 11.7517 1.875 13.375 1.875C14.1308 1.875 14.7508 2.14083 15.1817 2.58667C15.6058 3.02583 15.81 3.6025 15.81 4.16667C15.81 4.52167 15.7292 4.88083 15.5642 5.20833H15.8333C16.4411 5.20833 17.024 5.44978 17.4538 5.87955C17.8836 6.30932 18.125 6.89221 18.125 7.5V10C18.125 10.1658 18.0592 10.3247 17.9419 10.4419C17.8247 10.5592 17.6658 10.625 17.5 10.625H17.2908ZM16.0408 10.625H10.6242V16.875H15C15.575 16.875 16.0417 16.4083 16.0417 15.8333L16.0408 10.625ZM9.37417 16.875V10.625H3.9575V15.8333C3.9575 16.4083 4.42417 16.875 4.99917 16.875H9.37417Z" fill="white"/>
<path d="M3 7C3 6.44772 3.44772 6 4 6H16C16.5523 6 17 6.44772 17 7V9C17 9.27614 16.7761 9.5 16.5 9.5H3.5C3.22386 9.5 3 9.27614 3 9V7Z" fill="#F8BF16"/>
</svg>
