<svg width="42" height="42" viewBox="0 0 42 42" fill="none" xmlns="http://www.w3.org/2000/svg">
<rect x="0.5" y="0.5" width="41" height="41" rx="20.5" fill="#121212"/>
<rect x="0.5" y="0.5" width="41" height="41" rx="20.5" stroke="url(#paint0_linear_3643_2923)"/>
<path d="M11.0236 23.868C11.0236 21.71 15.4865 19.9592 20.9966 19.9592C26.5066 19.9592 30.9696 21.71 30.9696 23.868V25.9673C30.9696 28.1274 26.5044 29.8782 20.9966 29.8782C15.4888 29.8782 11.0236 28.1274 11.0236 25.9673V23.868Z" fill="url(#paint1_linear_3643_2923)"/>
<path d="M21.0011 30C26.6553 30 31.0862 28.2261 31.0862 25.9589V23.8596C31.0862 21.5945 26.6553 19.8185 21.0011 19.8185C15.347 19.8185 10.9138 21.5945 10.9138 23.8596V25.9589C10.9093 28.2261 15.3402 30 21.0011 30ZM21.0011 20.0893C26.4358 20.0893 30.8598 21.7834 30.8598 23.868V25.9673C30.8598 28.0519 26.4358 29.746 21.0011 29.746C15.5665 29.746 11.1402 28.0498 11.1402 25.9673V23.868C11.1356 21.7834 15.5597 20.0893 21.0011 20.0893Z" fill="#AB6004"/>
<path d="M20.9966 27.7811C26.5045 27.7811 30.9696 26.0301 30.9696 23.8701C30.9696 21.7102 26.5045 19.9592 20.9966 19.9592C15.4886 19.9592 11.0236 21.7102 11.0236 23.8701C11.0236 26.0301 15.4886 27.7811 20.9966 27.7811Z" fill="url(#paint2_linear_3643_2923)"/>
<path d="M21.0011 27.9175C26.6553 27.9175 31.0862 26.1436 31.0862 23.8764C31.0862 21.6092 26.6507 19.8269 21.0011 19.8269C15.3516 19.8269 10.9138 21.6029 10.9138 23.868C10.9138 26.1331 15.3402 27.9175 21.0011 27.9175ZM21.0011 20.0977C26.4358 20.0977 30.8598 21.7918 30.8598 23.8764C30.8598 25.961 26.4358 27.6551 21.0011 27.6551C15.5665 27.6551 11.1402 25.9589 11.1402 23.8764C11.1402 21.7939 15.5597 20.0893 21.0011 20.0893V20.0977Z" fill="#FFED8B"/>
<path d="M11.0716 23.486C11.5609 21.5063 15.818 19.9592 20.9966 19.9592C26.1751 19.9592 30.43 21.5063 30.9216 23.486H11.0716Z" fill="url(#paint3_linear_3643_2923)"/>
<path d="M21.0011 20.4798C25.6493 20.4798 29.4171 21.9787 29.4171 23.826C29.4171 24.523 28.8799 25.1717 27.9585 25.7154C28.6444 25.2514 29.0376 24.714 29.0376 24.1388C29.0376 22.3985 25.4389 20.9899 21.0011 20.9899C16.5634 20.9899 12.9624 22.4027 12.9624 24.1388C12.9624 24.714 13.3579 25.2514 14.0438 25.7154C13.1293 25.1801 12.5829 24.5314 12.5829 23.826C12.5783 21.9787 16.3462 20.4798 21.0011 20.4798Z" fill="#CA7A11"/>
<path d="M29.3554 23.868C29.3527 23.9483 29.3435 24.0283 29.328 24.1073C29.2841 24.3208 29.1931 24.5237 29.0605 24.7035C28.7427 25.1633 28.1048 25.6062 27.2931 25.9631C26.3714 26.3443 25.4001 26.6152 24.4032 26.7692C22.1486 27.1331 19.8422 27.1331 17.5876 26.7692C16.5911 26.6156 15.6205 26.3439 14.7 25.961C13.8861 25.6104 13.2482 25.1654 12.9304 24.7014C12.7987 24.5211 12.7078 24.3184 12.6629 24.1052C12.6507 24.047 12.643 23.9881 12.64 23.9289C12.6399 23.9888 12.646 24.0485 12.6583 24.1073C12.6953 24.3264 12.78 24.5363 12.9075 24.7245C13.3473 25.3117 13.9538 25.777 14.6611 26.0702C15.5809 26.4838 16.5578 26.7804 17.5648 26.9519C19.8301 27.3541 22.1584 27.3541 24.4238 26.9519C25.4305 26.7794 26.4072 26.4829 27.3274 26.0702C28.0355 25.7771 28.6422 25.3108 29.0811 24.7224C29.2088 24.5351 29.2936 24.3258 29.3303 24.1073C29.3425 24.0485 29.3486 23.9888 29.3486 23.9289C29.3554 23.889 29.3554 23.868 29.3554 23.868Z" fill="#FFC747"/>
<path d="M20.5736 27.674C20.7119 27.636 20.8547 27.6135 20.9989 27.6068C21.3487 27.59 21.3578 28.1715 20.9989 28.1526C20.8373 28.1448 20.6775 28.118 20.5233 28.0729C20.3427 28.0162 20.4204 27.7181 20.5736 27.674Z" fill="white"/>
<path d="M20.8022 19.7136C20.8252 19.6853 20.8548 19.6621 20.8888 19.6457C20.9229 19.6294 20.9605 19.6203 20.9989 19.6191C21.3807 19.5897 21.3898 20.2489 20.9989 20.2153C20.958 20.2166 20.9174 20.2095 20.88 20.1943C20.88 20.1943 20.7039 20.0746 20.7999 20.1229C20.7642 20.0997 20.7351 20.0689 20.7151 20.0332C20.6951 19.9975 20.6848 19.9579 20.685 19.9177C20.6852 19.8775 20.696 19.838 20.7164 19.8025C20.7368 19.7669 20.7663 19.7364 20.8022 19.7136Z" fill="white"/>
<path d="M10.8201 21.4098C10.8201 19.2496 15.3768 17.4988 20.9966 17.4988C26.6164 17.4988 31.1708 19.2496 31.1708 21.4098V23.509C31.1708 25.6692 26.6164 27.42 20.9966 27.42C15.3768 27.42 10.8201 25.6692 10.8201 23.509V21.4098Z" fill="url(#paint4_linear_3643_2923)"/>
<path d="M21.0011 27.5313C26.7719 27.5313 31.2897 25.7553 31.2897 23.4902V21.4098C31.2897 19.1426 26.7696 17.3687 21.0011 17.3687C15.2327 17.3687 10.7126 19.1426 10.7126 21.4098V23.509C10.7126 25.7553 15.2236 27.5313 21.0011 27.5313ZM21.0011 17.6185C26.5478 17.6185 31.061 19.3147 31.061 21.3972V23.4964C31.061 25.581 26.5501 27.2751 21.0011 27.2751C15.4522 27.2751 10.9413 25.581 10.9413 23.4964V21.4098C10.9413 19.3105 15.4476 17.6185 21.0011 17.6185Z" fill="#AB6004"/>
<path d="M20.9966 25.3102C26.6169 25.3102 31.173 23.5592 31.173 21.3993C31.173 19.2393 26.6169 17.4883 20.9966 17.4883C15.3763 17.4883 10.8201 19.2393 10.8201 21.3993C10.8201 23.5592 15.3763 25.3102 20.9966 25.3102Z" fill="url(#paint5_linear_3643_2923)"/>
<path d="M21.0011 25.4404C26.7719 25.4404 31.2897 23.6644 31.2897 21.3993C31.2897 19.1342 26.7696 17.3582 21.0011 17.3582C15.2327 17.3582 10.7126 19.1321 10.7126 21.3993C10.7126 23.6665 15.2236 25.4404 21.0011 25.4404ZM21.0011 17.6185C26.5478 17.6185 31.061 19.3147 31.061 21.3972C31.061 23.4797 26.5501 25.1759 21.0011 25.1759C15.4522 25.1759 10.9413 23.4797 10.9413 21.3972C10.9413 19.3147 15.4476 17.6185 21.0011 17.6185Z" fill="#FFED8B"/>
<path d="M10.8681 21.0172C11.3688 19.0376 15.7128 17.4883 20.9966 17.4883C26.2803 17.4883 30.622 19.0376 31.1227 21.0172H10.8681Z" fill="url(#paint6_linear_3643_2923)"/>
<path d="M21.0011 18.011C25.7453 18.011 29.5909 19.5078 29.5909 21.3552C29.5909 22.0542 29.0422 22.7008 28.1025 23.2445C28.8021 22.7806 29.2045 22.2411 29.2045 21.668C29.2045 19.9256 25.5327 18.5191 21.0034 18.5191C16.4742 18.5191 12.8001 19.9298 12.8001 21.668C12.8001 22.2411 13.2047 22.7806 13.9044 23.2445C12.9647 22.7092 12.4137 22.0605 12.4137 21.3552C12.4068 19.5078 16.2524 18.011 21.0011 18.011Z" fill="#CA7A11"/>
<path d="M29.5269 21.4098C29.5269 21.4098 29.5269 21.4958 29.4972 21.647C29.4517 21.8607 29.3591 22.0636 29.2251 22.2432C28.9004 22.7029 28.2511 23.148 27.4189 23.5027C26.478 23.8863 25.4876 24.1579 24.4718 24.311C22.1709 24.6721 19.82 24.6721 17.5191 24.311C16.5032 24.1579 15.5128 23.8863 14.572 23.5027C13.742 23.1522 13.0904 22.7071 12.7658 22.2432C12.6317 22.0636 12.5391 21.8607 12.4937 21.647C12.4815 21.5888 12.4738 21.5299 12.4708 21.4707C12.4705 21.5305 12.4767 21.5903 12.4891 21.6491C12.5263 21.8687 12.6127 22.0789 12.7429 22.2663C13.0584 22.7449 13.6986 23.2403 14.5331 23.614C15.4767 24.0281 16.4762 24.3246 17.5053 24.4957C19.819 24.8988 22.1947 24.8988 24.5084 24.4957C25.5375 24.3246 26.5371 24.0281 27.4806 23.614C28.3151 23.2403 28.9553 22.7449 29.2708 22.2663C29.401 22.0789 29.4874 21.8687 29.5246 21.6491C29.537 21.5903 29.5432 21.5305 29.5429 21.4707L29.5269 21.4098Z" fill="#FFC747"/>
<path d="M20.5645 25.2053C20.7057 25.1664 20.8516 25.1439 20.9989 25.1381C21.3555 25.1213 21.3647 25.7007 20.9989 25.6839C20.8344 25.6749 20.6718 25.6481 20.5142 25.6041C20.329 25.5474 20.409 25.2493 20.5645 25.2053Z" fill="white"/>
<path d="M20.7977 17.2448C20.8215 17.2164 20.852 17.1932 20.8868 17.1769C20.9215 17.1606 20.9598 17.1515 20.9989 17.1503C21.3898 17.121 21.3967 17.7801 20.9989 17.7465C20.9578 17.7472 20.9172 17.7393 20.88 17.7234C20.88 17.7234 20.6993 17.6059 20.7954 17.6542C20.7592 17.6313 20.7296 17.6006 20.7093 17.5648C20.689 17.5291 20.6785 17.4893 20.6787 17.4489C20.6789 17.4086 20.6899 17.3689 20.7106 17.3333C20.7313 17.2978 20.7612 17.2674 20.7977 17.2448Z" fill="white"/>
<path d="M31.2736 18.9305C31.2736 16.7704 26.6713 15.0196 20.9851 15.0196C15.299 15.0196 10.6966 16.7704 10.6966 18.9305V21.0298C10.6966 23.1879 15.299 24.9386 20.9851 24.9386C26.6713 24.9386 31.2736 23.1879 31.2736 21.0298V18.9305Z" fill="url(#paint7_linear_3643_2923)"/>
<path d="M21.0011 25.0625C15.171 25.0625 10.6052 23.2865 10.6052 21.0214V18.9221C10.6052 16.6549 15.1778 14.881 21.0011 14.881C26.8244 14.881 31.3948 16.6549 31.3948 18.9221V21.0214C31.3902 23.2865 26.8244 25.0625 21.0011 25.0625ZM21.0011 15.1497C15.3973 15.1497 10.8384 16.8459 10.8384 18.9284V21.0277C10.8384 23.1102 15.3973 24.8064 21.0011 24.8064C26.6049 24.8064 31.1616 23.1102 31.1616 21.0277V18.9284C31.157 16.8459 26.5981 15.1497 21.0011 15.1497Z" fill="#AB6004"/>
<path d="M20.9966 22.8415C26.6737 22.8415 31.2759 21.0905 31.2759 18.9305C31.2759 16.7706 26.6737 15.0196 20.9966 15.0196C15.3194 15.0196 10.7172 16.7706 10.7172 18.9305C10.7172 21.0905 15.3194 22.8415 20.9966 22.8415Z" fill="url(#paint8_linear_3643_2923)"/>
<path d="M21.0011 22.9716C15.171 22.9716 10.6052 21.1956 10.6052 18.9305C10.6052 16.6654 15.1778 14.8894 21.0011 14.8894C26.8244 14.8894 31.3948 16.6633 31.3948 18.9305C31.3948 21.1977 26.8244 22.9716 21.0011 22.9716ZM21.0011 15.1497C15.3973 15.1497 10.8384 16.8459 10.8384 18.9284C10.8384 21.0109 15.3973 22.7071 21.0011 22.7071C26.6049 22.7071 31.1616 21.013 31.1616 18.9284C31.1616 16.8438 26.5981 15.1497 21.0011 15.1497Z" fill="#FFED8B"/>
<path d="M31.2233 18.5464C30.7181 16.5667 26.3329 15.0196 20.9966 15.0196C15.6603 15.0196 11.2728 16.5667 10.7675 18.5464H31.2233Z" fill="url(#paint9_linear_3643_2923)"/>
<path d="M21.0011 15.5423C16.1998 15.5423 12.3245 17.0391 12.3245 18.8864C12.3245 19.5834 12.8801 20.2321 13.8289 20.7758C13.1224 20.3119 12.7155 19.7744 12.7155 19.1992C12.7155 17.4589 16.4239 16.0503 21.0011 16.0503C25.5784 16.0503 29.2845 17.461 29.2845 19.1992C29.2845 19.7744 28.8776 20.3139 28.1711 20.7779C29.1199 20.2405 29.6755 19.5939 29.6755 18.8885C29.6709 17.0391 25.7864 15.5423 21.0011 15.5423Z" fill="#CA7A11"/>
<path d="M12.3794 18.9305C12.3841 19.0101 12.394 19.0893 12.4091 19.1677C12.4535 19.3821 12.547 19.5853 12.6835 19.7639C13.0104 20.2237 13.6689 20.6687 14.5125 21.0235C15.4627 21.4057 16.4612 21.6772 17.4848 21.8317C18.6456 22.019 19.8226 22.1082 21.0011 22.0983C22.1766 22.1058 23.3505 22.0159 24.5084 21.8296C25.5317 21.674 26.5301 21.4026 27.4806 21.0214C28.3174 20.6708 28.9759 20.2258 29.3097 19.7618C29.4461 19.5832 29.5397 19.38 29.584 19.1656C29.5979 19.1076 29.6063 19.0486 29.6092 18.9893C29.6093 19.0492 29.6032 19.1089 29.5909 19.1677C29.5534 19.3876 29.4662 19.5979 29.3348 19.7849C29.0148 20.2636 28.3677 20.759 27.5263 21.1327C26.5756 21.5465 25.5692 21.8423 24.5335 22.0123C22.1952 22.4153 19.7956 22.4153 17.4573 22.0123C16.4222 21.8419 15.4164 21.5454 14.4668 21.1306C13.6231 20.7569 12.9761 20.2636 12.656 19.7849C12.5256 19.5974 12.4384 19.3874 12.3999 19.1677C12.3889 19.1088 12.3827 19.0491 12.3817 18.9893C12.3794 18.9515 12.3794 18.9305 12.3794 18.9305Z" fill="#FFC747"/>
<path d="M21.431 22.7365C21.2914 22.6974 21.1469 22.6748 21.0011 22.6693C20.6399 22.6504 20.6308 23.2319 20.9897 23.213C21.1559 23.2063 21.3204 23.1794 21.479 23.1333C21.6687 23.0892 21.5887 22.7806 21.431 22.7365Z" fill="white"/>
<path d="M21.1955 14.7761C21.1712 14.7474 21.1405 14.7238 21.1053 14.7072C21.0702 14.6905 21.0315 14.681 20.992 14.6795C20.5987 14.6522 20.5896 15.3093 20.9806 15.2778C21.0222 15.2774 21.0634 15.2696 21.1017 15.2547C21.1017 15.2547 21.2846 15.1371 21.1863 15.1854C21.2236 15.1637 21.2545 15.1339 21.2762 15.0986C21.2979 15.0632 21.3097 15.0235 21.3106 14.983C21.3115 14.9425 21.3015 14.9024 21.2814 14.8662C21.2613 14.8301 21.2318 14.7992 21.1955 14.7761Z" fill="white"/>
<path d="M10.6143 16.2498C10.6143 14.0917 15.2624 12.3409 20.9966 12.3409C26.7307 12.3409 31.3788 14.0917 31.3788 16.2498V18.349C31.3788 20.5092 26.7284 22.26 20.9966 22.26C15.2647 22.26 10.6143 20.5092 10.6143 18.349V16.2498Z" fill="url(#paint10_linear_3643_2923)"/>
<path d="M21.0011 22.3817C26.8885 22.3817 31.5 20.6078 31.5 18.3406V16.2414C31.5 13.9762 26.8885 12.2003 21.0011 12.2003C15.1138 12.2003 10.5 13.9762 10.5 16.2414V18.3406C10.4954 20.6078 15.107 22.3817 21.0011 22.3817ZM21.0011 12.4711C26.6598 12.4711 31.2645 14.1673 31.2645 16.2498V18.349C31.2645 20.4336 26.6598 22.1277 21.0011 22.1277C15.3425 22.1277 10.7355 20.4315 10.7355 18.349V16.2498C10.7309 14.1673 15.3356 12.4711 21.0011 12.4711Z" fill="#AB6004"/>
<path d="M20.9966 20.1628C26.7305 20.1628 31.3788 18.4118 31.3788 16.2519C31.3788 14.0919 26.7305 12.3409 20.9966 12.3409C15.2626 12.3409 10.6143 14.0919 10.6143 16.2519C10.6143 18.4118 15.2626 20.1628 20.9966 20.1628Z" fill="url(#paint11_linear_3643_2923)"/>
<path d="M21.0011 20.293C26.8885 20.293 31.5 18.517 31.5 16.2498C31.5 13.9825 26.8839 12.2087 21.0011 12.2087C15.1184 12.2087 10.5 13.9846 10.5 16.2498C10.5 18.5149 15.107 20.293 21.0011 20.293ZM21.0011 12.4711C26.6598 12.4711 31.2645 14.1673 31.2645 16.2498C31.2645 18.3322 26.6598 20.0285 21.0011 20.0285C15.3425 20.0285 10.7355 18.3322 10.7355 16.2498C10.7355 14.1673 15.3356 12.4711 21.0011 12.4711Z" fill="#FFED8B"/>
<path d="M21.0011 12.8636C25.8413 12.8636 29.7647 14.3604 29.7647 16.2078C29.7647 16.9047 29.2045 17.5534 28.2465 18.0971C28.9599 17.6332 29.3714 17.0958 29.3714 16.5206C29.3714 14.7803 25.6241 13.3717 21.0034 13.3717C16.3827 13.3717 12.6354 14.7824 12.6354 16.5206C12.6354 17.0958 13.0447 17.6353 13.7603 18.0992C12.8001 17.5618 12.2399 16.9131 12.2399 16.2099C12.233 14.3604 16.1564 12.8636 21.0011 12.8636Z" fill="#CA7A11"/>
<path d="M29.6892 16.2498C29.6785 16.5511 29.572 16.843 29.3828 17.0895C29.0513 17.5492 28.3883 17.9922 27.5538 18.349C26.5908 18.7309 25.5803 19.0024 24.545 19.1572C22.1987 19.5176 19.8036 19.5176 17.4573 19.1572C16.4227 19.0027 15.4128 18.7312 14.4508 18.349C13.6026 17.9964 12.9395 17.5534 12.608 17.0895C12.4714 16.9107 12.3772 16.7076 12.3314 16.4933C12.3175 16.4353 12.3091 16.3763 12.3062 16.3169C12.3073 16.3768 12.3134 16.4364 12.3245 16.4954C12.3633 16.7156 12.4521 16.9259 12.5851 17.1126C12.9075 17.5891 13.5591 18.0845 14.4142 18.4582C15.375 18.8732 16.3913 19.1697 17.4367 19.3399C19.7981 19.743 22.2202 19.743 24.5815 19.3399C25.627 19.1697 26.6433 18.8732 27.6041 18.4582C28.4569 18.0845 29.1085 17.5891 29.4331 17.1126C29.565 16.9255 29.653 16.7153 29.6915 16.4954C29.7038 16.4366 29.7099 16.3768 29.7098 16.3169C29.6892 16.2707 29.6892 16.2498 29.6892 16.2498Z" fill="#FFC747"/>
<path d="M20.5553 20.0557C20.7005 20.0174 20.8502 19.9956 21.0011 19.9907C21.3624 19.9718 21.3715 20.5533 21.0011 20.5344C20.8336 20.5266 20.6677 20.4998 20.5073 20.4546C20.3152 20.3979 20.3975 20.1019 20.5553 20.0557Z" fill="white"/>
<path d="M20.7931 12.0953C20.8184 12.0673 20.8497 12.0445 20.8852 12.0282C20.9206 12.012 20.9593 12.0026 20.9989 12.0008C21.3967 11.9735 21.4058 12.6306 20.9989 12.597C20.9573 12.5984 20.9159 12.5912 20.8777 12.576C20.8777 12.576 20.6925 12.4564 20.7931 12.5068C20.7558 12.4844 20.7252 12.4539 20.704 12.418C20.6828 12.3821 20.6717 12.3419 20.6717 12.301C20.6717 12.2602 20.6828 12.22 20.704 12.184C20.7252 12.1481 20.7558 12.1176 20.7931 12.0953Z" fill="white"/>
<defs>
<linearGradient id="paint0_linear_3643_2923" x1="0" y1="23.1" x2="42" y2="23.1" gradientUnits="userSpaceOnUse">
<stop stop-color="#252323"/>
<stop offset="1" stop-color="#53524D"/>
</linearGradient>
<linearGradient id="paint1_linear_3643_2923" x1="31.2351" y1="20.9905" x2="10.2244" y2="20.9905" gradientUnits="userSpaceOnUse">
<stop stop-color="#CD7D0A"/>
<stop offset="0.26" stop-color="#AF5203"/>
<stop offset="0.5" stop-color="#974B00"/>
<stop offset="0.74" stop-color="#BC6D07"/>
<stop offset="1" stop-color="#D0800A"/>
</linearGradient>
<linearGradient id="paint2_linear_3643_2923" x1="21.3111" y1="12.9227" x2="16.6853" y2="23.4961" gradientUnits="userSpaceOnUse">
<stop stop-color="#FFDD40"/>
<stop offset="1" stop-color="#E29A0A"/>
</linearGradient>
<linearGradient id="paint3_linear_3643_2923" x1="22.741" y1="-9.34286" x2="-4.95805" y2="9.77194" gradientUnits="userSpaceOnUse">
<stop offset="0.2" stop-color="#FFFF9F"/>
<stop offset="1" stop-color="#FFFA6D"/>
</linearGradient>
<linearGradient id="paint4_linear_3643_2923" x1="31.5693" y1="20.9733" x2="10.4902" y2="20.9733" gradientUnits="userSpaceOnUse">
<stop stop-color="#CD7D0A"/>
<stop offset="0.26" stop-color="#AF5203"/>
<stop offset="0.5" stop-color="#974B00"/>
<stop offset="0.74" stop-color="#BC6D07"/>
<stop offset="1" stop-color="#D0800A"/>
</linearGradient>
<linearGradient id="paint5_linear_3643_2923" x1="21.6098" y1="12.9227" x2="17.002" y2="23.5132" gradientUnits="userSpaceOnUse">
<stop stop-color="#FFDD40"/>
<stop offset="1" stop-color="#E29A0A"/>
</linearGradient>
<linearGradient id="paint6_linear_3643_2923" x1="23.0491" y1="-9.31945" x2="-4.66783" y2="9.86973" gradientUnits="userSpaceOnUse">
<stop offset="0.2" stop-color="#FFFF9F"/>
<stop offset="1" stop-color="#FFFA6D"/>
</linearGradient>
<linearGradient id="paint7_linear_3643_2923" x1="10.5076" y1="20.9943" x2="31.5993" y2="20.9943" gradientUnits="userSpaceOnUse">
<stop stop-color="#CD7D0A"/>
<stop offset="0.26" stop-color="#AF5203"/>
<stop offset="0.5" stop-color="#974B00"/>
<stop offset="0.74" stop-color="#BC6D07"/>
<stop offset="1" stop-color="#D0800A"/>
</linearGradient>
<linearGradient id="paint8_linear_3643_2923" x1="20.4587" y1="12.9227" x2="25.0693" y2="23.5124" gradientUnits="userSpaceOnUse">
<stop stop-color="#FFDD40"/>
<stop offset="1" stop-color="#E29A0A"/>
</linearGradient>
<linearGradient id="paint9_linear_3643_2923" x1="19.0216" y1="-9.34286" x2="46.7763" y2="9.91057" gradientUnits="userSpaceOnUse">
<stop offset="0.2" stop-color="#FFFF9F"/>
<stop offset="1" stop-color="#FFFA6D"/>
</linearGradient>
<linearGradient id="paint10_linear_3643_2923" x1="31.8538" y1="20.9905" x2="10.7123" y2="20.9905" gradientUnits="userSpaceOnUse">
<stop stop-color="#CD7D0A"/>
<stop offset="0.26" stop-color="#AF5203"/>
<stop offset="0.5" stop-color="#974B00"/>
<stop offset="0.74" stop-color="#BC6D07"/>
<stop offset="1" stop-color="#D0800A"/>
</linearGradient>
<linearGradient id="paint11_linear_3643_2923" x1="21.865" y1="12.9227" x2="17.2665" y2="23.5232" gradientUnits="userSpaceOnUse">
<stop stop-color="#FFDD40"/>
<stop offset="1" stop-color="#E29A0A"/>
</linearGradient>
</defs>
</svg>
