<svg width="25" height="24" viewBox="0 0 25 24" fill="none" xmlns="http://www.w3.org/2000/svg">
<path d="M16.6665 1.11412C16.6665 1.11412 14.3981 6.41685 12.7465 6.41685C10.4204 6.41685 8.33203 1.72992 8.33203 1.72992C8.33203 1.72992 8.92189 0.908286 10.1403 0.764457C11.4929 0.604264 12.5637 1.82896 13.7587 1.79451C15.1959 1.75231 15.3526 0.227897 16.6665 1.11412Z" fill="#F8BF16"/>
<path d="M21.5 16.1645C21.5 20.9177 17.471 23.25 12.5 23.25C7.52902 23.25 3.5 20.9186 3.5 16.1645C3.5 11.5516 10.7403 5.18005 12.5 5.18005C14.2597 5.18005 21.5 11.5525 21.5 16.1645Z" fill="#F8BF16"/>
<path d="M15.0401 5.9406H9.95927C9.66209 5.9406 9.41895 5.70806 9.41895 5.42385V5.31619C9.41895 5.03198 9.66209 4.79944 9.95927 4.79944H15.0401C15.3373 4.79944 15.5804 5.03198 15.5804 5.31619V5.42385C15.5804 5.70806 15.3373 5.9406 15.0401 5.9406Z" fill="#1E1E1E"/>
<path d="M15.6484 6.98698H9.35185C9.05467 6.98698 8.81152 6.75445 8.81152 6.47023V6.36258C8.81152 6.07836 9.05467 5.84583 9.35185 5.84583H15.6484C15.9456 5.84583 16.1887 6.07836 16.1887 6.36258V6.47023C16.1887 6.75445 15.9456 6.98698 15.6484 6.98698Z" fill="#1E1E1E"/>
<path d="M11.6668 6.83108V9.3468C11.6668 9.63101 11.4237 9.86355 11.1265 9.86355H11.014C10.7168 9.86355 10.4736 9.63101 10.4736 9.3468V6.83108C10.4736 6.54687 10.7168 6.31433 11.014 6.31433H11.1265C11.4237 6.31433 11.6668 6.54687 11.6668 6.83108Z" fill="#1E1E1E"/>
<path d="M13.2677 19.1823H11.8935C11.3162 19.1823 10.7309 18.9868 10.2005 18.6156L10.1933 18.6105C9.99243 18.4709 9.94741 18.2014 10.0942 18.0093C10.2401 17.8172 10.522 17.7742 10.7228 17.9146L10.7318 17.9206C11.1019 18.179 11.5143 18.3211 11.8935 18.3211H13.2668C13.9647 18.3211 14.0917 18.0997 14.0917 17.6648C14.0917 17.0809 13.3226 17.018 12.9921 17.018H12.0087C10.775 17.018 10.0086 16.4401 10.0086 15.51C10.0086 15.0535 10.205 13.9924 12.0232 13.9924H13.1083C13.6846 13.9924 14.2286 14.1707 14.7266 14.5212L14.7401 14.5307C14.9409 14.6702 14.9859 14.9398 14.8391 15.1319C14.6933 15.3239 14.4114 15.367 14.2106 15.2266L14.1926 15.2137C13.8531 14.9743 13.4883 14.8528 13.1092 14.8528H12.0223C10.9083 14.8528 10.9083 15.3127 10.9083 15.5091C10.9083 16.0439 11.5062 16.1559 12.0078 16.1559H12.9921C14.2079 16.1559 14.9922 16.7476 14.9922 17.6639C14.9931 18.2315 14.7689 19.1823 13.2677 19.1823Z" fill="#1E1E1E"/>
<path d="M11.8702 20.4941C11.6216 20.4941 11.4199 20.3011 11.4199 20.0634V13.1734C11.4199 12.9357 11.6216 12.7428 11.8702 12.7428C12.1187 12.7428 12.3205 12.9357 12.3205 13.1734V20.0634C12.3205 20.3011 12.1187 20.4941 11.8702 20.4941Z" fill="#1E1E1E"/>
<path d="M13.1309 20.4941C12.8824 20.4941 12.6807 20.3011 12.6807 20.0634V13.1734C12.6807 12.9357 12.8824 12.7428 13.1309 12.7428C13.3795 12.7428 13.5812 12.9357 13.5812 13.1734V20.0634C13.5812 20.3011 13.3795 20.4941 13.1309 20.4941Z" fill="#1E1E1E"/>
</svg>
