<svg width="10" height="14" viewBox="0 0 10 14" fill="none" xmlns="http://www.w3.org/2000/svg">
<g clip-path="url(#clip0_3976_34418)">
<path d="M3.00694 5.19995V4.21205C3.00694 3.97377 3.10116 3.74525 3.26887 3.57677C3.43658 3.40828 3.66405 3.31362 3.90123 3.31362H5.83233C5.94961 3.31362 6.06573 3.33688 6.17403 3.38208C6.28233 3.42727 6.38068 3.49351 6.46344 3.57698C6.5462 3.66045 6.61173 3.75953 6.65629 3.86851C6.70084 3.97749 6.72353 4.09423 6.72307 4.21205V5.19995H7.61023V4.21205C7.61023 3.73739 7.42255 3.28218 7.08846 2.94655C6.75437 2.61092 6.30125 2.42236 5.82877 2.42236H3.89767C3.4252 2.42236 2.97208 2.61092 2.63799 2.94655C2.3039 3.28218 2.11621 3.73739 2.11621 4.21205V5.19995H3.00694Z" fill="#F8BF16"/>
<path d="M8.14504 12.1336C10.0391 10.3887 10.1666 7.43166 8.42978 5.52881C6.69294 3.62596 3.74947 3.49789 1.85537 5.24275C-0.0387409 6.98761 -0.166228 9.94466 1.57062 11.8475C3.30746 13.7504 6.25093 13.8784 8.14504 12.1336Z" fill="#F8BF16"/>
<path d="M7.85113 12.0009C9.64952 10.3442 9.77056 7.53661 8.12149 5.72992C6.47241 3.92323 3.6777 3.80163 1.87931 5.45832C0.080929 7.115 -0.0401174 9.92261 1.60896 11.7293C3.25803 13.536 6.05275 13.6576 7.85113 12.0009Z" fill="#F8BF16"/>
<path d="M7.41705 11.5065C8.94954 10.0938 9.05188 7.7005 7.64565 6.16094C6.23941 4.62138 3.85711 4.51856 2.32462 5.93129C0.792134 7.34402 0.689782 9.73732 2.09602 11.2769C3.50225 12.8164 5.88457 12.9193 7.41705 11.5065Z" fill="#F8BF16"/>
<g style="mix-blend-mode:overlay" opacity="0.45">
<path d="M1.34642 8.97259C1.345 8.23861 1.55633 7.52009 1.95462 6.90475C2.3529 6.28942 2.9209 5.80389 3.58927 5.50745C4.25765 5.21101 4.99747 5.11647 5.71844 5.23539C6.4394 5.35431 7.1103 5.68153 7.64923 6.17711C7.30606 5.80102 6.89066 5.49862 6.42805 5.28812C5.96543 5.07762 5.46519 4.96339 4.95746 4.95231C4.44973 4.94122 3.94502 5.03352 3.47375 5.22363C3.00247 5.41374 2.57438 5.69773 2.21527 6.05849C1.85617 6.41926 1.57348 6.84932 1.38425 7.32277C1.19501 7.79622 1.10314 8.30326 1.11417 8.81334C1.1252 9.32341 1.23891 9.82596 1.44844 10.2907C1.65797 10.7555 1.95899 11.1728 2.33335 11.5175C1.69953 10.8228 1.34746 9.91496 1.34642 8.97259Z" fill="#F7AD13"/>
</g>
<g style="mix-blend-mode:multiply" opacity="0.67">
<path d="M7.25285 5.79419C7.86029 6.5199 8.22105 7.42159 8.28254 8.36775C8.28254 9.37026 7.88686 10.3319 7.18224 11.0418C6.47762 11.7516 5.52155 12.1519 4.52366 12.1547C3.58184 12.0929 2.68429 11.7305 1.96191 11.1203C2.29593 11.527 2.7109 11.8591 3.18018 12.0953C3.64946 12.3314 4.1627 12.4664 4.68696 12.4916C5.21123 12.5168 5.73495 12.4316 6.22452 12.2416C6.7141 12.0515 7.15872 11.7607 7.52985 11.3878C7.90099 11.015 8.19045 10.5683 8.37966 10.0765C8.56888 9.58464 8.65367 9.0585 8.62859 8.53181C8.60352 8.00512 8.46913 7.48952 8.23405 7.01807C7.99898 6.54663 7.66841 6.12975 7.26354 5.79419H7.25285Z" fill="#F44B16" fill-opacity="0.2"/>
</g>
<g style="mix-blend-mode:multiply" opacity="0.67">
<g style="mix-blend-mode:multiply">
<g style="mix-blend-mode:multiply" opacity="0.67">
<path d="M5.49397 6.91909V11.3445H4.55832V7.80719H4.53239L3.51896 8.44248V7.61271L4.61451 6.91909H5.49397Z" fill="#7A5E0B"/>
</g>
</g>
</g>
<path d="M5.36458 -1.27856L3.68645 3.29229C3.66467 3.34718 3.65676 3.40664 3.66343 3.46535C3.67009 3.52406 3.69112 3.58021 3.72464 3.62877C3.75816 3.67733 3.80312 3.7168 3.85552 3.74365C3.90792 3.7705 3.96612 3.7839 4.02493 3.78266H4.38122L6.24106 -1.27856H5.36458Z" fill="#F8BF16"/>
<path d="M6.23777 -1.27856L4.37793 3.78266H5.24728L7.11069 -1.27856H6.23777Z" fill="#A16E08"/>
<path d="M7.10784 -1.27865L5.68267 2.58706L5.2373 3.76825H5.85725C5.9405 3.76842 6.02118 3.73929 6.08528 3.68593C6.13373 3.64415 6.17158 3.59139 6.19573 3.53201L7.97719 -1.29297L7.10784 -1.27865Z" fill="#A16E08"/>
<path style="mix-blend-mode:multiply" opacity="0.69" d="M6.66149 2.29349L6.20187 3.54627C6.17772 3.60565 6.13986 3.6584 6.09142 3.70018C6.02732 3.75354 5.94664 3.78267 5.86339 3.78251H4.02493C3.96612 3.78375 3.90792 3.77035 3.85552 3.7435C3.80312 3.71665 3.75816 3.67718 3.72464 3.62862C3.69112 3.58006 3.67009 3.52391 3.66343 3.4652C3.65676 3.40649 3.66467 3.34703 3.68645 3.29214L5.35746 -1.24292L6.66149 2.29349Z" fill="url(#paint0_linear_3976_34418)"/>
<path d="M4.26388 -1.27856H3.39453L5.23656 3.76834H5.85294C5.93619 3.76851 6.01687 3.73938 6.08097 3.68602L5.67124 2.57284L4.26388 -1.27856Z" fill="#F8BF16"/>
<path d="M2.52539 -1.27856L4.38524 3.78266H5.25459L3.39474 -1.27856H2.52539Z" fill="#A16E08"/>
<path d="M1.65234 -1.27856L3.4338 3.54642C3.45983 3.61917 3.50861 3.6815 3.57283 3.72408C3.63706 3.76666 3.71328 3.78721 3.7901 3.78266H4.40648L2.54663 -1.27856H1.65234Z" fill="#A16E08"/>
</g>
<defs>
<linearGradient id="paint0_linear_3976_34418" x1="5.91684" y1="1.13378" x2="5.04239" y2="1.55656" gradientUnits="userSpaceOnUse">
<stop stop-color="white"/>
<stop offset="1" stop-color="#121E3D"/>
</linearGradient>
<clipPath id="clip0_3976_34418">
<rect width="10" height="14" fill="white"/>
</clipPath>
</defs>
</svg>
