<svg width="60" height="70" viewBox="0 0 60 70" fill="none" xmlns="http://www.w3.org/2000/svg">
<path d="M12.1327 43.7309L22.0251 38.0592L30.2065 42.9151L55.675 27.92V21.4713L30.2065 36.5636L21.8284 31.6494L4.28564 42.0605V43.8669V44.1388V42.3713V47.674V47.6934C4.30531 47.8488 4.32498 48.0042 4.36431 48.1401L12.1327 43.7309Z" fill="url(#paint0_linear_2109_5488)"/>
<path d="M16.9904 31.2027L24.5031 26.91L24.5228 26.8906L28.3775 24.7345C28.8888 24.9288 29.4198 25.0259 29.9705 25.0259C31.2292 25.0453 32.4092 24.5792 33.3139 23.7051C33.5695 23.472 33.7859 23.2001 33.9629 22.9281C34.4545 22.19 34.7102 21.3354 34.7299 20.4419C34.7692 17.8974 32.6845 15.7802 30.1082 15.7413C27.6892 15.7025 25.6635 17.4895 25.3881 19.8203L21.4548 22.1512L21.2778 22.2871L21.1991 22.3454L9.89069 29.066V27.3762V22.6562L29.8918 11.0796L41.4559 17.5866L43.7373 18.8686L49.126 21.8987L54.6327 18.6161L49.244 15.6054L42.3213 11.7206L41.8886 11.4875L30.8162 5.25251C30.5212 5.0777 30.1868 5 29.8525 5C29.5182 5 29.1838 5.09712 28.9085 5.25251L5.22965 18.9463C4.63965 19.2765 4.28564 19.9174 4.28564 20.5779V31.4746V31.999V38.4671L16.9904 31.2027ZM28.8692 19.2376C28.8888 19.2182 28.9282 19.1793 28.9478 19.1599C29.0068 19.1211 29.0462 19.0822 29.1052 19.0434C29.1445 19.024 29.1838 19.0045 29.2035 18.9851C29.2428 18.9657 29.2625 18.9463 29.3018 18.9268C29.4198 18.8686 29.5378 18.8297 29.6558 18.8103C29.7345 18.7909 29.7935 18.7909 29.8328 18.7714C29.8918 18.7714 29.9705 18.752 30.0295 18.7714C30.2655 18.7714 30.4818 18.8297 30.6785 18.9074C30.7178 18.9268 30.7768 18.9463 30.8162 18.9851C30.9538 19.0628 31.0719 19.1599 31.1899 19.257C31.2095 19.2765 31.2292 19.2959 31.2489 19.3347C31.2882 19.393 31.3472 19.4513 31.3865 19.5096L31.4062 19.529C31.4259 19.5484 31.4259 19.5678 31.4455 19.5872C31.4849 19.6649 31.5242 19.7232 31.5439 19.8009C31.6225 20.0146 31.6619 20.2088 31.6619 20.4419C31.6619 20.675 31.6029 20.9081 31.5045 21.1217C31.4455 21.2383 31.3865 21.3354 31.3079 21.4325C31.2095 21.549 31.1112 21.6656 30.9735 21.7433C30.9342 21.7821 30.8752 21.8016 30.8162 21.8404C30.7572 21.8792 30.6982 21.8987 30.6392 21.9375C30.5802 21.9569 30.5408 21.9764 30.4818 21.9958H30.4622C30.4032 22.0152 30.3638 22.0152 30.3048 22.0346C30.1868 22.0541 30.0885 22.0735 29.9705 22.0541C29.9115 22.0541 29.8525 22.0541 29.7935 22.0346H29.7542H29.7148C29.6952 22.0346 29.6558 22.0346 29.6362 22.0152C29.5968 22.0152 29.5772 21.9958 29.5378 21.9958C29.4592 21.9764 29.3805 21.9569 29.3215 21.9181H29.3018C29.2428 21.8987 29.1838 21.8598 29.1248 21.821C29.0855 21.8016 29.0265 21.7627 28.9872 21.7239C28.6528 21.4714 28.4365 21.1217 28.3578 20.7138V20.675V20.6556V20.6167C28.3578 20.539 28.3382 20.4613 28.3578 20.403C28.3578 20.1894 28.3972 19.9757 28.4955 19.7815C28.5938 19.5678 28.7118 19.393 28.8692 19.2376Z" fill="url(#paint1_linear_2109_5488)"/>
<path d="M31.6421 45.6539C31.1307 45.4597 30.5997 45.3625 30.049 45.3625C28.7904 45.3431 27.6104 45.8093 26.7057 46.6834C26.45 46.9164 26.2337 47.1884 26.0567 47.4603C25.565 48.1984 25.3093 49.0531 25.2897 49.9466C25.2503 52.4911 27.335 54.6083 29.9114 54.6471C32.3304 54.6859 34.3561 52.899 34.6314 50.5681C34.6314 50.4904 34.6511 50.4127 34.6511 50.3545L50.1092 40.9339V47.3438L30.108 58.9203L10.8739 48.1013L5.36719 51.3839L29.1837 64.7475C29.4787 64.9029 29.813 65 30.1474 65C30.4817 65 30.8161 64.9029 31.0914 64.7475L54.7702 51.0537C55.3602 50.7235 55.7142 50.0825 55.7142 49.4221V31.5522L31.6421 45.6539ZM31.5044 50.6458C31.4257 50.84 31.2881 51.0149 31.1307 51.1702C31.1111 51.1897 31.0717 51.2285 31.0521 51.2479C30.9931 51.2868 30.9537 51.3256 30.8947 51.3645C30.8554 51.3839 30.8161 51.4033 30.7964 51.4228C30.7571 51.4422 30.7374 51.4616 30.6981 51.481C30.58 51.5393 30.462 51.5781 30.344 51.5976C30.2654 51.617 30.2064 51.617 30.167 51.6364C30.108 51.6364 30.0294 51.6558 29.9704 51.6364C29.7344 51.6364 29.518 51.5781 29.3214 51.5005C29.282 51.481 29.223 51.4616 29.1837 51.4228C29.046 51.3451 28.928 51.2479 28.81 51.1508C28.7904 51.1314 28.7707 51.112 28.751 51.0731C28.7117 51.0149 28.6527 50.9566 28.6134 50.8983L28.5937 50.8789C28.574 50.8595 28.574 50.84 28.5544 50.8206C28.515 50.7429 28.4757 50.6847 28.456 50.607C28.3774 50.3933 28.338 50.1991 28.338 49.966C28.338 49.7329 28.397 49.4998 28.4954 49.2861C28.5544 49.1696 28.6134 49.0725 28.692 48.9754C28.7904 48.8588 28.8887 48.7423 29.0264 48.6646C29.0657 48.6257 29.1247 48.6063 29.1837 48.5675C29.2427 48.5286 29.3017 48.5092 29.3607 48.4703C29.4197 48.4509 29.459 48.4315 29.518 48.4121H29.5377C29.5967 48.3926 29.636 48.3927 29.695 48.3732C29.813 48.3538 29.9114 48.3344 30.0294 48.3538C30.0884 48.3538 30.1474 48.3538 30.2064 48.3732H30.2457H30.285C30.3047 48.3732 30.344 48.3732 30.3637 48.3926C30.403 48.3926 30.4227 48.4121 30.462 48.4121C30.5407 48.4315 30.6194 48.4509 30.6784 48.4898H30.6981C30.7571 48.5092 30.8161 48.548 30.8751 48.5869C30.9144 48.6063 30.9734 48.6452 31.0127 48.684C31.3471 48.9365 31.5634 49.2861 31.6421 49.694V49.7329V49.7523V49.7912C31.6421 49.8689 31.6617 49.9466 31.6421 50.0048C31.6421 50.2379 31.5831 50.4516 31.5044 50.6458Z" fill="url(#paint2_linear_2109_5488)"/>
<defs>
<linearGradient id="paint0_linear_2109_5488" x1="55.675" y1="34.8057" x2="4.28564" y2="34.8057" gradientUnits="userSpaceOnUse">
<stop stop-color="#F8BF16"/>
<stop offset="1" stop-color="#CF7F28"/>
</linearGradient>
<linearGradient id="paint1_linear_2109_5488" x1="54.6327" y1="21.7336" x2="4.28564" y2="21.7336" gradientUnits="userSpaceOnUse">
<stop stop-color="#F8BF16"/>
<stop offset="1" stop-color="#CF7F28"/>
</linearGradient>
<linearGradient id="paint2_linear_2109_5488" x1="55.7142" y1="48.2761" x2="5.36718" y2="48.2761" gradientUnits="userSpaceOnUse">
<stop stop-color="#F8BF16"/>
<stop offset="1" stop-color="#CF7F28"/>
</linearGradient>
</defs>
</svg>
