<svg width="23" height="23" viewBox="0 0 23 23" fill="none" xmlns="http://www.w3.org/2000/svg">
<g clip-path="url(#clip0_1658_6677)">
<path d="M2.49003 22.5767C2.62631 22.5767 2.74981 22.4987 2.87828 22.3305C3.87909 21.0242 4.52145 20.1696 5.14252 19.3428C5.84805 18.4041 6.51455 17.517 7.64453 16.0507L8.86254 14.4683C10.4312 12.4336 12.0523 10.3263 13.6529 8.25974C13.836 8.02371 13.9297 7.84941 13.5876 7.58964C13.369 7.42347 13.1369 7.27223 12.9126 7.1264C12.7288 7.00636 12.5378 6.88292 12.3583 6.75202C12.2904 6.69509 12.2049 6.66102 12.1148 6.65503C11.9856 6.65503 11.8926 6.7493 11.8117 6.85036C10.3921 8.62599 8.94204 10.4274 7.53949 12.1698L6.35484 13.6422L3.74139 16.889C2.84989 17.9958 2.00382 19.0458 0.670118 20.7054C0.655213 20.7237 0.6396 20.742 0.623275 20.7597C0.552295 20.8397 0.471378 20.9313 0.476347 21.0689C0.486994 21.2344 0.603399 21.3172 0.706319 21.3911L0.729743 21.4074C0.87454 21.5118 1.01981 21.6158 1.16555 21.7194C1.48709 21.9493 1.81998 22.1867 2.13939 22.4281C2.27141 22.5272 2.38285 22.5767 2.49003 22.5767Z" fill="currentColor"/>
<path d="M22.4554 14.6412C22.3057 13.6063 21.9487 12.5862 21.3645 11.5213C20.1366 9.28316 18.3699 7.49194 16.9638 6.17887C16.7473 5.9754 16.5684 5.78481 16.5727 5.49046C16.5766 5.4358 16.568 5.38099 16.5475 5.32982C16.527 5.27865 16.4952 5.23233 16.4542 5.19407C15.8239 4.63791 15.0779 4.00919 14.1878 3.58326C14.1061 3.53787 14.0145 3.51138 13.9202 3.50594C13.8897 3.50585 13.8593 3.50996 13.8301 3.51814C13.7644 3.53788 13.6959 3.54794 13.6271 3.54799C13.407 3.54799 13.214 3.44354 13.0095 3.33231L12.9329 3.29093C11.1548 2.3414 9.00702 1.30845 6.55327 0.808584C5.86544 0.659854 5.16313 0.580742 4.45796 0.572557C3.99591 0.570857 3.53492 0.614953 3.08239 0.704135L2.82686 0.755681L3.07458 0.835035C3.31094 0.911676 3.54872 0.986282 3.78437 1.06089C4.29329 1.22095 4.81925 1.38644 5.32959 1.56482C7.98918 2.49265 10.005 3.59953 11.6751 5.05435C12.008 5.34328 12.1656 5.58677 11.9839 5.97472C11.8888 6.17819 11.9555 6.33893 12.1897 6.46509C12.9577 6.87881 13.5625 7.31628 14.0331 7.79104C14.136 7.89549 14.2346 7.94568 14.3347 7.94568C14.4297 7.94171 14.5197 7.90369 14.5867 7.8392C14.7062 7.72696 14.8656 7.66183 15.0332 7.65675C15.1943 7.65675 15.3668 7.71779 15.5946 7.85412C17.8162 9.18957 19.732 11.0615 21.6229 13.7453C21.74 13.9108 21.855 14.0783 21.9707 14.2452C22.0653 14.3808 22.1578 14.5144 22.2482 14.646C22.2665 14.6683 22.2911 14.685 22.3192 14.6941L22.3518 14.7091L22.4746 14.7715L22.4554 14.6412Z" fill="currentColor"/>
<path d="M16.3163 4.82856C16.3395 4.82746 16.3623 4.82192 16.3833 4.81225C16.4043 4.80258 16.423 4.78898 16.4383 4.77226C16.5058 4.70851 16.5966 4.62169 16.5647 4.47791C16.4838 4.11369 15.3098 3.25708 14.8896 3.25708H14.8796H14.8513C14.7341 3.25708 14.6511 3.3249 14.605 3.4497C14.5517 3.59552 14.6674 3.66199 14.7363 3.702L14.749 3.70879C15.246 4.00121 15.713 4.33775 16.1438 4.71394C16.153 4.72236 16.1615 4.73143 16.1693 4.74106C16.1853 4.76529 16.2069 4.78575 16.2323 4.8009C16.2578 4.81605 16.2865 4.82551 16.3163 4.82856Z" fill="currentColor"/>
</g>
<defs>
<clipPath id="clip0_1658_6677">
<rect width="22" height="22" fill="currentColor" transform="matrix(-1 0 0 1 22.4746 0.573975)"/>
</clipPath>
</defs>
</svg>
