<svg width="25" height="24" viewBox="0 0 25 24" fill="none" xmlns="http://www.w3.org/2000/svg">
<path d="M5.75 3H18.75V21H5.75V3Z" fill="#121212"/>
<path d="M19.6048 5.33333C19.5063 5.31412 19.4179 5.26298 19.3543 5.18858C19.2908 5.11417 19.2561 5.02105 19.2561 4.925V3.66667C19.2561 3.22464 19.0724 2.80072 18.7454 2.48816C18.4184 2.17559 17.975 2 17.5125 2H6.61533C5.9217 2 5.25648 2.26339 4.76601 2.73223C4.27554 3.20107 4 3.83696 4 4.5V19.5C4 20.163 4.27554 20.7989 4.76601 21.2678C5.25648 21.7366 5.9217 22 6.61533 22H19.2561C19.7185 22 20.162 21.8244 20.489 21.5118C20.816 21.1993 20.9996 20.7754 20.9996 20.3333V7C21.0079 6.61009 20.8728 6.22977 20.6179 5.92524C20.3631 5.62071 20.0046 5.41125 19.6048 5.33333ZM5.74355 4.5C5.74355 4.27899 5.8354 4.06702 5.99889 3.91074C6.16238 3.75446 6.38412 3.66667 6.61533 3.66667H17.2946C17.3524 3.66667 17.4078 3.68862 17.4487 3.72769C17.4896 3.76676 17.5125 3.81975 17.5125 3.875V5.125C17.5125 5.18025 17.4896 5.23324 17.4487 5.27231C17.4078 5.31138 17.3524 5.33333 17.2946 5.33333H6.61533C6.38412 5.33333 6.16238 5.24554 5.99889 5.08926C5.8354 4.93298 5.74355 4.72101 5.74355 4.5ZM17.5213 13.0667L15.368 14.9C15.3353 14.9291 15.3128 14.9671 15.3034 15.0088C15.294 15.0505 15.2983 15.094 15.3157 15.1333L16.51 17.7583C16.575 17.8856 16.5947 18.0297 16.5661 18.1687C16.5376 18.3077 16.4623 18.434 16.3518 18.5283C16.2413 18.6226 16.1015 18.6799 15.9538 18.6913C15.8061 18.7027 15.6586 18.6678 15.5336 18.5917L12.6044 17C12.5724 16.9832 12.5364 16.9744 12.4998 16.9744C12.4633 16.9744 12.4273 16.9832 12.3952 17L9.46604 18.575C9.34106 18.6511 9.19351 18.6861 9.04582 18.6746C8.89813 18.6632 8.75839 18.606 8.64786 18.5116C8.53733 18.4173 8.46206 18.291 8.4335 18.152C8.40494 18.0131 8.42466 17.869 8.48965 17.7417L9.68398 15.1167C9.70132 15.0773 9.7056 15.0339 9.69624 14.9921C9.68689 14.9504 9.66435 14.9124 9.63168 14.8833L7.47839 13.05C7.3893 12.9638 7.32876 12.8544 7.30433 12.7355C7.2799 12.6166 7.29266 12.4934 7.34103 12.3814C7.38939 12.2694 7.47121 12.1735 7.57626 12.1056C7.68131 12.0378 7.80494 12.0011 7.93171 12H10.3988C10.4414 12.0001 10.483 11.9884 10.5187 11.9662C10.5543 11.944 10.5823 11.9123 10.5993 11.875L11.8809 9.025C11.9397 8.91665 12.0286 8.82583 12.1377 8.76245C12.2469 8.69906 12.3721 8.66554 12.4998 8.66554C12.6275 8.66554 12.7528 8.69906 12.8619 8.76245C12.9711 8.82583 13.0599 8.91665 13.1188 9.025L14.4003 11.875C14.4173 11.9123 14.4454 11.944 14.481 11.9662C14.5166 11.9884 14.5583 12.0001 14.6008 12H17.0679C17.1984 11.9976 17.3265 12.0331 17.4354 12.1017C17.5443 12.1703 17.6289 12.2689 17.678 12.3845C17.7271 12.5 17.7384 12.627 17.7104 12.7488C17.6824 12.8706 17.6165 12.9814 17.5213 13.0667Z" fill="#F8BF16"/>
</svg>
