<svg width="25" height="22" viewBox="0 0 25 22" fill="none" xmlns="http://www.w3.org/2000/svg">
<g clip-path="url(#clip0_2324_4037)">
<path d="M9.36769 2.81818H16.5257V10.0909H9.36769V2.81818Z" fill="#121212"/>
<path d="M18.4491 1H6.53988V2.03672H4.01799C4.0124 2.09375 4.00611 2.125 4.00611 2.15664C4.00611 3.00313 3.98935 3.85 4.01135 4.6957C4.06024 6.56563 5.05245 8.11992 6.59925 8.69297C6.97434 8.83203 7.19297 9.04453 7.39134 9.41875C8.22603 10.9992 9.46131 12.0102 11.0479 12.4844C11.1035 12.5008 11.1876 12.5625 11.1901 12.6066C11.2012 12.9887 11.1964 13.3711 11.1964 13.7738H8.49321V16.6922H16.5241V13.7742H13.8136C13.8136 13.4129 13.8213 13.0711 13.8101 12.7266C13.8049 12.5668 13.8489 12.5074 13.9896 12.4648C15.7105 11.9424 16.9856 10.7966 17.8149 9.02734C17.8356 8.97545 17.8672 8.92988 17.9069 8.89447C17.9467 8.85905 17.9934 8.83483 18.0433 8.82383C19.8112 8.33008 20.9941 6.6332 20.9986 4.59492C21.0005 3.80742 21.0005 3.01966 20.9986 2.23164C20.9986 2.16992 20.992 2.1082 20.9878 2.02813H18.4491V1ZM14.8687 5.36094C14.5791 5.70859 14.3032 6.08125 13.9872 6.4043C13.7776 6.61992 13.7176 6.81953 13.7836 7.1293C13.8834 7.59805 13.9348 8.08047 14.0113 8.58633C13.5328 8.30469 13.0795 8.03945 12.6297 7.7707C12.5912 7.74335 12.5465 7.72883 12.501 7.72883C12.4554 7.72883 12.4107 7.74335 12.3723 7.7707C11.9636 8.01875 11.5508 8.25781 11.1391 8.49883C11.1014 8.5207 11.0602 8.53476 10.9994 8.56172C11.0113 8.47187 11.0182 8.40859 11.0277 8.3457C11.1031 7.85859 11.1747 7.37109 11.2547 6.8875C11.276 6.75977 11.2547 6.67227 11.1667 6.58086C10.9107 6.31562 10.6655 6.03711 10.4147 5.76562C10.3033 5.64531 10.1888 5.52812 10.0445 5.375C10.4849 5.30352 10.8737 5.21484 11.2669 5.18477C11.6161 5.1582 11.8519 5.03164 11.9577 4.63477C12.0101 4.43945 12.1163 4.25977 12.199 4.07344C12.2951 3.85625 12.3922 3.63945 12.5036 3.38945C12.7292 3.90117 12.9496 4.37305 13.1448 4.85703C13.2223 5.04922 13.3285 5.12031 13.5066 5.14414C13.9725 5.20781 14.4377 5.29102 14.8687 5.36094ZM19.9509 3.21563C19.9509 3.71211 19.9572 4.19219 19.9509 4.67305C19.9369 5.5168 19.661 6.24258 19.1336 6.84492C18.907 7.11038 18.6349 7.32213 18.3335 7.46758C18.5675 6.04063 18.4093 4.62891 18.476 3.21563H19.9509ZM6.52836 3.21563C6.59436 4.63438 6.43092 6.05 6.67783 7.46914C6.61741 7.43945 6.56991 7.42109 6.52661 7.39375C5.89797 6.99805 5.45303 6.42617 5.21345 5.66328C4.96514 4.87383 5.06851 4.05469 5.06328 3.24492C5.06328 3.23555 5.07724 3.22578 5.08493 3.21563H6.52836Z" fill="#F8BF16"/>
<path d="M19.008 21V17.8898H6.0161V21H19.008Z" fill="#F8BF16"/>
</g>
<defs>
<clipPath id="clip0_2324_4037">
<rect width="17" height="20" fill="white" transform="matrix(-1 0 0 1 21 1)"/>
</clipPath>
</defs>
</svg>
