<svg width="20" height="21" viewBox="0 0 24 25" fill="none" xmlns="http://www.w3.org/2000/svg">
<g clip-path="url(#clip0_674_1483)">
<path d="M17.2758 1.70243C18.8548 1.22502 20.4901 0.959003 22.139 0.911332C22.3235 2.56905 22.2985 4.21511 22.0454 5.83679C20.1174 4.90639 18.4716 3.47984 17.2771 1.7035L17.2758 1.70243Z" fill="#F8BF16"/>
<path d="M9.42201 19.5094C8.30145 20.6441 7.02522 21.0471 5.7876 21.4379C5.01181 21.683 4.27003 21.9171 3.58336 22.3131C3.87828 21.5775 4.00543 20.8101 4.138 20.0077C4.34972 18.7284 4.56819 17.4086 5.53211 16.1397C6.44102 17.6448 7.80238 18.8242 9.42171 19.5094L9.42201 19.5094Z" fill="#F8BF16"/>
<path d="M11.0072 9.47774C11.2482 9.19981 11.5416 8.97206 11.8706 8.80749C12.1996 8.64293 12.5578 8.54477 12.9247 8.51862C13.6658 8.46582 14.3975 8.70954 14.9589 9.19618C15.5202 9.68281 15.8653 10.3725 15.9181 11.1135C15.9709 11.8545 15.7271 12.5862 15.2404 13.1475L10.7911 18.2794L10.956 19.1447L10.9585 19.1507C10.737 19.1193 10.518 19.0719 10.3034 19.0088C9.40835 18.7589 8.50432 18.2757 7.69402 17.5733C6.88373 16.871 6.27936 16.0466 5.90499 15.1962C5.81181 14.9928 5.7338 14.7828 5.6716 14.5679L6.55792 14.6099L11.0072 9.47774ZM12.1946 12.382C12.4298 12.5858 12.7201 12.7154 13.0289 12.7542C13.3376 12.7931 13.651 12.7396 13.9294 12.6003C14.2077 12.4611 14.4385 12.2425 14.5926 11.9721C14.7466 11.7017 14.8171 11.3918 14.7949 11.0814C14.7728 10.771 14.6591 10.4741 14.4683 10.2283C14.2774 9.98252 14.0179 9.79884 13.7226 9.70052C13.4274 9.60219 13.1096 9.59363 12.8094 9.67591C12.5093 9.75819 12.2403 9.92762 12.0364 10.1628C11.7638 10.4782 11.6273 10.8888 11.657 11.3046C11.6866 11.7205 11.8799 12.1076 12.1946 12.3811L12.1946 12.382Z" fill="#F8BF16"/>
<path d="M5.9281 10.6099C8.99779 6.1985 12.5102 3.41971 16.3484 2.01638C17.7237 4.07992 19.6309 5.7337 21.8685 6.80301C21.024 10.8008 18.7689 14.6697 14.8371 18.3338C14.7709 20.0992 14.2232 22.1947 12.3181 23.4354L11.5086 19.209L11.3814 18.5521L15.7137 13.5549C16.3014 12.8671 16.5933 11.9749 16.5258 11.0728C16.4582 10.1707 16.0367 9.33186 15.3531 8.7393C14.6695 8.14674 13.7793 7.84849 12.8766 7.9096C11.974 7.97072 11.1321 8.38623 10.5346 9.06553L6.20318 14.0624L5.53698 14.0318L1.23745 13.8288C2.19544 11.7671 4.18983 10.9259 5.9281 10.6099Z" fill="#F8BF16"/>
</g>
<defs>
<clipPath id="clip0_674_1483">
<rect width="24" height="24" fill="#F8BF16" transform="translate(0 0.333344)"/>
</clipPath>
</defs>
</svg>
