<svg width="31" height="30" viewBox="0 0 31 30" fill="none" xmlns="http://www.w3.org/2000/svg">
<path d="M20.6663 16.1207C20.6663 18.7393 18.5633 20.8621 15.9693 20.8621C13.3752 20.8621 11.2723 18.7393 11.2723 16.1207C11.2723 13.5021 13.3752 11.3793 15.9693 11.3793C18.5633 11.3793 20.6663 13.5021 20.6663 16.1207Z" fill="url(#paint0_linear_1658_1895)"/>
<path d="M30.9778 10.1921L30.9736 10.1594C30.8384 8.91773 29.7297 7.77485 28.5188 7.63716C25.7667 7.32404 24.091 10.377 25.9537 12.6696C25.8588 12.7205 25.7739 12.8089 25.6946 12.8819L22.751 15.5092C22.6471 15.6086 22.5435 15.7242 22.426 15.8063L22.4049 15.8206C21.8413 16.2107 21.7144 15.8169 21.4971 15.3665L16.9531 6.72767C16.8707 6.55217 16.7859 6.28465 16.658 6.14407L16.6344 6.11902C16.6618 5.96648 17.3059 5.66476 17.4548 5.54289C18.073 5.03709 18.4196 4.30054 18.5051 3.50482C18.8141 0.624784 15.5738 -1.03297 13.5822 0.716632C11.7858 2.29466 12.2455 4.86142 14.1947 5.99426C14.4412 6.13749 14.446 6.04645 14.3546 6.28329L14.3362 6.31043C14.1355 6.61126 13.9778 6.96428 13.8011 7.28189L10.2515 13.8814L9.65334 15.0585C9.25071 15.9096 9.21789 16.3803 8.25652 15.5064L5.87957 13.3479C5.62269 13.1178 5.37595 12.8666 5.10518 12.6539C6.83339 10.5484 5.32773 7.33231 2.53889 7.63475C-1.01139 8.01972 -0.835948 13.765 3.05075 13.6546C3.09425 14.1042 3.21024 14.5544 3.29906 14.9973L4.8388 30.0004C5.24292 29.9602 5.4716 29.9343 5.901 29.934H24.3096C24.9254 29.934 25.5482 29.9124 26.1619 29.965L27.744 14.7958C27.8197 14.4181 27.9077 14.0374 27.9298 13.6515C29.8072 13.7862 31.1937 12.0268 30.9778 10.1921ZM15.4901 20.0788C13.271 20.0788 11.472 18.2397 11.472 15.9709C11.472 13.7021 13.271 11.863 15.4901 11.863C17.7092 11.863 19.5082 13.7022 19.5082 15.9709C19.5082 18.2396 17.7092 20.0788 15.4901 20.0788Z" fill="url(#paint1_linear_1658_1895)"/>
<path d="M12.179 27V25.9773L16.0199 21.7727C16.4706 21.2803 16.8419 20.8523 17.1335 20.4886C17.4252 20.1212 17.6411 19.7765 17.7813 19.4545C17.9252 19.1288 17.9972 18.7879 17.9972 18.4318C17.9972 18.0227 17.8987 17.6686 17.7017 17.3693C17.5085 17.0701 17.2434 16.839 16.9063 16.6761C16.5691 16.5133 16.1903 16.4318 15.7699 16.4318C15.3229 16.4318 14.9328 16.5246 14.5994 16.7102C14.2699 16.892 14.0142 17.1477 13.8324 17.4773C13.6544 17.8068 13.5653 18.1932 13.5653 18.6364H12.2244C12.2244 17.9545 12.3816 17.3561 12.696 16.8409C13.0104 16.3258 13.4384 15.9242 13.9801 15.6364C14.5256 15.3485 15.1373 15.2045 15.8153 15.2045C16.4972 15.2045 17.1013 15.3485 17.6278 15.6364C18.1544 15.9242 18.5672 16.3125 18.8665 16.8011C19.1657 17.2898 19.3153 17.8333 19.3153 18.4318C19.3153 18.8598 19.2377 19.2784 19.0824 19.6875C18.9309 20.0928 18.6657 20.5455 18.2869 21.0455C17.9119 21.5417 17.3911 22.1477 16.7244 22.8636L14.1108 25.6591V25.75H19.5199V27H12.179Z" fill="white"/>
<defs>
<linearGradient id="paint0_linear_1658_1895" x1="15.5" y1="0.000366211" x2="15.5" y2="30.0004" gradientUnits="userSpaceOnUse">
<stop stop-color="#D0CFCB"/>
<stop offset="1" stop-color="#C2C1C1"/>
</linearGradient>
<linearGradient id="paint1_linear_1658_1895" x1="15.5" y1="0.000366211" x2="15.5" y2="30.0004" gradientUnits="userSpaceOnUse">
<stop stop-color="#D0CFCB"/>
<stop offset="1" stop-color="#C2C1C1"/>
</linearGradient>
</defs>
</svg>
