<svg width="31" height="30" viewBox="0 0 31 30" fill="none" xmlns="http://www.w3.org/2000/svg">
<path d="M20.6663 16.1207C20.6663 18.7393 18.5633 20.8621 15.9693 20.8621C13.3752 20.8621 11.2723 18.7393 11.2723 16.1207C11.2723 13.5021 13.3752 11.3793 15.9693 11.3793C18.5633 11.3793 20.6663 13.5021 20.6663 16.1207Z" fill="url(#paint0_linear_1658_4822)"/>
<path d="M30.9778 10.1921L30.9736 10.1594C30.8384 8.91773 29.7297 7.77485 28.5188 7.63716C25.7667 7.32404 24.091 10.377 25.9537 12.6696C25.8588 12.7205 25.7739 12.8089 25.6946 12.8819L22.751 15.5092C22.6471 15.6086 22.5435 15.7242 22.426 15.8063L22.4049 15.8206C21.8413 16.2107 21.7144 15.8169 21.4971 15.3665L16.9531 6.72767C16.8707 6.55217 16.7859 6.28465 16.658 6.14407L16.6344 6.11902C16.6618 5.96648 17.3059 5.66476 17.4548 5.54289C18.073 5.03709 18.4196 4.30054 18.5051 3.50482C18.8141 0.624784 15.5738 -1.03297 13.5822 0.716632C11.7858 2.29466 12.2455 4.86142 14.1947 5.99426C14.4412 6.13749 14.446 6.04645 14.3546 6.28329L14.3362 6.31043C14.1355 6.61126 13.9778 6.96428 13.8011 7.28189L10.2515 13.8814L9.65334 15.0585C9.25071 15.9096 9.21789 16.3803 8.25652 15.5064L5.87957 13.3479C5.62269 13.1178 5.37595 12.8666 5.10518 12.6539C6.83339 10.5484 5.32773 7.33231 2.53889 7.63475C-1.01139 8.01972 -0.835948 13.765 3.05075 13.6546C3.09425 14.1042 3.21024 14.5544 3.29906 14.9973L4.8388 30.0004C5.24292 29.9602 5.4716 29.9343 5.901 29.934H24.3096C24.9254 29.934 25.5482 29.9124 26.1619 29.965L27.744 14.7958C27.8197 14.4181 27.9077 14.0374 27.9298 13.6515C29.8072 13.7862 31.1937 12.0268 30.9778 10.1921ZM15.4901 20.0788C13.271 20.0788 11.472 18.2397 11.472 15.9709C11.472 13.7021 13.271 11.863 15.4901 11.863C17.7092 11.863 19.5082 13.7022 19.5082 15.9709C19.5082 18.2396 17.7092 20.0788 15.4901 20.0788Z" fill="url(#paint1_linear_1658_4822)"/>
<path d="M15.8608 27.1591C15.1108 27.1591 14.4422 27.0303 13.8551 26.7727C13.2718 26.5152 12.8078 26.1572 12.4631 25.6989C12.1222 25.2367 11.9366 24.7008 11.9063 24.0909H13.3381C13.3684 24.4659 13.4972 24.7898 13.7244 25.0625C13.9517 25.3314 14.2491 25.5398 14.6165 25.6875C14.9839 25.8352 15.3911 25.9091 15.8381 25.9091C16.3381 25.9091 16.7813 25.822 17.1676 25.6477C17.554 25.4735 17.857 25.2311 18.0767 24.9205C18.2964 24.6098 18.4063 24.25 18.4063 23.8409C18.4063 23.4129 18.3002 23.036 18.0881 22.7102C17.8759 22.3807 17.5653 22.1231 17.1563 21.9375C16.7472 21.7519 16.2472 21.6591 15.6563 21.6591H14.7244V20.4091H15.6563C16.1184 20.4091 16.5237 20.3258 16.8722 20.1591C17.2244 19.9924 17.4991 19.7576 17.696 19.4545C17.8968 19.1515 17.9972 18.7955 17.9972 18.3864C17.9972 17.9924 17.91 17.6496 17.7358 17.358C17.5616 17.0663 17.3153 16.839 16.9972 16.6761C16.6828 16.5133 16.3116 16.4318 15.8835 16.4318C15.482 16.4318 15.1032 16.5057 14.7472 16.6534C14.3949 16.7973 14.107 17.0076 13.8835 17.2841C13.66 17.5568 13.5388 17.8864 13.5199 18.2727H12.1563C12.179 17.6629 12.3627 17.1288 12.7074 16.6705C13.0521 16.2083 13.5028 15.8485 14.0597 15.5909C14.6203 15.3333 15.2358 15.2045 15.9063 15.2045C16.6259 15.2045 17.2434 15.3504 17.7585 15.642C18.2737 15.9299 18.6695 16.3106 18.946 16.7841C19.2225 17.2576 19.3608 17.7689 19.3608 18.3182C19.3608 18.9735 19.1884 19.5322 18.8438 19.9943C18.5028 20.4564 18.0388 20.7765 17.4517 20.9545V21.0455C18.1866 21.1667 18.7604 21.4792 19.1733 21.983C19.5862 22.483 19.7926 23.1023 19.7926 23.8409C19.7926 24.4735 19.6203 25.0417 19.2756 25.5455C18.9347 26.0455 18.4688 26.4394 17.8778 26.7273C17.2869 27.0152 16.6146 27.1591 15.8608 27.1591Z" fill="white"/>
<defs>
<linearGradient id="paint0_linear_1658_4822" x1="15.5" y1="0.000366211" x2="15.5" y2="30.0004" gradientUnits="userSpaceOnUse">
<stop stop-color="#FFBE93"/>
<stop offset="0.985577" stop-color="#F69256"/>
</linearGradient>
<linearGradient id="paint1_linear_1658_4822" x1="15.5" y1="0.000366211" x2="15.5" y2="30.0004" gradientUnits="userSpaceOnUse">
<stop stop-color="#FFBE93"/>
<stop offset="0.985577" stop-color="#F69256"/>
</linearGradient>
</defs>
</svg>
