<svg width="24" height="24" viewBox="0 0 24 24" fill="none" xmlns="http://www.w3.org/2000/svg">
<path d="M16.6667 15.3149C16.0756 15.3149 15.5467 15.556 15.1422 15.9337L9.59667 12.5987C9.63556 12.4139 9.66667 12.229 9.66667 12.0362C9.66667 11.8433 9.63556 11.6585 9.59667 11.4736L15.08 8.17077C15.5 8.57258 16.0522 8.8217 16.6667 8.8217C17.2855 8.8217 17.879 8.5677 18.3166 8.11558C18.7542 7.66345 19 7.05025 19 6.41085C19 5.77145 18.7542 5.15824 18.3166 4.70612C17.879 4.254 17.2855 4 16.6667 4C16.0478 4 15.4543 4.254 15.0168 4.70612C14.5792 5.15824 14.3333 5.77145 14.3333 6.41085C14.3333 6.60372 14.3644 6.78855 14.4033 6.97338L8.92 10.2762C8.5 9.87444 7.94778 9.62531 7.33333 9.62531C6.71449 9.62531 6.121 9.87931 5.68342 10.3314C5.24583 10.7836 5 11.3968 5 12.0362C5 12.6756 5.24583 13.2888 5.68342 13.7409C6.121 14.193 6.71449 14.447 7.33333 14.447C7.94778 14.447 8.5 14.1979 8.92 13.7961L14.4578 17.1311C14.4189 17.2998 14.3956 17.4766 14.3956 17.6615C14.3956 18.9553 15.4144 20 16.6667 20C17.9189 20 18.9378 18.9553 18.9378 17.6615C18.9378 17.0391 18.6985 16.4423 18.2726 16.0022C17.8467 15.5621 17.269 15.3149 16.6667 15.3149Z" fill="#B3B3B3"/>
</svg>
