<svg width="14" height="16" viewBox="0 0 14 16" fill="none" xmlns="http://www.w3.org/2000/svg">
<path d="M11.6667 11.3149C11.0756 11.3149 10.5467 11.556 10.1422 11.9337L4.59667 8.59869C4.63556 8.41386 4.66667 8.22903 4.66667 8.03616C4.66667 7.8433 4.63556 7.65846 4.59667 7.47363L10.08 4.17077C10.5 4.57258 11.0522 4.8217 11.6667 4.8217C12.2855 4.8217 12.879 4.5677 13.3166 4.11558C13.7542 3.66345 14 3.05025 14 2.41085C14 1.77145 13.7542 1.15824 13.3166 0.706121C12.879 0.254 12.2855 0 11.6667 0C11.0478 0 10.4543 0.254 10.0168 0.706121C9.57917 1.15824 9.33333 1.77145 9.33333 2.41085C9.33333 2.60372 9.36444 2.78855 9.40333 2.97338L3.92 6.27624C3.5 5.87444 2.94778 5.62531 2.33333 5.62531C1.71449 5.62531 1.121 5.87931 0.683418 6.33144C0.245833 6.78356 0 7.39677 0 8.03616C0 8.67556 0.245833 9.28877 0.683418 9.74089C1.121 10.193 1.71449 10.447 2.33333 10.447C2.94778 10.447 3.5 10.1979 3.92 9.79608L9.45778 13.1311C9.41889 13.2998 9.39556 13.4766 9.39556 13.6615C9.39556 14.9553 10.4144 16 11.6667 16C12.9189 16 13.9378 14.9553 13.9378 13.6615C13.9378 13.0391 13.6985 12.4423 13.2726 12.0022C12.8467 11.5621 12.269 11.3149 11.6667 11.3149Z" fill="currentColor"/>
</svg>
