<svg width="20" height="21" viewBox="0 0 20 21" fill="none" xmlns="http://www.w3.org/2000/svg">
<path fill-rule="evenodd" clip-rule="evenodd" d="M11.984 1.042C12.071 1.211 12.093 1.428 12.136 1.862C12.218 2.682 12.259 3.092 12.431 3.318C12.5382 3.45832 12.6806 3.56777 12.8437 3.63522C13.0069 3.70266 13.185 3.72571 13.36 3.702C13.64 3.665 13.96 3.404 14.598 2.882C14.935 2.605 15.104 2.467 15.285 2.409C15.5155 2.33534 15.7649 2.34777 15.987 2.444C16.162 2.52 16.317 2.674 16.624 2.982L17.518 3.876C17.826 4.184 17.98 4.338 18.056 4.513C18.1522 4.73506 18.1647 4.98447 18.091 5.215C18.033 5.396 17.895 5.565 17.619 5.902C17.096 6.541 16.835 6.86 16.797 7.141C16.7736 7.3159 16.7969 7.49387 16.8645 7.65686C16.9321 7.81985 17.0417 7.96204 17.182 8.069C17.407 8.241 17.818 8.282 18.639 8.364C19.072 8.407 19.289 8.429 19.459 8.516C19.6735 8.6272 19.8404 8.81227 19.929 9.037C20 9.214 20 9.432 20 9.868V11.132C20 11.568 20 11.786 19.93 11.962C19.8411 12.1874 19.6734 12.3729 19.458 12.484C19.289 12.571 19.072 12.593 18.638 12.636C17.818 12.718 17.408 12.759 17.182 12.931C17.0417 13.0382 16.9322 13.1806 16.8648 13.3437C16.7973 13.5069 16.7743 13.685 16.798 13.86C16.836 14.14 17.097 14.46 17.619 15.098C17.895 15.435 18.033 15.603 18.091 15.785C18.1647 16.0155 18.1522 16.2649 18.056 16.487C17.98 16.662 17.826 16.816 17.518 17.124L16.624 18.017C16.316 18.326 16.162 18.48 15.987 18.555C15.7649 18.6512 15.5155 18.6637 15.285 18.59C15.104 18.532 14.935 18.394 14.598 18.118C13.959 17.596 13.64 17.335 13.36 17.298C13.185 17.2743 13.0069 17.2973 12.8437 17.3648C12.6806 17.4322 12.5382 17.5417 12.431 17.682C12.259 17.907 12.218 18.317 12.136 19.138C12.093 19.572 12.071 19.789 11.984 19.958C11.8732 20.1732 11.6881 20.3409 11.463 20.43C11.286 20.5 11.068 20.5 10.632 20.5H9.368C8.932 20.5 8.714 20.5 8.538 20.43C8.31256 20.3411 8.12706 20.1734 8.016 19.958C7.929 19.789 7.907 19.572 7.864 19.138C7.782 18.318 7.741 17.908 7.569 17.682C7.46193 17.5418 7.31968 17.4325 7.1567 17.3651C6.99372 17.2976 6.81581 17.2745 6.641 17.298C6.36 17.335 6.041 17.596 5.402 18.118C5.065 18.395 4.896 18.533 4.715 18.591C4.48447 18.6647 4.23506 18.6522 4.013 18.556C3.838 18.48 3.683 18.326 3.376 18.018L2.482 17.124C2.174 16.816 2.02 16.662 1.944 16.487C1.84777 16.2649 1.83534 16.0155 1.909 15.785C1.967 15.604 2.105 15.435 2.381 15.098C2.904 14.459 3.165 14.14 3.202 13.859C3.22552 13.6842 3.20239 13.5063 3.13495 13.3433C3.06751 13.1803 2.95816 13.0381 2.818 12.931C2.593 12.759 2.182 12.718 1.361 12.636C0.928 12.593 0.711 12.571 0.541 12.484C0.326547 12.3728 0.159596 12.1877 0.0710001 11.963C9.68576e-08 11.786 0 11.568 0 11.132V9.868C0 9.432 -6.70552e-08 9.214 0.0699999 9.038C0.158887 8.81256 0.326615 8.62706 0.542 8.516C0.711 8.429 0.928 8.407 1.362 8.364C2.182 8.282 2.593 8.241 2.818 8.069C2.95834 7.96204 3.06788 7.81985 3.1355 7.65686C3.20312 7.49387 3.22641 7.3159 3.203 7.141C3.165 6.86 2.903 6.541 2.381 5.901C2.105 5.564 1.967 5.396 1.909 5.214C1.83534 4.98347 1.84777 4.73406 1.944 4.512C2.02 4.338 2.174 4.183 2.482 3.875L3.376 2.982C3.684 2.674 3.838 2.519 4.013 2.444C4.23506 2.34777 4.48447 2.33534 4.715 2.409C4.896 2.467 5.065 2.605 5.402 2.881C6.041 3.403 6.36 3.664 6.64 3.702C6.81521 3.72578 6.9936 3.70267 7.15697 3.63504C7.32034 3.56741 7.46286 3.45766 7.57 3.317C7.74 3.092 7.782 2.682 7.864 1.861C7.907 1.428 7.929 1.211 8.016 1.041C8.12701 0.826171 8.3121 0.658843 8.537 0.57C8.714 0.5 8.932 0.5 9.368 0.5H10.632C11.068 0.5 11.286 0.5 11.462 0.57C11.6874 0.658887 11.8729 0.826615 11.984 1.042ZM10 14.5C11.0609 14.5 12.0783 14.0786 12.8284 13.3284C13.5786 12.5783 14 11.5609 14 10.5C14 9.43913 13.5786 8.42172 12.8284 7.67157C12.0783 6.92143 11.0609 6.5 10 6.5C8.93913 6.5 7.92172 6.92143 7.17157 7.67157C6.42143 8.42172 6 9.43913 6 10.5C6 11.5609 6.42143 12.5783 7.17157 13.3284C7.92172 14.0786 8.93913 14.5 10 14.5Z" fill="currentColor"/>
</svg>
