<svg width="24" height="24" viewBox="0 0 24 24" fill="none" xmlns="http://www.w3.org/2000/svg">
<path d="M12.663 1.77443C12.5759 1.68735 12.4726 1.61827 12.3588 1.57114C12.2451 1.52401 12.1231 1.49976 12 1.49976C11.8769 1.49976 11.7549 1.52401 11.6412 1.57114C11.5274 1.61827 11.4241 1.68735 11.337 1.77443L5.5245 7.58693C5.34866 7.76277 5.24988 8.00126 5.24988 8.24993C5.24988 8.4986 5.34866 8.73709 5.5245 8.91293C5.70034 9.08877 5.93883 9.18755 6.1875 9.18755C6.43617 9.18755 6.67466 9.08877 6.8505 8.91293L11.0625 4.70093V15.5624C11.0625 15.8111 11.1613 16.0495 11.3371 16.2253C11.5129 16.4012 11.7514 16.4999 12 16.4999C12.2486 16.4999 12.4871 16.4012 12.6629 16.2253C12.8387 16.0495 12.9375 15.8111 12.9375 15.5624V4.70093L17.1495 8.91293C17.3253 9.08877 17.5638 9.18755 17.8125 9.18755C18.0612 9.18755 18.2997 9.08877 18.4755 8.91293C18.6513 8.73709 18.7501 8.4986 18.7501 8.24993C18.7501 8.00126 18.6513 7.76277 18.4755 7.58693L12.663 1.77443ZM4.125 12.1874C4.125 11.9388 4.02623 11.7003 3.85041 11.5245C3.6746 11.3487 3.43614 11.2499 3.1875 11.2499C2.93886 11.2499 2.7004 11.3487 2.52459 11.5245C2.34877 11.7003 2.25 11.9388 2.25 12.1874V18.3749C2.25 19.27 2.60558 20.1285 3.23851 20.7614C3.87145 21.3944 4.72989 21.7499 5.625 21.7499H18.375C19.2701 21.7499 20.1285 21.3944 20.7615 20.7614C21.3944 20.1285 21.75 19.27 21.75 18.3749V12.1874C21.75 11.9388 21.6512 11.7003 21.4754 11.5245C21.2996 11.3487 21.0611 11.2499 20.8125 11.2499C20.5639 11.2499 20.3254 11.3487 20.1496 11.5245C19.9738 11.7003 19.875 11.9388 19.875 12.1874V18.3749C19.875 18.7728 19.717 19.1543 19.4357 19.4356C19.1544 19.7169 18.7728 19.8749 18.375 19.8749H5.625C5.22718 19.8749 4.84564 19.7169 4.56434 19.4356C4.28304 19.1543 4.125 18.7728 4.125 18.3749V12.1874Z" fill="white"/>
</svg>
