<svg width="24" height="24" viewBox="0 0 24 24" fill="none" xmlns="http://www.w3.org/2000/svg">
<path fill-rule="evenodd" clip-rule="evenodd" d="M2 12C2 6.477 6.477 2 12 2C17.523 2 22 6.477 22 12C22 17.523 17.523 22 12 22C6.477 22 2 17.523 2 12ZM11.008 8.982C11.2259 8.78001 11.4988 8.64718 11.7922 8.60032C12.0856 8.55346 12.3863 8.59467 12.6563 8.71874C12.9263 8.84281 13.1534 9.04416 13.3089 9.29733C13.4644 9.5505 13.5414 9.8441 13.53 10.141V10.165C13.5272 10.3568 13.4861 10.5461 13.4092 10.7218C13.3322 10.8975 13.2209 11.056 13.0818 11.1881C12.9427 11.3202 12.7787 11.4232 12.5993 11.491C12.4198 11.5588 12.2287 11.5901 12.037 11.583C11.9027 11.578 11.7687 11.6002 11.6432 11.6481C11.5176 11.6961 11.403 11.7689 11.3062 11.8621C11.2094 11.9554 11.1324 12.0672 11.0798 12.1909C11.0272 12.3146 11 12.4476 11 12.582V14C11 14.2652 11.1054 14.5196 11.2929 14.7071C11.4804 14.8946 11.7348 15 12 15C12.2652 15 12.5196 14.8946 12.7071 14.7071C12.8946 14.5196 13 14.2652 13 14V13.461C13.7167 13.2643 14.3504 12.8408 14.8063 12.2538C15.2622 11.6669 15.5157 10.9481 15.529 10.205C15.5628 9.27674 15.2265 8.37307 14.594 7.69278C13.9616 7.01249 13.0848 6.61131 12.1565 6.5775C11.2282 6.54368 10.3246 6.88 9.64428 7.51247C8.96399 8.14494 8.56282 9.02174 8.529 9.95C8.51892 10.2152 8.61461 10.4736 8.79502 10.6682C8.97543 10.8629 9.22578 10.9779 9.491 10.988C9.75622 10.9981 10.0146 10.9024 10.2092 10.722C10.4039 10.5416 10.5189 10.2912 10.529 10.026C10.543 9.628 10.715 9.252 11.008 8.982ZM11.99 16.008C11.7248 16.008 11.4704 16.1134 11.2829 16.3009C11.0954 16.4884 10.99 16.7428 10.99 17.008C10.99 17.2732 11.0954 17.5276 11.2829 17.7151C11.4704 17.9026 11.7248 18.008 11.99 18.008H12C12.2652 18.008 12.5196 17.9026 12.7071 17.7151C12.8946 17.5276 13 17.2732 13 17.008C13 16.7428 12.8946 16.4884 12.7071 16.3009C12.5196 16.1134 12.2652 16.008 12 16.008H11.99Z" fill="#F8BF16"/>
</svg>
