<svg width="20" height="20" viewBox="0 0 20 20" fill="none" xmlns="http://www.w3.org/2000/svg">
<path d="M12.6369 7.72019V7.94098C12.6369 9.85006 12.6369 11.7593 12.6369 13.6688C12.6405 13.7813 12.6313 13.8939 12.6094 14.0048C12.5588 14.2196 12.4892 14.263 12.2368 14.2642C11.8796 14.2642 11.5224 14.2642 11.1652 14.2642C10.062 14.2642 8.95813 14.2552 7.85493 14.2691C7.38384 14.2751 7.05759 14.0085 7.06111 13.597C7.07587 11.7041 7.06743 9.81105 7.06743 7.91746V7.72019H6.8565C6.07251 7.72019 5.28923 7.72019 4.50595 7.72019C4.14385 7.72019 3.92518 7.50001 4.02361 7.23759C4.05816 7.15748 4.11401 7.08539 4.18674 7.02706C6.02189 5.48274 7.85821 3.93983 9.69571 2.39833C9.90665 2.21735 10.0993 2.22761 10.3327 2.42246C10.989 2.97021 11.6431 3.51937 12.2952 4.06993C13.4558 5.04438 14.6162 6.01863 15.7763 6.99267C15.9001 7.09643 16.0105 7.20562 15.9992 7.36609C15.9837 7.5917 15.7883 7.72261 15.4733 7.72321C14.6023 7.72321 13.7309 7.72321 12.8591 7.72321L12.6369 7.72019Z" fill="black"/>
<path d="M10.0009 16.179C9.2072 16.179 8.4135 16.179 7.61981 16.179C7.50494 16.1824 7.39017 16.1694 7.27933 16.1403C7.19041 16.1064 7.11455 16.0471 7.06208 15.9704C7.0096 15.8937 6.98306 15.8034 6.98607 15.7117C6.98858 15.6169 7.02313 15.5254 7.08453 15.451C7.14593 15.3766 7.23086 15.3233 7.32655 15.2992C7.41862 15.2783 7.51301 15.2682 7.60762 15.2692C9.20212 15.2692 10.7964 15.2692 12.3904 15.2692C12.4109 15.2692 12.4307 15.2692 12.4513 15.2692C12.7979 15.2743 13.0172 15.4547 13.0142 15.7307C13.0111 16.0067 12.8047 16.1782 12.4627 16.1797C11.6424 16.1819 10.8213 16.179 10.0009 16.179Z" fill="black"/>
<path d="M7.35015 18.0921C7.18258 18.0139 7.03709 17.9176 6.99672 17.7234C6.97242 17.6078 6.99684 17.4877 7.06464 17.3893C7.13243 17.291 7.2381 17.2223 7.35853 17.1984C7.452 17.1845 7.54657 17.1786 7.64113 17.1809H12.3568C12.4178 17.1809 12.4787 17.1809 12.5396 17.1845C12.7925 17.2042 12.9532 17.3306 13.0012 17.5496C13.0492 17.7686 12.9418 17.9431 12.7164 18.0541C12.6927 18.0658 12.6707 18.0789 12.6478 18.0913L7.35015 18.0921Z" fill="#624C09"/>
<path d="M10.0071 19.0937C10.8343 19.0937 11.6623 19.09 12.4895 19.0937C12.8574 19.0937 13.0829 19.3565 12.9938 19.6617C12.9729 19.7479 12.9245 19.8257 12.8555 19.8844C12.7865 19.9431 12.7001 19.9799 12.6083 19.9895C12.5343 19.9985 12.4597 20.0017 12.3852 19.999H7.62375C7.21015 19.999 6.99382 19.8471 6.98697 19.5544C6.98011 19.2616 7.20405 19.0922 7.6268 19.0922L10.0071 19.0937Z" fill="#F8BF16"/>
</svg>
