<svg width="24" height="24" viewBox="0 0 24 24" fill="none" xmlns="http://www.w3.org/2000/svg">
<path d="M22.2549 6.3335H15.2549C13.6636 6.3335 12.1375 6.96564 11.0122 8.09086C9.88702 9.21607 9.25488 10.7422 9.25488 12.3335C9.25488 13.9248 9.88702 15.4509 11.0122 16.5761C12.1375 17.7014 13.6636 18.3335 15.2549 18.3335H22.2549V20.3335C22.2549 20.5987 22.1495 20.8531 21.962 21.0406C21.7745 21.2281 21.5201 21.3335 21.2549 21.3335H3.25488C2.98967 21.3335 2.73531 21.2281 2.54778 21.0406C2.36024 20.8531 2.25488 20.5987 2.25488 20.3335V4.3335C2.25488 4.06828 2.36024 3.81393 2.54778 3.62639C2.73531 3.43885 2.98967 3.3335 3.25488 3.3335H21.2549C21.5201 3.3335 21.7745 3.43885 21.962 3.62639C22.1495 3.81393 22.2549 4.06828 22.2549 4.3335V6.3335ZM15.2549 8.3335H23.2549V16.3335H15.2549C14.194 16.3335 13.1766 15.9121 12.4265 15.1619C11.6763 14.4118 11.2549 13.3944 11.2549 12.3335C11.2549 11.2726 11.6763 10.2552 12.4265 9.50507C13.1766 8.75492 14.194 8.3335 15.2549 8.3335ZM15.2549 11.3335V13.3335H18.2549V11.3335H15.2549Z" fill="currentColor"/>
</svg>
