<svg width="20" height="20" viewBox="0 0 20 20" fill="none" xmlns="http://www.w3.org/2000/svg">
<path d="M12.6369 6.58579V6.80658C12.6369 8.71567 12.6369 10.6249 12.6369 12.5344C12.6405 12.6469 12.6313 12.7595 12.6094 12.8704C12.5588 13.0852 12.4892 13.1286 12.2368 13.1298C11.8796 13.1298 11.5224 13.1298 11.1652 13.1298C10.062 13.1298 8.95813 13.1208 7.85493 13.1347C7.38384 13.1407 7.05759 12.8741 7.06111 12.4626C7.07587 10.5697 7.06743 8.67665 7.06743 6.78306V6.58579H6.8565C6.07251 6.58579 5.28923 6.58579 4.50595 6.58579C4.14385 6.58579 3.92518 6.36561 4.02361 6.10319C4.05816 6.02308 4.11401 5.95099 4.18674 5.89266C6.02189 4.34834 7.85821 2.80543 9.69571 1.26393C9.90665 1.08296 10.0993 1.09321 10.3327 1.28806C10.989 1.83581 11.6431 2.38497 12.2952 2.93553C13.4558 3.90998 14.6162 4.88423 15.7763 5.85827C15.9001 5.96203 16.0105 6.07122 15.9992 6.23169C15.9837 6.4573 15.7883 6.58821 15.4733 6.58881C14.6023 6.58881 13.7309 6.58881 12.8591 6.58881L12.6369 6.58579Z" fill="#121212"/>
<path d="M10.0004 15.0446C9.20671 15.0446 8.41302 15.0446 7.61932 15.0446C7.50445 15.048 7.38968 15.035 7.27884 15.0059C7.18992 14.972 7.11406 14.9127 7.06159 14.836C7.00911 14.7593 6.98257 14.669 6.98558 14.5773C6.98809 14.4825 7.02264 14.391 7.08404 14.3166C7.14544 14.2422 7.23037 14.1889 7.32606 14.1648C7.41813 14.1439 7.51252 14.1338 7.60713 14.1348C9.20163 14.1348 10.7959 14.1348 12.3899 14.1348C12.4104 14.1348 12.4302 14.1348 12.4508 14.1348C12.7974 14.1399 13.0168 14.3203 13.0137 14.5963C13.0107 14.8723 12.8042 15.0438 12.4622 15.0453C11.6419 15.0475 10.8208 15.0446 10.0004 15.0446Z" fill="#121212"/>
<path d="M7.34991 16.9575C7.18234 16.8794 7.03685 16.783 6.99648 16.5888C6.97218 16.4733 6.9966 16.3532 7.06439 16.2548C7.13219 16.1564 7.23785 16.0878 7.35829 16.0639C7.45175 16.05 7.54633 16.0441 7.64088 16.0464H12.3566C12.4175 16.0464 12.4785 16.0464 12.5394 16.05C12.7923 16.0697 12.953 16.196 13.001 16.4151C13.049 16.6341 12.9416 16.8086 12.7161 16.9196C12.6925 16.9313 12.6704 16.9444 12.6476 16.9568L7.34991 16.9575Z" fill="#121212"/>
<path d="M10.0066 17.9591C10.8338 17.9591 11.6618 17.9555 12.489 17.9591C12.8569 17.9591 13.0824 18.222 12.9933 18.5272C12.9724 18.6133 12.9241 18.6912 12.855 18.7499C12.786 18.8086 12.6996 18.8453 12.6079 18.855C12.5339 18.864 12.4592 18.8672 12.3847 18.8645H7.62327C7.20966 18.8645 6.99334 18.7126 6.98648 18.4198C6.97963 18.1271 7.20357 17.9577 7.62631 17.9577L10.0066 17.9591Z" fill="#121212"/>
</svg>
