<svg width="92" height="89" viewBox="0 0 92 89" fill="none" xmlns="http://www.w3.org/2000/svg">
<g clip-path="url(#clip0_551_637)">
<g clip-path="url(#clip1_551_637)">
<path d="M52.8486 51.1966L52.4102 51.6386C52.5596 51.4946 52.7058 51.3473 52.8486 51.1966Z" fill="url(#paint0_linear_551_637)"/>
<path d="M39.9853 67.9452C33.9407 67.9435 28.0476 66.0513 23.1282 62.5329C18.2089 59.0145 14.5089 54.0455 12.5447 48.3192C11.1704 44.2715 10.6962 39.9719 11.1551 35.7213L11.1651 35.6305C11.1808 35.4946 11.1966 35.358 11.2137 35.2214C11.2194 35.177 11.2251 35.1341 11.2308 35.0905L11.2351 35.0583C11.2501 34.946 11.2651 34.8337 11.2815 34.7214C11.2922 34.6499 11.303 34.5741 11.3144 34.5004C11.3287 34.4081 11.3429 34.3151 11.3579 34.2221C11.3729 34.1292 11.3872 34.0426 11.4029 33.9532C11.4158 33.8766 11.4286 33.8001 11.4429 33.7236C11.4615 33.6199 11.4807 33.5162 11.5 33.4132C11.5122 33.3517 11.5236 33.2894 11.5364 33.2272C11.5593 33.1106 11.5829 32.994 11.6078 32.8767C11.6171 32.8302 11.6271 32.783 11.6378 32.7337C11.6654 32.603 11.6945 32.4722 11.725 32.341L11.7464 32.2473C11.7806 32.1 11.8178 31.9519 11.8528 31.8074L11.862 31.7688C11.9334 31.4791 12.0006 31.2295 12.0641 31.0027C12.5781 29.1674 13.2697 27.3869 14.1291 25.6862C16.6754 20.6242 20.6556 16.4269 25.5717 13.6198L25.5838 13.6469L26.4071 13.2099C29.7381 11.4389 33.384 10.3407 37.1377 9.97768C38.0802 9.88469 39.0378 9.83463 39.9853 9.83463C40.9328 9.83463 41.8904 9.88183 42.8329 9.97768C48.4655 10.5199 53.8134 12.7138 58.2077 16.2849L52.3768 22.1264C48.3664 19.1507 43.4223 17.7172 38.4452 18.0871C33.4681 18.4569 28.7893 20.6055 25.261 24.1413C24.8162 24.5869 24.3806 25.0654 23.9665 25.5646C21.7973 28.1738 20.3002 31.2762 19.6065 34.5998V34.6084C19.5994 34.6456 19.5915 34.6799 19.5844 34.72L19.5744 34.7715C19.5559 34.863 19.538 34.9539 19.5216 35.0447L19.5101 35.1055C18.945 38.233 19.0998 41.4484 19.9629 44.5069C20.2261 45.4341 20.5522 46.3422 20.9389 47.2249C21.1924 47.8021 21.4802 48.3821 21.7958 48.9493C23.662 52.3279 26.4314 55.1186 29.7931 57.0082C32.9135 58.7627 36.4312 59.686 40.0096 59.6897C45.1105 59.6813 50.0318 57.8029 53.8449 54.4089L53.8684 54.4325L54.5111 53.7888C54.6846 53.62 54.8531 53.4497 55.0109 53.2831L69.0061 39.1925C68.9741 41.6388 68.6329 44.0712 67.9908 46.4316L67.773 47.2356C65.9851 53.2247 62.3148 58.4755 57.3081 62.2069C52.3013 65.9384 46.2258 67.9509 39.9853 67.9452Z" fill="url(#paint1_linear_551_637)"/>
<path d="M3.5 11.6828H17.3403L20.4721 14.8192C19.9723 15.2663 19.476 15.7276 19.0004 16.1997L18.8762 16.3241C18.3628 16.8384 17.8558 17.3777 17.371 17.927C16.165 19.2916 15.0648 20.7463 14.08 22.2787L3.5 11.6828Z" fill="url(#paint2_linear_551_637)"/>
<path d="M16.6079 24.3028C16.7657 23.8272 16.9428 23.3573 17.1384 22.8995C17.8124 21.3235 18.7113 19.8538 19.8068 18.5364C20.1638 18.1073 20.5344 17.6996 20.9143 17.3205C21.3423 16.8928 21.7915 16.487 22.2603 16.1045L39.9957 33.8694L78.1626 -3.99646H91.5009L39.9978 47.7362L16.6079 24.3028Z" fill="url(#paint3_linear_551_637)"/>
<path d="M53.2664 28.3202L53.2402 28.294L53.2664 28.3202Z" fill="url(#paint4_linear_551_637)"/>
<path d="M53.2153 28.269L53.2407 28.2945L53.2153 28.269Z" fill="url(#paint5_linear_551_637)"/>
<path d="M52.8486 51.1966L52.4102 51.6386C52.5596 51.4946 52.7058 51.3473 52.8486 51.1966Z" fill="url(#paint6_linear_551_637)"/>
<path d="M39.9853 67.9452C33.9407 67.9435 28.0476 66.0513 23.1282 62.5329C18.2089 59.0145 14.5089 54.0455 12.5447 48.3192C11.1704 44.2715 10.6962 39.9719 11.1551 35.7213L11.1651 35.6305C11.1808 35.4946 11.1966 35.358 11.2137 35.2214C11.2194 35.177 11.2251 35.1341 11.2308 35.0905L11.2351 35.0583C11.2501 34.946 11.2651 34.8337 11.2815 34.7214C11.2922 34.6499 11.303 34.5741 11.3144 34.5004C11.3287 34.4081 11.3429 34.3151 11.3579 34.2221C11.3729 34.1292 11.3872 34.0426 11.4029 33.9532C11.4158 33.8766 11.4286 33.8001 11.4429 33.7236C11.4615 33.6199 11.4807 33.5162 11.5 33.4132C11.5122 33.3517 11.5236 33.2894 11.5364 33.2272C11.5593 33.1106 11.5829 32.994 11.6078 32.8767C11.6171 32.8302 11.6271 32.783 11.6378 32.7337C11.6654 32.603 11.6945 32.4722 11.725 32.341L11.7464 32.2473C11.7806 32.1 11.8178 31.9519 11.8528 31.8074L11.862 31.7688C11.9334 31.4791 12.0006 31.2295 12.0641 31.0027C12.5781 29.1674 13.2697 27.3869 14.1291 25.6862C16.6754 20.6242 20.6556 16.4269 25.5717 13.6198L25.5838 13.6469L26.4071 13.2099C29.7381 11.4389 33.384 10.3407 37.1377 9.97768C38.0802 9.88469 39.0378 9.83463 39.9853 9.83463C40.9328 9.83463 41.8904 9.88183 42.8329 9.97768C48.4655 10.5199 53.8134 12.7138 58.2077 16.2849L52.3768 22.1264C48.3664 19.1507 43.4223 17.7172 38.4452 18.0871C33.4681 18.4569 28.7893 20.6055 25.261 24.1413C24.8162 24.5869 24.3806 25.0654 23.9665 25.5646C21.7973 28.1738 20.3002 31.2762 19.6065 34.5998V34.6084C19.5994 34.6456 19.5915 34.6799 19.5844 34.72L19.5744 34.7715C19.5559 34.863 19.538 34.9539 19.5216 35.0447L19.5101 35.1055C18.945 38.233 19.0998 41.4484 19.9629 44.5069C20.2261 45.4341 20.5522 46.3422 20.9389 47.2249C21.1924 47.8021 21.4802 48.3821 21.7958 48.9493C23.662 52.3279 26.4314 55.1186 29.7931 57.0082C32.9135 58.7627 36.4312 59.686 40.0096 59.6897C45.1105 59.6813 50.0318 57.8029 53.8449 54.4089L53.8684 54.4325L54.5111 53.7888C54.6846 53.62 54.8531 53.4497 55.0109 53.2831L69.0061 39.1925C68.9741 41.6388 68.6329 44.0712 67.9908 46.4316L67.773 47.2356C65.9851 53.2247 62.3148 58.4755 57.3081 62.2069C52.3013 65.9384 46.2258 67.9509 39.9853 67.9452Z" fill="url(#paint7_linear_551_637)"/>
<path d="M3.5 11.6828H17.3403L20.4721 14.8192C19.9723 15.2663 19.476 15.7276 19.0004 16.1997L18.8762 16.3241C18.3628 16.8384 17.8558 17.3777 17.371 17.927C16.165 19.2916 15.0648 20.7463 14.08 22.2787L3.5 11.6828Z" fill="url(#paint8_linear_551_637)"/>
<path d="M16.6079 24.3028C16.7657 23.8272 16.9428 23.3573 17.1384 22.8995C17.8124 21.3235 18.7113 19.8538 19.8068 18.5364C20.1638 18.1073 20.5344 17.6996 20.9143 17.3205C21.3423 16.8928 21.7915 16.487 22.2603 16.1045L39.9957 33.8694L78.1626 -3.99646H91.5009L39.9978 47.7362L16.6079 24.3028Z" fill="url(#paint9_linear_551_637)"/>
<path d="M53.2664 28.3202L53.2402 28.294L53.2664 28.3202Z" fill="url(#paint10_linear_551_637)"/>
<path d="M53.2153 28.269L53.2407 28.2945L53.2153 28.269Z" fill="url(#paint11_linear_551_637)"/>
</g>
</g>
<defs>
<linearGradient id="paint0_linear_551_637" x1="52.6294" y1="51.1966" x2="52.6294" y2="51.6386" gradientUnits="userSpaceOnUse">
<stop stop-color="#F9DA03"/>
<stop offset="0.13" stop-color="#F8C502"/>
<stop offset="0.34" stop-color="#F7AA01"/>
<stop offset="0.55" stop-color="#F79701"/>
<stop offset="0.77" stop-color="#F68C00"/>
<stop offset="1" stop-color="#F68800"/>
</linearGradient>
<linearGradient id="paint1_linear_551_637" x1="39.9953" y1="9.83606" x2="39.9953" y2="67.9417" gradientUnits="userSpaceOnUse">
<stop stop-color="#F9DA03"/>
<stop offset="0.13" stop-color="#F8C502"/>
<stop offset="0.34" stop-color="#F7AA01"/>
<stop offset="0.55" stop-color="#F79701"/>
<stop offset="0.77" stop-color="#F68C00"/>
<stop offset="1" stop-color="#F68800"/>
</linearGradient>
<linearGradient id="paint2_linear_551_637" x1="11.9857" y1="11.6828" x2="11.9857" y2="22.2794" gradientUnits="userSpaceOnUse">
<stop stop-color="#F9DA03"/>
<stop offset="0.13" stop-color="#F8C502"/>
<stop offset="0.34" stop-color="#F7AA01"/>
<stop offset="0.55" stop-color="#F79701"/>
<stop offset="0.77" stop-color="#F68C00"/>
<stop offset="1" stop-color="#F68800"/>
</linearGradient>
<linearGradient id="paint3_linear_551_637" x1="54.0537" y1="-4.00004" x2="54.0537" y2="47.7326" gradientUnits="userSpaceOnUse">
<stop stop-color="#F9DA03"/>
<stop offset="0.13" stop-color="#F8C502"/>
<stop offset="0.34" stop-color="#F7AA01"/>
<stop offset="0.55" stop-color="#F79701"/>
<stop offset="0.77" stop-color="#F68C00"/>
<stop offset="1" stop-color="#F68800"/>
</linearGradient>
<linearGradient id="paint4_linear_551_637" x1="53.2533" y1="28.294" x2="53.2533" y2="28.3202" gradientUnits="userSpaceOnUse">
<stop stop-color="#F9DA03"/>
<stop offset="0.13" stop-color="#F8C502"/>
<stop offset="0.34" stop-color="#F7AA01"/>
<stop offset="0.55" stop-color="#F79701"/>
<stop offset="0.77" stop-color="#F68C00"/>
<stop offset="1" stop-color="#F68800"/>
</linearGradient>
<linearGradient id="paint5_linear_551_637" x1="53.2284" y1="28.269" x2="53.2284" y2="28.2945" gradientUnits="userSpaceOnUse">
<stop stop-color="#F9DA03"/>
<stop offset="0.13" stop-color="#F8C502"/>
<stop offset="0.34" stop-color="#F7AA01"/>
<stop offset="0.55" stop-color="#F79701"/>
<stop offset="0.77" stop-color="#F68C00"/>
<stop offset="1" stop-color="#F68800"/>
</linearGradient>
<linearGradient id="paint6_linear_551_637" x1="47.4996" y1="-4.00162" x2="47.4996" y2="67.942" gradientUnits="userSpaceOnUse">
<stop offset="0.28" stop-color="#FDC70C"/>
<stop offset="1" stop-color="#ED683C"/>
</linearGradient>
<linearGradient id="paint7_linear_551_637" x1="47.4999" y1="-3.99994" x2="47.4999" y2="67.9417" gradientUnits="userSpaceOnUse">
<stop offset="0.28" stop-color="#FDC70C"/>
<stop offset="1" stop-color="#ED683C"/>
</linearGradient>
<linearGradient id="paint8_linear_551_637" x1="47.5" y1="-4.00001" x2="47.5" y2="67.9417" gradientUnits="userSpaceOnUse">
<stop offset="0.28" stop-color="#FDC70C"/>
<stop offset="1" stop-color="#ED683C"/>
</linearGradient>
<linearGradient id="paint9_linear_551_637" x1="47.5002" y1="-4.00004" x2="47.5002" y2="67.9416" gradientUnits="userSpaceOnUse">
<stop offset="0.28" stop-color="#FDC70C"/>
<stop offset="1" stop-color="#ED683C"/>
</linearGradient>
<linearGradient id="paint10_linear_551_637" x1="260.718" y1="414.035" x2="260.718" y2="487.188" gradientUnits="userSpaceOnUse">
<stop offset="0.28" stop-color="#FDC70C"/>
<stop offset="1" stop-color="#ED683C"/>
</linearGradient>
<linearGradient id="paint11_linear_551_637" x1="260.677" y1="414.057" x2="260.677" y2="487.216" gradientUnits="userSpaceOnUse">
<stop offset="0.28" stop-color="#FDC70C"/>
<stop offset="1" stop-color="#ED683C"/>
</linearGradient>
<clipPath id="clip0_551_637">
<rect width="91" height="89" fill="white" transform="translate(0.5)"/>
</clipPath>
<clipPath id="clip1_551_637">
<rect width="88" height="71.9416" fill="white" transform="translate(3.5 -4)"/>
</clipPath>
</defs>
</svg>
