<svg width="210" height="210" viewBox="0 0 210 210" fill="none" xmlns="http://www.w3.org/2000/svg">
<path d="M32.1152 173.478C33.8067 168.362 44.8021 162.408 50.9102 160.14L60.4515 176.963L85.9541 182.57C82.7777 182.57 55.7344 195.119 44.0266 201.262V182.377C38.2088 178.209 32.1152 173.478 32.1152 173.478Z" fill="#FFA02E"/>
<path d="M179.463 173.478C177.771 168.362 166.776 162.408 160.668 160.14L151.127 176.963L123.735 182.57C126.911 182.57 155.844 195.119 167.551 201.262V182.377C173.369 178.209 179.463 173.478 179.463 173.478Z" fill="#FFA02E"/>
<path d="M74.6193 169.486L85.9538 182.57L60.4512 176.963L74.6193 169.486Z" fill="#DE7123"/>
<path d="M136.015 169.486L123.736 182.57L151.128 176.963L136.015 169.486Z" fill="#DE7123"/>
<path d="M104.999 5L135.265 40.0467H74.7329L104.999 5Z" fill="url(#paint0_linear_104_2285)"/>
<path d="M105.001 205L74.7353 169.953L135.267 169.953L105.001 205Z" fill="url(#paint1_linear_104_2285)"/>
<g filter="url(#filter0_f_104_2285)">
<path d="M104.168 13.9719L107.675 24.5212L118.336 27.9906L107.675 31.4601L104.168 42.0093L100.662 31.4601L90 27.9906L100.662 24.5212L104.168 13.9719Z" fill="white" fill-opacity="0.62"/>
<path d="M107.58 24.553L107.596 24.6008L107.644 24.6165L118.013 27.9905L107.644 31.3645L107.596 31.3801L107.58 31.429L104.168 41.6926L100.757 31.429L100.74 31.3801L100.692 31.3645L90.3232 27.9905L100.692 24.6165L100.74 24.6008L100.757 24.553L104.168 14.2874L107.58 24.553Z" stroke="#FFC886" stroke-width="0.2"/>
</g>
<path d="M192.526 155L146.718 163.411L176.984 111.542L192.526 155Z" fill="url(#paint2_linear_104_2285)"/>
<path d="M17.474 54.9999L63.2819 46.5887L33.016 98.4578L17.474 54.9999Z" fill="url(#paint3_linear_104_2285)"/>
<path d="M192.525 54.9997L176.983 98.4576L146.717 46.5884L192.525 54.9997Z" fill="url(#paint4_linear_104_2285)"/>
<path d="M17.4752 155L33.0172 111.542L63.283 163.412L17.4752 155Z" fill="url(#paint5_linear_104_2285)"/>
<path d="M105.944 27.9299C148.449 27.9299 182.897 62.0222 182.897 104.066C182.897 146.109 148.449 180.201 105.944 180.201C63.4399 180.201 28.9923 146.109 28.9922 104.066C28.9922 62.0223 63.4398 27.9301 105.944 27.9299Z" fill="url(#paint6_linear_104_2285)" stroke="url(#paint7_linear_104_2285)"/>
<g filter="url(#filter1_i_104_2285)">
<ellipse cx="105.944" cy="104.065" rx="68.007" ry="67.2897" fill="url(#paint8_linear_104_2285)"/>
</g>
<g filter="url(#filter2_ii_104_2285)">
<ellipse cx="105.944" cy="104.065" rx="56.6725" ry="56.0748" fill="url(#paint9_linear_104_2285)"/>
</g>
<g filter="url(#filter3_d_104_2285)">
<path d="M72.4855 94.5052C71.4747 91.7982 74.4994 89.3673 76.9255 90.9369L122.243 120.255C124.753 121.879 123.603 125.774 120.613 125.774H86.2434C84.9914 125.774 83.871 124.996 83.433 123.823L72.4855 94.5052Z" fill="url(#paint10_linear_104_2285)"/>
<path d="M139.395 94.4692C140.416 91.7687 137.407 89.3255 134.974 90.8797L89.0008 120.245C86.4737 121.86 87.617 125.774 90.6157 125.774H125.483C126.73 125.774 127.848 125.002 128.289 123.835L139.395 94.4692Z" fill="url(#paint11_linear_104_2285)"/>
<path d="M103.259 83.7011C104.358 81.4641 107.547 81.4641 108.645 83.7011L127.372 121.841C128.35 123.834 126.9 126.163 124.679 126.163H87.2256C85.0049 126.163 83.5539 123.834 84.5327 121.841L103.259 83.7011Z" fill="url(#paint12_linear_104_2285)"/>
<mask id="mask0_104_2285" style="mask-type:alpha" maskUnits="userSpaceOnUse" x="84" y="82" width="44" height="45">
<path d="M103.259 83.7011C104.358 81.4641 107.547 81.4641 108.645 83.7011L127.372 121.841C128.35 123.834 126.9 126.163 124.679 126.163H87.2256C85.0049 126.163 83.5539 123.834 84.5327 121.841L103.259 83.7011Z" fill="url(#paint13_linear_104_2285)"/>
</mask>
<g mask="url(#mask0_104_2285)">
<g filter="url(#filter4_f_104_2285)">
<ellipse cx="24.5833" cy="6.69069" rx="24.5833" ry="6.69069" transform="matrix(0.2048 0.978804 -0.979657 0.200677 121.221 84.2329)" fill="#ECA26C"/>
</g>
</g>
<ellipse cx="105.954" cy="74.7086" rx="4.33362" ry="4.28792" fill="url(#paint14_linear_104_2285)"/>
<ellipse cx="71.7078" cy="87.1824" rx="3.54569" ry="3.5083" fill="url(#paint15_linear_104_2285)"/>
<ellipse cx="140.016" cy="87.1824" rx="3.54569" ry="3.5083" fill="url(#paint16_linear_104_2285)"/>
<rect x="83.9863" y="129.545" width="43.102" height="5.81555" rx="2.90778" fill="url(#paint17_linear_104_2285)"/>
</g>
<path d="M75.718 55.4673L77.1206 59.687L81.3853 61.0748L77.1206 62.4625L75.718 66.6822L74.3155 62.4625L70.0508 61.0748L74.3155 59.687L75.718 55.4673Z" fill="white"/>
<path d="M58.7167 36.7756L61.9894 46.6216L71.9403 49.8597L61.9894 53.0979L58.7167 62.9439L55.4441 53.0979L45.4932 49.8597L55.4441 46.6216L58.7167 36.7756Z" fill="white"/>
<g filter="url(#filter5_d_104_2285)">
<path d="M45.3369 153.09L60.4496 176.963C101.065 155.467 139.791 171.355 151.126 176.963L166.238 153.09C161.917 148.151 143.807 138.163 105.938 137.724C68.07 137.285 49.7589 147.785 45.3369 153.09Z" fill="url(#paint18_linear_104_2285)"/>
</g>
<g filter="url(#filter6_d_104_2285)">
<path d="M67.2784 158.567V146.931H71.4261C72.3314 146.931 73.0814 147.095 73.6761 147.425C74.2708 147.754 74.7159 148.205 75.0114 148.777C75.3068 149.345 75.4545 149.985 75.4545 150.698C75.4545 151.413 75.3049 152.057 75.0057 152.629C74.7102 153.198 74.2633 153.648 73.6648 153.982C73.0701 154.311 72.322 154.476 71.4205 154.476H68.5682V152.987H71.2614C71.8333 152.987 72.2973 152.889 72.6534 152.692C73.0095 152.491 73.2708 152.218 73.4375 151.874C73.6042 151.529 73.6875 151.137 73.6875 150.698C73.6875 150.258 73.6042 149.868 73.4375 149.527C73.2708 149.186 73.0076 148.919 72.6477 148.726C72.2917 148.533 71.822 148.436 71.2386 148.436H69.0341V158.567H67.2784ZM77.5128 158.567V146.931H79.2685V157.056H84.5412V158.567H77.5128ZM88.1207 158.567H86.2571L90.4446 146.931H92.473L96.6605 158.567H94.7969L91.5071 149.044H91.4162L88.1207 158.567ZM88.4332 154.01H94.4787V155.487H88.4332V154.01ZM96.392 148.442V146.931H105.398V148.442H101.767V158.567H100.017V148.442H96.392ZM109.143 146.931V158.567H107.388V146.931H109.143ZM121.092 146.931V158.567H119.479L113.564 150.033H113.456V158.567H111.7V146.931H113.325L119.246 155.476H119.354V146.931H121.092ZM131.136 146.931H132.898V154.584C132.898 155.398 132.706 156.12 132.324 156.749C131.941 157.374 131.403 157.866 130.71 158.226C130.017 158.582 129.205 158.76 128.273 158.76C127.345 158.76 126.534 158.582 125.841 158.226C125.148 157.866 124.61 157.374 124.227 156.749C123.845 156.12 123.653 155.398 123.653 154.584V146.931H125.409V154.442C125.409 154.968 125.525 155.436 125.756 155.845C125.991 156.254 126.322 156.576 126.75 156.811C127.178 157.042 127.686 157.158 128.273 157.158C128.864 157.158 129.373 157.042 129.801 156.811C130.233 156.576 130.563 156.254 130.79 155.845C131.021 155.436 131.136 154.968 131.136 154.442V146.931ZM135.45 146.931H137.581L141.286 155.976H141.422L145.126 146.931H147.257V158.567H145.587V150.146H145.479L142.047 158.55H140.661L137.229 150.141H137.121V158.567H135.45V146.931Z" fill="white"/>
</g>
<defs>
<filter id="filter0_f_104_2285" x="85" y="8.97192" width="38.3359" height="38.0374" filterUnits="userSpaceOnUse" color-interpolation-filters="sRGB">
<feFlood flood-opacity="0" result="BackgroundImageFix"/>
<feBlend mode="normal" in="SourceGraphic" in2="BackgroundImageFix" result="shape"/>
<feGaussianBlur stdDeviation="2.5" result="effect1_foregroundBlur_104_2285"/>
</filter>
<filter id="filter1_i_104_2285" x="37.9375" y="34.7756" width="136.014" height="136.579" filterUnits="userSpaceOnUse" color-interpolation-filters="sRGB">
<feFlood flood-opacity="0" result="BackgroundImageFix"/>
<feBlend mode="normal" in="SourceGraphic" in2="BackgroundImageFix" result="shape"/>
<feColorMatrix in="SourceAlpha" type="matrix" values="0 0 0 0 0 0 0 0 0 0 0 0 0 0 0 0 0 0 127 0" result="hardAlpha"/>
<feOffset dy="-2"/>
<feGaussianBlur stdDeviation="2"/>
<feComposite in2="hardAlpha" operator="arithmetic" k2="-1" k3="1"/>
<feColorMatrix type="matrix" values="0 0 0 0 0 0 0 0 0 0.172667 0 0 0 0 0.616667 0 0 0 0.15 0"/>
<feBlend mode="normal" in2="shape" result="effect1_innerShadow_104_2285"/>
</filter>
<filter id="filter2_ii_104_2285" x="49.2715" y="45.9907" width="113.345" height="116.15" filterUnits="userSpaceOnUse" color-interpolation-filters="sRGB">
<feFlood flood-opacity="0" result="BackgroundImageFix"/>
<feBlend mode="normal" in="SourceGraphic" in2="BackgroundImageFix" result="shape"/>
<feColorMatrix in="SourceAlpha" type="matrix" values="0 0 0 0 0 0 0 0 0 0 0 0 0 0 0 0 0 0 127 0" result="hardAlpha"/>
<feOffset dy="2"/>
<feGaussianBlur stdDeviation="5"/>
<feComposite in2="hardAlpha" operator="arithmetic" k2="-1" k3="1"/>
<feColorMatrix type="matrix" values="0 0 0 0 0.4875 0 0 0 0 0.1755 0 0 0 0 0 0 0 0 1 0"/>
<feBlend mode="normal" in2="shape" result="effect1_innerShadow_104_2285"/>
<feColorMatrix in="SourceAlpha" type="matrix" values="0 0 0 0 0 0 0 0 0 0 0 0 0 0 0 0 0 0 127 0" result="hardAlpha"/>
<feOffset dy="-2"/>
<feGaussianBlur stdDeviation="5"/>
<feComposite in2="hardAlpha" operator="arithmetic" k2="-1" k3="1"/>
<feColorMatrix type="matrix" values="0 0 0 0 1 0 0 0 0 0.716167 0 0 0 0 0.454167 0 0 0 1 0"/>
<feBlend mode="normal" in2="effect1_innerShadow_104_2285" result="effect2_innerShadow_104_2285"/>
</filter>
<filter id="filter3_d_104_2285" x="64.1621" y="68.4207" width="83.4004" height="72.9404" filterUnits="userSpaceOnUse" color-interpolation-filters="sRGB">
<feFlood flood-opacity="0" result="BackgroundImageFix"/>
<feColorMatrix in="SourceAlpha" type="matrix" values="0 0 0 0 0 0 0 0 0 0 0 0 0 0 0 0 0 0 127 0" result="hardAlpha"/>
<feOffset dy="2"/>
<feGaussianBlur stdDeviation="2"/>
<feComposite in2="hardAlpha" operator="out"/>
<feColorMatrix type="matrix" values="0 0 0 0 0.6 0 0 0 0 0.361709 0 0 0 0 0.19 0 0 0 1 0"/>
<feBlend mode="normal" in2="BackgroundImageFix" result="effect1_dropShadow_104_2285"/>
<feBlend mode="normal" in="SourceGraphic" in2="effect1_dropShadow_104_2285" result="shape"/>
</filter>
<filter id="filter4_f_104_2285" x="105.436" y="79.5376" width="28.5303" height="60.2004" filterUnits="userSpaceOnUse" color-interpolation-filters="sRGB">
<feFlood flood-opacity="0" result="BackgroundImageFix"/>
<feBlend mode="normal" in="SourceGraphic" in2="BackgroundImageFix" result="shape"/>
<feGaussianBlur stdDeviation="3" result="effect1_foregroundBlur_104_2285"/>
</filter>
<filter id="filter5_d_104_2285" x="25.3369" y="127.71" width="160.901" height="79.2524" filterUnits="userSpaceOnUse" color-interpolation-filters="sRGB">
<feFlood flood-opacity="0" result="BackgroundImageFix"/>
<feColorMatrix in="SourceAlpha" type="matrix" values="0 0 0 0 0 0 0 0 0 0 0 0 0 0 0 0 0 0 127 0" result="hardAlpha"/>
<feOffset dy="10"/>
<feGaussianBlur stdDeviation="10"/>
<feComposite in2="hardAlpha" operator="out"/>
<feColorMatrix type="matrix" values="0 0 0 0 0 0 0 0 0 0 0 0 0 0 0 0 0 0 0.3 0"/>
<feBlend mode="normal" in2="BackgroundImageFix" result="effect1_dropShadow_104_2285"/>
<feBlend mode="normal" in="SourceGraphic" in2="effect1_dropShadow_104_2285" result="shape"/>
</filter>
<filter id="filter6_d_104_2285" x="67.2783" y="146.93" width="79.9785" height="12.8296" filterUnits="userSpaceOnUse" color-interpolation-filters="sRGB">
<feFlood flood-opacity="0" result="BackgroundImageFix"/>
<feColorMatrix in="SourceAlpha" type="matrix" values="0 0 0 0 0 0 0 0 0 0 0 0 0 0 0 0 0 0 127 0" result="hardAlpha"/>
<feOffset dy="1"/>
<feComposite in2="hardAlpha" operator="out"/>
<feColorMatrix type="matrix" values="0 0 0 0 0.413462 0 0 0 0 0.183557 0 0 0 0 0.0178902 0 0 0 1 0"/>
<feBlend mode="normal" in2="BackgroundImageFix" result="effect1_dropShadow_104_2285"/>
<feBlend mode="normal" in="SourceGraphic" in2="effect1_dropShadow_104_2285" result="shape"/>
</filter>
<linearGradient id="paint0_linear_104_2285" x1="92.4175" y1="19.0187" x2="117.58" y2="19.0187" gradientUnits="userSpaceOnUse">
<stop offset="0.488759" stop-color="#FFC786"/>
<stop offset="0.488859" stop-color="#D1E5EE"/>
<stop offset="0.488959" stop-color="#D18E5C"/>
</linearGradient>
<linearGradient id="paint1_linear_104_2285" x1="117.582" y1="190.981" x2="92.4199" y2="190.981" gradientUnits="userSpaceOnUse">
<stop offset="0.488759" stop-color="#FFC786"/>
<stop offset="0.488859" stop-color="#D1E5EE"/>
<stop offset="0.488959" stop-color="#D18E5C"/>
</linearGradient>
<linearGradient id="paint2_linear_104_2285" x1="186.547" y1="137.21" x2="174.164" y2="158.885" gradientUnits="userSpaceOnUse">
<stop offset="0.488759" stop-color="#FFC786"/>
<stop offset="0.488859" stop-color="#D1E5EE"/>
<stop offset="0.488959" stop-color="#D18E5C"/>
</linearGradient>
<linearGradient id="paint3_linear_104_2285" x1="23.4533" y1="72.79" x2="35.8356" y2="51.1147" gradientUnits="userSpaceOnUse">
<stop offset="0.488759" stop-color="#FFC786"/>
<stop offset="0.488859" stop-color="#D1E5EE"/>
<stop offset="0.488959" stop-color="#D18E5C"/>
</linearGradient>
<linearGradient id="paint4_linear_104_2285" x1="173.964" y1="51.2282" x2="186.346" y2="72.9035" gradientUnits="userSpaceOnUse">
<stop offset="0.488759" stop-color="#FFC786"/>
<stop offset="0.488859" stop-color="#D1E5EE"/>
<stop offset="0.488959" stop-color="#D18E5C"/>
</linearGradient>
<linearGradient id="paint5_linear_104_2285" x1="36.0358" y1="158.772" x2="23.6536" y2="137.096" gradientUnits="userSpaceOnUse">
<stop offset="0.488759" stop-color="#FFC786"/>
<stop offset="0.488859" stop-color="#D1E5EE"/>
<stop offset="0.488959" stop-color="#D18E5C"/>
</linearGradient>
<linearGradient id="paint6_linear_104_2285" x1="56.2956" y1="47.0801" x2="158.353" y2="162.127" gradientUnits="userSpaceOnUse">
<stop stop-color="#FFC887"/>
<stop offset="0.520833" stop-color="#FFE7CB"/>
<stop offset="1" stop-color="#B45612"/>
</linearGradient>
<linearGradient id="paint7_linear_104_2285" x1="105.945" y1="27.4299" x2="105.945" y2="180.701" gradientUnits="userSpaceOnUse">
<stop stop-color="white" stop-opacity="0.5"/>
<stop offset="1" stop-color="white" stop-opacity="0"/>
</linearGradient>
<linearGradient id="paint8_linear_104_2285" x1="62.4956" y1="52.6635" x2="148.303" y2="157.296" gradientUnits="userSpaceOnUse">
<stop stop-color="#D28E5D"/>
<stop offset="1" stop-color="#FFC887"/>
</linearGradient>
<linearGradient id="paint9_linear_104_2285" x1="68.4401" y1="57.8863" x2="114.295" y2="160.505" gradientUnits="userSpaceOnUse">
<stop stop-color="#FFCD92"/>
<stop offset="0.484375" stop-color="#D88335"/>
<stop offset="1" stop-color="#9C5A2A"/>
</linearGradient>
<linearGradient id="paint10_linear_104_2285" x1="73.0419" y1="97.3174" x2="95.8741" y2="114.1" gradientUnits="userSpaceOnUse">
<stop stop-color="#FFDBB0"/>
<stop offset="1" stop-color="#D4905F"/>
</linearGradient>
<linearGradient id="paint11_linear_104_2285" x1="136.471" y1="92.4897" x2="122.755" y2="117.441" gradientUnits="userSpaceOnUse">
<stop stop-color="#FFDBAF"/>
<stop offset="1" stop-color="#D28E5D"/>
</linearGradient>
<linearGradient id="paint12_linear_104_2285" x1="93.9088" y1="102.898" x2="118.34" y2="102.898" gradientUnits="userSpaceOnUse">
<stop offset="0.49728" stop-color="#FFC886"/>
<stop offset="0.49738" stop-color="#D28E5D"/>
</linearGradient>
<linearGradient id="paint13_linear_104_2285" x1="93.9088" y1="102.898" x2="118.34" y2="102.898" gradientUnits="userSpaceOnUse">
<stop offset="0.416667" stop-color="#B1B0D8"/>
<stop offset="0.49738" stop-color="#FFCC1D"/>
</linearGradient>
<linearGradient id="paint14_linear_104_2285" x1="105.954" y1="70.4207" x2="105.954" y2="78.9965" gradientUnits="userSpaceOnUse">
<stop stop-color="#FFE5C7"/>
<stop offset="1" stop-color="#D28E5D"/>
</linearGradient>
<linearGradient id="paint15_linear_104_2285" x1="71.7078" y1="83.6741" x2="71.7078" y2="90.6907" gradientUnits="userSpaceOnUse">
<stop stop-color="#FFE5C7"/>
<stop offset="1" stop-color="#D28E5D"/>
</linearGradient>
<linearGradient id="paint16_linear_104_2285" x1="140.016" y1="83.6741" x2="140.016" y2="90.6907" gradientUnits="userSpaceOnUse">
<stop stop-color="#FFE5C7"/>
<stop offset="1" stop-color="#D28E5D"/>
</linearGradient>
<linearGradient id="paint17_linear_104_2285" x1="84.4761" y1="132.453" x2="127.578" y2="132.453" gradientUnits="userSpaceOnUse">
<stop stop-color="#FFC886"/>
<stop offset="1" stop-color="#D28E5D"/>
</linearGradient>
<linearGradient id="paint18_linear_104_2285" x1="51.8058" y1="160.403" x2="160.659" y2="159.186" gradientUnits="userSpaceOnUse">
<stop stop-color="#FFA02E"/>
<stop offset="1" stop-color="#C85A00"/>
</linearGradient>
</defs>
</svg>
