<svg width="210" height="210" viewBox="0 0 210 210" fill="none" xmlns="http://www.w3.org/2000/svg">
<path d="M32.1143 173.478C33.8057 168.362 44.8011 162.408 50.9093 160.14L60.4505 176.963L85.9531 182.57C82.7768 182.57 55.7335 195.119 44.0257 201.262V182.377C38.2078 178.209 32.1143 173.478 32.1143 173.478Z" fill="#531CB4"/>
<path d="M179.463 173.478C177.771 168.362 166.776 162.408 160.668 160.14L151.127 176.963L123.735 182.57C126.911 182.57 155.844 195.119 167.551 201.262V182.377C173.369 178.209 179.463 173.478 179.463 173.478Z" fill="#531CB4"/>
<path d="M74.6183 169.486L85.9528 182.57L60.4502 176.963L74.6183 169.486Z" fill="#7266F9"/>
<path d="M136.014 169.486L123.735 182.57L151.127 176.963L136.014 169.486Z" fill="#7266F9"/>
<path d="M105 5L135.266 40.0467H74.7339L105 5Z" fill="url(#paint0_linear_104_2220)"/>
<path d="M105 205L74.7343 169.953L135.266 169.953L105 205Z" fill="url(#paint1_linear_104_2220)"/>
<g filter="url(#filter0_f_104_2220)">
<path d="M105 14.3457L108.507 24.8949L119.168 28.3644L108.507 31.8338L105 42.3831L101.494 31.8338L90.832 28.3644L101.494 24.8949L105 14.3457Z" fill="white"/>
<path d="M108.412 24.9268L108.428 24.9746L108.476 24.9902L118.845 28.3643L108.476 31.7383L108.428 31.7539L108.412 31.8027L105 42.0664L101.589 31.8027L101.572 31.7539L101.524 31.7383L91.1553 28.3643L101.524 24.9902L101.572 24.9746L101.589 24.9268L105 14.6611L108.412 24.9268Z" stroke="#FAFF00" stroke-width="0.2"/>
</g>
<path d="M192.526 155L146.718 163.411L176.984 111.542L192.526 155Z" fill="url(#paint2_linear_104_2220)"/>
<path d="M17.474 55.0001L63.2819 46.5889L33.016 98.4581L17.474 55.0001Z" fill="url(#paint3_linear_104_2220)"/>
<path d="M192.526 54.9997L176.984 98.4576L146.718 46.5884L192.526 54.9997Z" fill="url(#paint4_linear_104_2220)"/>
<path d="M17.4742 155L33.0162 111.542L63.2821 163.412L17.4742 155Z" fill="url(#paint5_linear_104_2220)"/>
<path d="M105.944 27.9299C148.449 27.9299 182.897 62.0222 182.897 104.066C182.897 146.109 148.449 180.201 105.944 180.201C63.4399 180.201 28.9923 146.109 28.9922 104.066C28.9922 62.0223 63.4398 27.9301 105.944 27.9299Z" fill="url(#paint6_linear_104_2220)" stroke="url(#paint7_linear_104_2220)"/>
<g filter="url(#filter1_i_104_2220)">
<ellipse cx="105.944" cy="104.065" rx="68.007" ry="67.2897" fill="url(#paint8_linear_104_2220)"/>
</g>
<g filter="url(#filter2_ii_104_2220)">
<ellipse cx="105.944" cy="104.065" rx="56.6725" ry="56.0748" fill="url(#paint9_linear_104_2220)"/>
</g>
<g filter="url(#filter3_d_104_2220)">
<path d="M72.4845 94.5052C71.4737 91.7982 74.4984 89.3673 76.9246 90.9369L122.242 120.255C124.752 121.879 123.602 125.774 120.612 125.774H86.2425C84.9904 125.774 83.87 124.996 83.432 123.823L72.4845 94.5052Z" fill="url(#paint10_linear_104_2220)"/>
<path d="M139.394 94.4692C140.415 91.7687 137.406 89.3255 134.973 90.8797L88.9998 120.245C86.4727 121.86 87.6161 125.774 90.6147 125.774H125.482C126.729 125.774 127.847 125.002 128.288 123.835L139.394 94.4692Z" fill="url(#paint11_linear_104_2220)"/>
<path d="M103.258 83.7014C104.357 81.4643 107.546 81.4643 108.644 83.7014L127.371 121.841C128.349 123.835 126.899 126.164 124.678 126.164H87.2246C85.0039 126.164 83.553 123.835 84.5317 121.841L103.258 83.7014Z" fill="url(#paint12_linear_104_2220)"/>
<mask id="mask0_104_2220" style="mask-type:alpha" maskUnits="userSpaceOnUse" x="84" y="82" width="44" height="45">
<path d="M103.258 83.7014C104.357 81.4643 107.546 81.4643 108.644 83.7014L127.371 121.841C128.349 123.835 126.899 126.164 124.678 126.164H87.2246C85.0039 126.164 83.553 123.835 84.5317 121.841L103.258 83.7014Z" fill="url(#paint13_linear_104_2220)"/>
</mask>
<g mask="url(#mask0_104_2220)">
<g filter="url(#filter4_f_104_2220)">
<ellipse cx="24.5833" cy="6.69069" rx="24.5833" ry="6.69069" transform="matrix(0.2048 0.978804 -0.979657 0.200677 121.22 84.2332)" fill="#FFF5D2" fill-opacity="0.8"/>
</g>
</g>
<ellipse cx="105.953" cy="74.7086" rx="4.33362" ry="4.28792" fill="url(#paint14_linear_104_2220)"/>
<ellipse cx="71.7078" cy="87.1824" rx="3.54569" ry="3.5083" fill="url(#paint15_linear_104_2220)"/>
<ellipse cx="140.015" cy="87.1824" rx="3.54569" ry="3.5083" fill="url(#paint16_linear_104_2220)"/>
<rect x="83.9854" y="129.545" width="43.102" height="5.81555" rx="2.90778" fill="url(#paint17_linear_104_2220)"/>
</g>
<path d="M75.719 55.4673L77.1216 59.687L81.3863 61.0748L77.1216 62.4625L75.719 66.6822L74.3164 62.4625L70.0518 61.0748L74.3164 59.687L75.719 55.4673Z" fill="white"/>
<path d="M58.7167 36.7756L61.9894 46.6216L71.9403 49.8597L61.9894 53.0979L58.7167 62.9439L55.4441 53.0979L45.4932 49.8597L55.4441 46.6216L58.7167 36.7756Z" fill="white"/>
<g filter="url(#filter5_d_104_2220)">
<path d="M45.3379 153.09L60.4506 176.963C101.066 155.467 139.792 171.355 151.127 176.963L166.239 153.09C161.918 148.151 143.808 138.163 105.939 137.724C68.071 137.285 49.7599 147.785 45.3379 153.09Z" fill="url(#paint18_linear_104_2220)"/>
</g>
<g filter="url(#filter6_d_104_2220)">
<path d="M90.2784 158.567V146.931H94.4261C95.3314 146.931 96.0814 147.095 96.6761 147.425C97.2708 147.754 97.7159 148.205 98.0114 148.777C98.3068 149.345 98.4545 149.985 98.4545 150.698C98.4545 151.413 98.3049 152.057 98.0057 152.629C97.7102 153.198 97.2633 153.648 96.6648 153.982C96.0701 154.311 95.322 154.476 94.4205 154.476H91.5682V152.987H94.2614C94.8333 152.987 95.2973 152.889 95.6534 152.692C96.0095 152.491 96.2708 152.218 96.4375 151.874C96.6042 151.529 96.6875 151.137 96.6875 150.698C96.6875 150.258 96.6042 149.868 96.4375 149.527C96.2708 149.186 96.0076 148.919 95.6477 148.726C95.2917 148.533 94.822 148.436 94.2386 148.436H92.0341V158.567H90.2784ZM100.513 158.567V146.931H104.661C105.562 146.931 106.31 147.086 106.905 147.396C107.503 147.707 107.95 148.137 108.246 148.686C108.541 149.232 108.689 149.862 108.689 150.578C108.689 151.29 108.539 151.917 108.24 152.459C107.945 152.997 107.498 153.415 106.899 153.715C106.304 154.014 105.556 154.163 104.655 154.163H101.513V152.652H104.496C105.064 152.652 105.526 152.571 105.882 152.408C106.242 152.245 106.505 152.008 106.672 151.698C106.839 151.387 106.922 151.014 106.922 150.578C106.922 150.139 106.837 149.758 106.666 149.436C106.5 149.114 106.236 148.868 105.876 148.698C105.52 148.523 105.053 148.436 104.473 148.436H102.268V158.567H100.513ZM106.257 153.317L109.132 158.567H107.132L104.314 153.317H106.257ZM120.933 152.749C120.933 153.991 120.706 155.059 120.251 155.953C119.797 156.843 119.174 157.529 118.382 158.01C117.594 158.487 116.698 158.726 115.695 158.726C114.687 158.726 113.787 158.487 112.996 158.01C112.208 157.529 111.587 156.842 111.132 155.948C110.678 155.054 110.45 153.987 110.45 152.749C110.45 151.506 110.678 150.44 111.132 149.55C111.587 148.656 112.208 147.97 112.996 147.493C113.787 147.012 114.687 146.771 115.695 146.771C116.698 146.771 117.594 147.012 118.382 147.493C119.174 147.97 119.797 148.656 120.251 149.55C120.706 150.44 120.933 151.506 120.933 152.749ZM119.195 152.749C119.195 151.802 119.041 151.004 118.734 150.357C118.431 149.705 118.015 149.213 117.484 148.879C116.958 148.542 116.361 148.374 115.695 148.374C115.024 148.374 114.426 148.542 113.899 148.879C113.373 149.213 112.956 149.705 112.649 150.357C112.346 151.004 112.195 151.802 112.195 152.749C112.195 153.696 112.346 154.495 112.649 155.146C112.956 155.794 113.373 156.287 113.899 156.624C114.426 156.957 115.024 157.124 115.695 157.124C116.361 157.124 116.958 156.957 117.484 156.624C118.015 156.287 118.431 155.794 118.734 155.146C119.041 154.495 119.195 153.696 119.195 152.749Z" fill="white"/>
</g>
<defs>
<filter id="filter0_f_104_2220" x="87.832" y="11.3457" width="34.3359" height="34.0374" filterUnits="userSpaceOnUse" color-interpolation-filters="sRGB">
<feFlood flood-opacity="0" result="BackgroundImageFix"/>
<feBlend mode="normal" in="SourceGraphic" in2="BackgroundImageFix" result="shape"/>
<feGaussianBlur stdDeviation="1.5" result="effect1_foregroundBlur_104_2220"/>
</filter>
<filter id="filter1_i_104_2220" x="37.9375" y="34.7756" width="136.014" height="136.579" filterUnits="userSpaceOnUse" color-interpolation-filters="sRGB">
<feFlood flood-opacity="0" result="BackgroundImageFix"/>
<feBlend mode="normal" in="SourceGraphic" in2="BackgroundImageFix" result="shape"/>
<feColorMatrix in="SourceAlpha" type="matrix" values="0 0 0 0 0 0 0 0 0 0 0 0 0 0 0 0 0 0 127 0" result="hardAlpha"/>
<feOffset dy="-2"/>
<feGaussianBlur stdDeviation="1"/>
<feComposite in2="hardAlpha" operator="arithmetic" k2="-1" k3="1"/>
<feColorMatrix type="matrix" values="0 0 0 0 0.616667 0 0 0 0 0.407 0 0 0 0 0 0 0 0 0.25 0"/>
<feBlend mode="normal" in2="shape" result="effect1_innerShadow_104_2220"/>
</filter>
<filter id="filter2_ii_104_2220" x="49.2715" y="45.9907" width="113.345" height="116.149" filterUnits="userSpaceOnUse" color-interpolation-filters="sRGB">
<feFlood flood-opacity="0" result="BackgroundImageFix"/>
<feBlend mode="normal" in="SourceGraphic" in2="BackgroundImageFix" result="shape"/>
<feColorMatrix in="SourceAlpha" type="matrix" values="0 0 0 0 0 0 0 0 0 0 0 0 0 0 0 0 0 0 127 0" result="hardAlpha"/>
<feOffset dy="2"/>
<feGaussianBlur stdDeviation="2"/>
<feComposite in2="hardAlpha" operator="arithmetic" k2="-1" k3="1"/>
<feColorMatrix type="matrix" values="0 0 0 0 0.7 0 0 0 0 0.465967 0 0 0 0 0.0116667 0 0 0 1 0"/>
<feBlend mode="normal" in2="shape" result="effect1_innerShadow_104_2220"/>
<feColorMatrix in="SourceAlpha" type="matrix" values="0 0 0 0 0 0 0 0 0 0 0 0 0 0 0 0 0 0 127 0" result="hardAlpha"/>
<feOffset dy="-2"/>
<feGaussianBlur stdDeviation="1"/>
<feComposite in2="hardAlpha" operator="arithmetic" k2="-1" k3="1"/>
<feColorMatrix type="matrix" values="0 0 0 0 1 0 0 0 0 0.72 0 0 0 0 0 0 0 0 1 0"/>
<feBlend mode="normal" in2="effect1_innerShadow_104_2220" result="effect2_innerShadow_104_2220"/>
</filter>
<filter id="filter3_d_104_2220" x="66.1621" y="70.4207" width="79.3994" height="68.9404" filterUnits="userSpaceOnUse" color-interpolation-filters="sRGB">
<feFlood flood-opacity="0" result="BackgroundImageFix"/>
<feColorMatrix in="SourceAlpha" type="matrix" values="0 0 0 0 0 0 0 0 0 0 0 0 0 0 0 0 0 0 127 0" result="hardAlpha"/>
<feOffset dy="2"/>
<feGaussianBlur stdDeviation="1"/>
<feComposite in2="hardAlpha" operator="out"/>
<feColorMatrix type="matrix" values="0 0 0 0 0.358333 0 0 0 0 0.1935 0 0 0 0 0 0 0 0 1 0"/>
<feBlend mode="normal" in2="BackgroundImageFix" result="effect1_dropShadow_104_2220"/>
<feBlend mode="normal" in="SourceGraphic" in2="effect1_dropShadow_104_2220" result="shape"/>
</filter>
<filter id="filter4_f_104_2220" x="105.435" y="79.5378" width="28.5303" height="60.2004" filterUnits="userSpaceOnUse" color-interpolation-filters="sRGB">
<feFlood flood-opacity="0" result="BackgroundImageFix"/>
<feBlend mode="normal" in="SourceGraphic" in2="BackgroundImageFix" result="shape"/>
<feGaussianBlur stdDeviation="3" result="effect1_foregroundBlur_104_2220"/>
</filter>
<filter id="filter5_d_104_2220" x="25.3379" y="127.71" width="160.901" height="79.2524" filterUnits="userSpaceOnUse" color-interpolation-filters="sRGB">
<feFlood flood-opacity="0" result="BackgroundImageFix"/>
<feColorMatrix in="SourceAlpha" type="matrix" values="0 0 0 0 0 0 0 0 0 0 0 0 0 0 0 0 0 0 127 0" result="hardAlpha"/>
<feOffset dy="10"/>
<feGaussianBlur stdDeviation="10"/>
<feComposite in2="hardAlpha" operator="out"/>
<feColorMatrix type="matrix" values="0 0 0 0 0 0 0 0 0 0 0 0 0 0 0 0 0 0 0.3 0"/>
<feBlend mode="normal" in2="BackgroundImageFix" result="effect1_dropShadow_104_2220"/>
<feBlend mode="normal" in="SourceGraphic" in2="effect1_dropShadow_104_2220" result="shape"/>
</filter>
<filter id="filter6_d_104_2220" x="90.2783" y="146.771" width="30.6553" height="12.9546" filterUnits="userSpaceOnUse" color-interpolation-filters="sRGB">
<feFlood flood-opacity="0" result="BackgroundImageFix"/>
<feColorMatrix in="SourceAlpha" type="matrix" values="0 0 0 0 0 0 0 0 0 0 0 0 0 0 0 0 0 0 127 0" result="hardAlpha"/>
<feOffset dy="1"/>
<feComposite in2="hardAlpha" operator="out"/>
<feColorMatrix type="matrix" values="0 0 0 0 0.221676 0 0 0 0 0.154219 0 0 0 0 0.5875 0 0 0 1 0"/>
<feBlend mode="normal" in2="BackgroundImageFix" result="effect1_dropShadow_104_2220"/>
<feBlend mode="normal" in="SourceGraphic" in2="effect1_dropShadow_104_2220" result="shape"/>
</filter>
<linearGradient id="paint0_linear_104_2220" x1="92.4185" y1="19.0187" x2="117.581" y2="19.0187" gradientUnits="userSpaceOnUse">
<stop offset="0.484631" stop-color="#FFE590"/>
<stop offset="0.488859" stop-color="#FFC700"/>
</linearGradient>
<linearGradient id="paint1_linear_104_2220" x1="117.581" y1="190.981" x2="92.4189" y2="190.981" gradientUnits="userSpaceOnUse">
<stop offset="0.484631" stop-color="#FFE590"/>
<stop offset="0.488859" stop-color="#FFC700"/>
</linearGradient>
<linearGradient id="paint2_linear_104_2220" x1="186.547" y1="137.21" x2="174.164" y2="158.885" gradientUnits="userSpaceOnUse">
<stop offset="0.484631" stop-color="#FFE590"/>
<stop offset="0.488859" stop-color="#FFC700"/>
</linearGradient>
<linearGradient id="paint3_linear_104_2220" x1="23.4533" y1="72.7903" x2="35.8356" y2="51.115" gradientUnits="userSpaceOnUse">
<stop offset="0.484631" stop-color="#FFE590"/>
<stop offset="0.488859" stop-color="#FFC700"/>
</linearGradient>
<linearGradient id="paint4_linear_104_2220" x1="173.965" y1="51.2282" x2="186.347" y2="72.9035" gradientUnits="userSpaceOnUse">
<stop offset="0.484631" stop-color="#FFE590"/>
<stop offset="0.488859" stop-color="#FFC700"/>
</linearGradient>
<linearGradient id="paint5_linear_104_2220" x1="36.0348" y1="158.772" x2="23.6526" y2="137.096" gradientUnits="userSpaceOnUse">
<stop offset="0.484631" stop-color="#FFE590"/>
<stop offset="0.488859" stop-color="#FFC700"/>
</linearGradient>
<linearGradient id="paint6_linear_104_2220" x1="56.2956" y1="47.0801" x2="158.353" y2="162.127" gradientUnits="userSpaceOnUse">
<stop stop-color="#FFECA9"/>
<stop offset="0.237301" stop-color="#FFD600"/>
<stop offset="1" stop-color="#FF9900"/>
</linearGradient>
<linearGradient id="paint7_linear_104_2220" x1="105.945" y1="27.4299" x2="105.945" y2="180.701" gradientUnits="userSpaceOnUse">
<stop stop-color="white" stop-opacity="0.5"/>
<stop offset="1" stop-color="white" stop-opacity="0"/>
</linearGradient>
<linearGradient id="paint8_linear_104_2220" x1="62.4956" y1="52.6635" x2="148.303" y2="157.296" gradientUnits="userSpaceOnUse">
<stop stop-color="#FFC700"/>
<stop offset="1" stop-color="#D58500"/>
</linearGradient>
<linearGradient id="paint9_linear_104_2220" x1="68.4401" y1="57.8863" x2="114.295" y2="160.505" gradientUnits="userSpaceOnUse">
<stop stop-color="#FFB13C"/>
<stop offset="0.484375" stop-color="#B45F1D"/>
<stop offset="1" stop-color="#743110"/>
</linearGradient>
<linearGradient id="paint10_linear_104_2220" x1="73.0409" y1="97.3174" x2="95.8731" y2="114.1" gradientUnits="userSpaceOnUse">
<stop stop-color="#FFE176"/>
<stop offset="1" stop-color="#FFA800"/>
</linearGradient>
<linearGradient id="paint11_linear_104_2220" x1="136.47" y1="92.4897" x2="122.754" y2="117.441" gradientUnits="userSpaceOnUse">
<stop stop-color="#FFE483"/>
<stop offset="1" stop-color="#F29100"/>
</linearGradient>
<linearGradient id="paint12_linear_104_2220" x1="93.9078" y1="102.898" x2="118.339" y2="102.898" gradientUnits="userSpaceOnUse">
<stop offset="0.49738" stop-color="#FCE77B"/>
<stop offset="0.49738" stop-color="#FFCC1D"/>
</linearGradient>
<linearGradient id="paint13_linear_104_2220" x1="93.9078" y1="102.898" x2="118.339" y2="102.898" gradientUnits="userSpaceOnUse">
<stop offset="0.49738" stop-color="#FCE77B"/>
<stop offset="0.49738" stop-color="#FFCC1D"/>
</linearGradient>
<linearGradient id="paint14_linear_104_2220" x1="105.953" y1="70.4207" x2="105.953" y2="78.9965" gradientUnits="userSpaceOnUse">
<stop stop-color="#FFCD1D"/>
<stop offset="1" stop-color="#FF971D"/>
</linearGradient>
<linearGradient id="paint15_linear_104_2220" x1="71.7078" y1="83.6741" x2="71.7078" y2="90.6907" gradientUnits="userSpaceOnUse">
<stop stop-color="#FFCD1D"/>
<stop offset="1" stop-color="#FF971D"/>
</linearGradient>
<linearGradient id="paint16_linear_104_2220" x1="140.015" y1="83.6741" x2="140.015" y2="90.6907" gradientUnits="userSpaceOnUse">
<stop stop-color="#FFCD1D"/>
<stop offset="1" stop-color="#FF971D"/>
</linearGradient>
<linearGradient id="paint17_linear_104_2220" x1="84.4751" y1="132.453" x2="127.577" y2="132.453" gradientUnits="userSpaceOnUse">
<stop stop-color="#FDE07C"/>
<stop offset="1" stop-color="#FDE07C" stop-opacity="0"/>
</linearGradient>
<linearGradient id="paint18_linear_104_2220" x1="51.8068" y1="160.403" x2="160.66" y2="159.186" gradientUnits="userSpaceOnUse">
<stop stop-color="#805BEB"/>
<stop offset="1" stop-color="#523AE3"/>
</linearGradient>
</defs>
</svg>
