<svg width="20" height="20" viewBox="0 0 20 20" fill="none" xmlns="http://www.w3.org/2000/svg">
<g clip-path="url(#clip0_762_239)">
<path d="M7.88268 3.21987C8.47328 2.284 9.18532 1.43053 10.0002 0.681776C10.8222 1.44099 11.5329 2.2864 12.1172 3.21966C10.731 3.59529 9.26993 3.59535 7.88379 3.21986L7.88268 3.21987Z" fill="white"/>
<path d="M11.7266 15.6976C11.6573 16.7653 11.1874 17.5303 10.7318 18.2723C10.4462 18.7375 10.1731 19.1821 9.99905 19.6846C9.82531 19.1821 9.55251 18.7372 9.26712 18.2723C8.81227 17.5307 8.34302 16.7657 8.27404 15.6989C9.39618 16.0624 10.6045 16.062 11.7265 15.6978L11.7266 15.6976Z" fill="white"/>
<path d="M8.12185 9.91593C8.12187 9.66914 8.1705 9.42477 8.26496 9.19677C8.35942 8.96877 8.49786 8.7616 8.67238 8.5871C9.02484 8.23467 9.50285 8.03667 10.0013 8.03666C10.4997 8.03666 10.9776 8.23465 11.33 8.58707C11.6824 8.93949 11.8804 9.41748 11.8803 9.91589L11.8801 14.4725L12.344 14.8387L12.3479 14.8406C12.2218 14.9221 12.09 14.9943 11.9534 15.0566C11.3899 15.3232 10.7193 15.4756 9.99993 15.4756C9.28052 15.4757 8.6119 15.3234 8.04842 15.0568C7.91181 14.9946 7.77997 14.9225 7.654 14.8409L8.12177 14.4727L8.12185 9.91593ZM10 10.8663C10.2088 10.8663 10.4129 10.8044 10.5865 10.6884C10.7601 10.5724 10.8954 10.4076 10.9753 10.2147C11.0552 10.0218 11.0762 9.80955 11.0354 9.60479C10.9947 9.40002 10.8942 9.21194 10.7466 9.06432C10.599 8.9167 10.4109 8.81617 10.2061 8.77546C10.0014 8.73474 9.7891 8.75567 9.59622 8.83558C9.40333 8.91549 9.23847 9.05081 9.12249 9.22441C9.0065 9.39802 8.9446 9.60211 8.94461 9.81089C8.94499 10.0906 9.05626 10.3587 9.25403 10.5565C9.45179 10.7542 9.7199 10.8655 9.9996 10.8659L10 10.8663Z" fill="#F8BF16"/>
<path d="M6.04467 12.7218C5.66217 9.13668 6.22151 6.18459 7.55045 3.78655C9.15442 4.2282 10.8479 4.2284 12.4521 3.78714C13.7808 6.18479 14.3378 9.13696 13.955 12.7221C14.6972 13.6461 15.3404 14.949 14.9199 16.4151L12.6523 14.6285L12.2991 14.3514L12.2992 9.91443C12.2949 9.30752 12.0508 8.72697 11.6201 8.29936C11.1895 7.87176 10.6072 7.63181 10.0003 7.63183C9.39334 7.63186 8.81103 7.87187 8.38033 8.29951C7.94962 8.72716 7.70546 9.30774 7.7011 9.91465L7.70131 14.351L7.35017 14.6283L5.08145 16.4148C4.66108 14.9487 5.30239 13.6459 6.04467 12.7218Z" fill="white"/>
</g>
<defs>
<clipPath id="clip0_762_239">
<rect width="20" height="20" fill="white"/>
</clipPath>
</defs>
</svg>
