<svg width="24" height="24" viewBox="0 0 24 24" fill="none" xmlns="http://www.w3.org/2000/svg">
<g clip-path="url(#clip0_1591_39)">
<path d="M9.45951 3.86383C10.1682 2.74078 11.0227 1.71663 12.0005 0.81812C12.987 1.72918 13.8398 2.74367 14.541 3.86358C12.8776 4.31433 11.1242 4.31441 9.46084 3.86382L9.45951 3.86383Z" fill="#F8BF16"/>
<path d="M14.0718 18.8372C13.9885 20.1183 13.4247 21.0364 12.878 21.9268C12.5353 22.485 12.2075 23.0186 11.9987 23.6215C11.7902 23.0186 11.4628 22.4847 11.1203 21.9267C10.5745 21.0369 10.0114 20.1188 9.92865 18.8387C11.2752 19.2749 12.7252 19.2744 14.0716 18.8373L14.0718 18.8372Z" fill="#F8BF16"/>
<path d="M9.74671 11.8992C9.74674 11.603 9.80509 11.3098 9.91844 11.0362C10.0318 10.7626 10.1979 10.514 10.4073 10.3046C10.8303 9.88165 11.4039 9.64406 12.002 9.64405C12.6001 9.64404 13.1737 9.88163 13.5965 10.3045C14.0194 10.7274 14.257 11.301 14.2569 11.8991L14.2566 17.3671L14.8133 17.8065L14.8179 17.8088C14.6666 17.9066 14.5084 17.9932 14.3446 18.068C13.6684 18.3879 12.8637 18.5708 12.0004 18.5708C11.1371 18.5708 10.3348 18.3881 9.6586 18.0682C9.49466 17.9936 9.33646 17.907 9.18529 17.8091L9.74662 17.3673L9.74671 11.8992ZM12.0005 13.0396C12.251 13.0396 12.4959 12.9653 12.7043 12.8261C12.9126 12.687 13.075 12.4891 13.1709 12.2577C13.2668 12.0262 13.2919 11.7715 13.243 11.5258C13.1942 11.2801 13.0735 11.0544 12.8964 10.8772C12.7192 10.7001 12.4935 10.5795 12.2478 10.5306C12.0021 10.4817 11.7474 10.5069 11.5159 10.6027C11.2845 10.6986 11.0867 10.861 10.9475 11.0694C10.8083 11.2777 10.734 11.5226 10.734 11.7731C10.7345 12.1087 10.868 12.4305 11.1053 12.6678C11.3426 12.9051 11.6644 13.0386 12 13.0391L12.0005 13.0396Z" fill="white"/>
<path d="M7.2534 15.2662C6.7944 10.9641 7.46561 7.42156 9.06034 4.54391C10.9851 5.07389 13.0173 5.07414 14.9423 4.54462C16.5368 7.42179 17.2052 10.9644 16.7458 15.2666C17.6364 16.3754 18.4083 17.9389 17.9037 19.6982L15.1826 17.5542L14.7588 17.2217L14.7589 11.8974C14.7537 11.1691 14.4608 10.4724 13.944 9.95929C13.4272 9.44616 12.7284 9.15822 12.0001 9.15825C11.2718 9.15829 10.573 9.44629 10.0562 9.95947C9.53935 10.4726 9.24635 11.1693 9.24112 11.8976L9.24137 17.2213L8.82 17.554L6.09755 19.6978C5.59311 17.9385 6.36267 16.3751 7.2534 15.2662Z" fill="#F8BF16"/>
</g>
<defs>
<clipPath id="clip0_1591_39">
<rect width="24" height="24" fill="white"/>
</clipPath>
</defs>
</svg>
